<svg xmlns="http://www.w3.org/2000/svg" viewBox="0 0 1956.87 185.33"><defs><style>.cls-1{fill:#d1a543;}</style></defs><title>Ресурс 10</title><g id="Слой_2" data-name="Слой 2"><g id="Слой_1-2" data-name="Слой 1"><path class="cls-1" d="M5.79,83.17c11.09-4.72,20.94-9.75,32.81-12.76,2-.46,5.43-1,7.78.09l.37.15A4.32,4.32,0,0,0,48,71c9-.05,18.18-5,26.23-9,8.91-4.81,19-6.82,28.62-9.71,5.51-1.45,11-2.9,16.73-4,4-.6,8.32-1.85,12.65-.46a43.46,43.46,0,0,0,5.12.78C165.46,51.33,194,54.73,221.23,63c7.84,2.74,17.63,5.41,23.34,12.33,7.58,12.26,22.52,14.32,35.91,16.51,5.45.67,11.11,3.06,16.65,4.31,22.07,5.06,44.37,8.77,66.1,16,3.37,1.23,7.39,2.47,10.68,4.42a300.58,300.58,0,0,0,66.08,31l4,1.13c1.32.36,2.64.61,4,.93,8,1.8,16.1.75,24.31-.3a286.05,286.05,0,0,0,48.9-12.22,561.16,561.16,0,0,1,70.17-8.74c17.6-.92,35.26-1.41,52.9-.41,9,.66,18.34,1.16,26.81,5l3.84,1.67a95,95,0,0,0,20.49,5.23,219.3,219.3,0,0,0,25.49,2.2c8.75.21,18.38.49,26.63-1.44a33.29,33.29,0,0,0,5.2-2.4l7.71-4c10.53-5.53,21.14-11.06,31.95-16.18,15.15-.69,37.68-1.53,53.14-2,12.63-.3,26.46-.37,38.87-2.24,6.06-.88,12.21-1.91,17.65-4.33,2.18-1,2.94-1.64,3.71-2.81,3-4.86,9.35-6.54,14.33-7.25,13.51-2.09,28.78,1,41.94-1.5,6.86-2.81,10.72-8.1,17.36-12.44a43.66,43.66,0,0,1,13.26-5.93c13.06-3.4,26-5.79,39.14-8.25,9-1.52,17.8-3.5,27-3.3a15.28,15.28,0,0,1,4.23.82l3.12,1.21c10.32,3.79,20.86,6.92,31.08,11.27,8.51,3.59,16.53,7.28,24.19,12.9a30.44,30.44,0,0,1,4.57,4.24c3.91,4.8,10,7.72,15.69,10.55a119.21,119.21,0,0,0,24.4,8.31c8.53,2,17.09,2.31,25.81,2.65,17.56.67,35.16,1,52.75,1.76,40.71,2.26,81.78,5.44,121.42,15.61a49.63,49.63,0,0,1,9.56,3.92,89.58,89.58,0,0,0,24.19,8.43,111.15,111.15,0,0,0,25.37,2.23c4.26-.24,8.9-.44,12.67-2,3.89-2.57,7.2-3.39,11.21-4.69,8.64-2.53,17.15-4.52,25.69-6.44,8.19-2,17-3.79,24.47-7.17a12.1,12.1,0,0,0,2.56-1.62c5.78-5.23,12.73-8.83,19.14-13,7.47-4.7,14.81-9.78,21.7-14.72,3-1.91,5.49-4.7,8.7-6l1.85-.89a77.07,77.07,0,0,1,15.57-4,145.81,145.81,0,0,1,27-1.69l-1.56.31c8.41-.12,15.57-3,23.35-5.39,19.06-5.79,38.18-11.86,58.16-13.79,9.17-.51,18.79-.85,27.13,4.47l.8.53c.28.18.52.35.67.47l2.19,1.59a53.77,53.77,0,0,0,4.55,2.89,55.23,55.23,0,0,0,20.77,6.26c8.15,1.06,16.31.12,24.69.05,3,0,6-1.07,8.86-2.13,10.79-4.23,21.09-10.14,31-16.23,13.5-8.84,26.32-18.27,42.37-22.25A29.61,29.61,0,0,1,1851.7,46a34,34,0,0,1,6.1,2.37l1.18.52a30.45,30.45,0,0,0,3.74,1c10.77,2.35,21.92-3.09,32.73-6.15l1.7-.39,1.95-.29.24,0,.13,0-.08,0s-.12,0,0,0a.91.91,0,0,1,.22-.11l.37-.21c7.3-4.78,13.64-12,19.92-18.69,5.2-5.66,10.18-11.81,13.82-18.75l5.71-4,1.83.6L1956.87,7V17.07l-15.6,5.11,7.55-3.35A167.43,167.43,0,0,0,1930,34.18c-7.89,6.68-15.52,14.1-25.43,18.73a14,14,0,0,1-3.6,1l-.8.08-.37,0a16,16,0,0,0-2.19.19c-3.33.5-7.3,1.62-11.25,2.44-10.18,2.28-21.95,3.18-31.52-2.12a25.27,25.27,0,0,0-4.72-2.27c-10.82-2.45-21.81,3-31.61,7.84-6.94,3.48-13.43,8.22-20,12.32l-10.11,6.21c-8.69,5-17.23,10.52-26.83,13.8a24.71,24.71,0,0,1-6.46,1.07c-7.83.8-16,2-24,1.56a57.32,57.32,0,0,1-32.44-11.54c-3.21-2.42-7-3.32-11.46-3.83a107.21,107.21,0,0,0-22.51.48,255.36,255.36,0,0,0-34.34,6.54c-11.22,3.39-23.48,5.31-32.84,12.9-8.93,1.27-18.09,2.32-26.85,3.84-5.7,1.12-11.3,1.94-16.18,4.5-13.16,8.69-28.42,13-41.24,21.91a43.42,43.42,0,0,0-7.44,5.87c-4.78,3.73-10.59,5.52-16.11,7.62-14.36,5.25-29.52,8.57-43.89,13.1a17,17,0,0,0-2,.85c-5.66,3.54-12.92,3.18-18.76,3.06a125.14,125.14,0,0,1-51.83-14.7c-7.24-4-15.94-5.63-24.45-7.21-17.19-2.87-34.69-4.3-52.16-5.56-31.49-2.16-74.12-5.69-105.06-7.66l-13.23-.76a185.71,185.71,0,0,1-26.52-4.5c-12-3.06-25.59-6.12-34.66-15.37-3.84-3-8.32-5.06-12.91-7.48-11.48-5.58-23.72-11.61-35.15-17.34l-6-3c-1.54-.78-3.17-1.94-5-2.15-12.53-1.12-25.72,2.37-38,5.5-10.25,3-20.73,5.9-30.31,10.36-5.76,3-9.28,7-14.76,11.44a43.87,43.87,0,0,1-7.88,5.2c-6.33,2.72-13.75,2.44-20.1,2.55l-13.15-.09c-6.47.27-13.48-.42-19,2.58-.05.12-.25.2-.23.26l0,0s0,0-.18.24a14.7,14.7,0,0,1-4.57,4.5c-11.43,6.53-25.42,6.81-37.87,7.61-8,.39-18.58-.11-26.62-.25-15.12-.48-37.73-1.14-52.74-2l1.12-.31c-9.54,6.83-19.34,13.2-29.34,19.33a139.87,139.87,0,0,1-12.79,7.3l-1.39.55a7.74,7.74,0,0,1-1.29.4c-18.29,4-37.24,2.06-55.25-2.26a111,111,0,0,1-17.15-5.63c-3.62-1.32-7.39-3.6-10.89-5.13-7-2.48-14.34-3.06-21.81-3.46-32.87-1.26-89.89,7-121.08,9.32-22.23,5.46-44.05,12.61-67.08,13.73-11.68,0-23.07-3.86-34-7.46-17.95-6.41-35.66-13.38-52-23.33l-.67-.36-.66-.36-.87-.36c-12.69-5-26.38-7.73-39.76-11.45-12.35-3.34-24.73-6.48-36.95-10.48-.67-.21-1.45-.55-2.18-.83l-2-.79a43.24,43.24,0,0,0-7.54-2.1c-11.25-2.41-23.59-4-33.24-11.53a30.77,30.77,0,0,1-6.55-7c-1-1.51-3-2.79-5.28-4-9.46-4.58-20.92-6.7-31.4-8.79-23.4-4.45-47.33-6.83-71-12.41l-.59-.18a6,6,0,0,1-.73-.24l-.85-.36c-.21-.1-.19-.06-.16-.07a3.23,3.23,0,0,0-1.09-.27,42.17,42.17,0,0,0-7.8.16,162.53,162.53,0,0,0-32.69,6.94,60.43,60.43,0,0,0-14.95,7c-6.38,3.4-12.92,6.93-20.13,8.71-2.37.57-5.39,1.1-8,.22l-.83-.28c-.2-.08-.14,0-.13,0s0,0,0,0,0,0,0,0a12.25,12.25,0,0,0-3.17.7,82.39,82.39,0,0,0-14.36,7.33,152.17,152.17,0,0,0-13.68,9.43L5.79,83.17Z"/><path class="cls-1" d="M1690.73,71.48a181.91,181.91,0,0,0,18.07-5c3.52-1,6.28-2.21,10.29-2a13,13,0,0,0,2.7.39,50.8,50.8,0,0,0,16.79-3.87l-1.61.64a95.23,95.23,0,0,0,18.51-8.52c4.58-2.78,4-9.15,8.14-12.68a87.17,87.17,0,0,0,12.24-10.6c8.72-8.33,16.67-17.61,26-25.44,3-2.44,7.72-3.44,11.23-3.91,7.09-.87,13.84-.93,20.94,1a16.79,16.79,0,0,1,7.21,3.78c4.87,4.49,9.45,9.18,14.59,13.29,4.22,3.35,8.47,6.65,12.9,9.62,6.43,3.52,13.75,5.55,20.73,7.75,3.34.85,7.12,2.09,10.28,2.12,4.32-1.09,8.87-2.34,13.23-3.65l1.85,9.89c-4.51.34-9,.8-13.46,1.31a11.57,11.57,0,0,1-2.2,0c-8.38-1.8-16-5.64-23.9-8.84a48.75,48.75,0,0,1-11.9-6.59c-8.59-6.7-17-13.58-26.5-19A10.29,10.29,0,0,0,1832.2,10c-7.7-.56-16.86-1.15-24.36,1.12a3.51,3.51,0,0,0-.9.5c-2.51,1.76-5,3.76-7.42,5.68-11.21,8.59-21.67,18.2-33.37,26.28-3.27,3.17-3.38,9.3-7.46,12.45l-.74.64-.67.49a100.34,100.34,0,0,0-15.09,13.21l-1.55.57c-7.59-.1-15.14,1.47-22.55-.37a7.25,7.25,0,0,0-2,.12,54.58,54.58,0,0,0-21.21,10l-4.17-9.16Z"/><path class="cls-1" d="M322.67,111.64q-25.51-1-51,.22c-4.16.38-8.22.19-12.09,1.4C254,115,248,116.73,242.44,118.53a135.75,135.75,0,0,0-14.13,5.13,13.54,13.54,0,0,0-3.66,2.7c-18.25,17.79-37.08,10.74-59.32,11.4a8.34,8.34,0,0,0-3.31.87c-10.79,5.83-22.41,9.89-33.79,14.39-6.45,2.4-12.73,4.82-19.65,6.79-7.27,1.78-14.11,2.06-21,2.55-9.26.67-18.27.67-27.14,2.69-8.57,2.36-16.72,6.56-24.44,11L34,177.3l-1,.62a4.41,4.41,0,0,0-.37.25,9,9,0,0,1-1,.64,15.18,15.18,0,0,1-3.73,1.2c-6.09,1.24-12.15,1.84-18.3,2.49l-.82-10c6.21-.52,12.57-.82,18.64-2.14a1.61,1.61,0,0,0-.27.12,1.24,1.24,0,0,0-.28.22c.31-.18.76-.54,1-.68,10.43-6,21.42-11.51,33.36-13.79,15-2.3,31-.5,45.62-3.36,12.74-3.41,25.8-8.29,38.29-12.93a133.11,133.11,0,0,0,14.33-6.05,11.74,11.74,0,0,1,4-1.22c7.61-.64,14.74.77,22.18,1.1,16.39,1.5,26.07-.39,38.35-12.13,5.19-3.5,11.4-4.89,17.17-7,4.77-1.57,13.42-4.4,18.18-6,7.43-1.66,14.84-1.92,22.13-2.76,13.62-1.28,27.2-2.54,40.82-4.23l.38,10.06Z"/><path class="cls-1" d="M91.58,159.87c-4.48-3.17-12.34-8.66-16.54-12-4.55-2.23-9.78-1.25-14.9-2.36a16.21,16.21,0,0,1-1.93-.53C51,142.8,43.54,143.28,36,141.66c-4-.72-7.6-2.14-11.54-2.38a70.76,70.76,0,0,0-15.1.51,58.67,58.67,0,0,1-9.38-.1l1.13-10a58.61,58.61,0,0,0,7.39.71,81.44,81.44,0,0,1,16.94.57c4.21.51,8.28,2.28,12.22,3.3,7.29,2.09,15.59,2,22.83,4.91a31.5,31.5,0,0,0,6.67,1.24c3.55.54,7.63.81,10.82,3.09,2.17,1.79,4.3,3.65,6.52,5.41l9.56,7.59-2.5,3.36Z"/><path class="cls-1" d="M282.87,99.71s12.47,4.71-1.4,6.1l7.75,2.86,13.41-2.88-1.75-5.52s-9.4-3.76-10-3.76S282.87,99.71,282.87,99.71Z"/><path class="cls-1" d="M86.55,150.53a33,33,0,0,0,17.57,2.78s-9.66,4.74-10,5.12-14,0-14,0l-7.89-3.31s10.16.87,5.58-5.18Z"/><path class="cls-1" d="M1712.45,71.62S1701.67,76,1711,80.81l-5.87,0-5.25-3.58,1-4.24,7.44-2.13,3.68-.21Z"/><path class="cls-1" d="M1700,69.17a63.56,63.56,0,0,1-16.69,1.42l2.84,4.45,9.73-.42,3-2.26,1.3-2Z"/><path class="cls-1" d="M1881.52,39.54s12.28,5.48-1.25,9l10.67,3.06s10.13-4.86,10.39-5.94-3.12-5.38-3.12-5.38l-14-2Z"/><path class="cls-1" d="M1889.43,36s13.1,4.27,25.36-6.54l-2,10-17.3,4.33-6-4.72Z"/><path class="cls-1" d="M1547.24,98.88c35.31,3,70.46,6.83,104.93,15.21,11.56,3,23,6.38,33.65,12.18,5.25,2.85,9.66,6.84,14.7,10,16.83,10.75,36.42,16.9,56.09,19.39a77,77,0,0,0,12.57.57,69.91,69.91,0,0,1,13.53,1.74c6.65,1.66,13.42,3.06,19.53,6.41a6.77,6.77,0,0,1,1.89,1.81c2.66,3,7.16,4.54,11.12,4.56l-1.28-.08c9.3-.51,18.55-.82,27.59,1.64,8.9,1.36,17.84.32,27,1.72a15.23,15.23,0,0,1,7,2.59,4.05,4.05,0,0,0,1.5.65,32.23,32.23,0,0,0,8.57.37c5.93-.35,11.9-1.11,17.89-1.72,7.51-.67,15.34-1.95,23-.39a43.28,43.28,0,0,1,4.37,1.62c8.27,2.75,17.45,3.15,26.1,2.55v5.67c-10.73-1.12-21.33-2.45-31.24-6.84-4.2-1-8.64-.76-13-.57-9,.48-17.88,1.86-27,2.38-4,0-8.4.76-12-1.56-4.18-2.65-9.57-2.29-14.44-2.55l-9-.06a70.57,70.57,0,0,1-9.22-.58,49.44,49.44,0,0,0-8.74-1.31,63.22,63.22,0,0,0-17.38,2l-1.29-.08-4-2.55c-2.69-1.7-5.33-3.24-7.55-5.64a5.85,5.85,0,0,0-3.09-1.89c-5.35-1.67-11.32-1.7-16.94-1.75s-11.48.14-17.19.36a88.58,88.58,0,0,1-18.2-2.2c-21.31-4.72-40.89-15-58.23-28-11.16-7.59-24.62-11.16-37.69-14.29-22.63-5.08-45.86-7.6-69-9.16-11.57-.68-23.27-1.24-34.82-1.25l.38-10.93Z"/><path class="cls-1" d="M1594.14,100.06s-6.57,2.69,2.81,4c0,0-7.08,2.55-7.36,2.55s-14.77-3.25-14.77-3.27,2.82-5.2,2.82-5.2l12.14-1.5Z"/><path class="cls-1" d="M1537.51,117.06s17.46-7.61,34.77-6.52l-2.92-6.2s-14.78-1.13-15.53-.66-8.38,4.52-8.38,4.52l-6.87,5.84Z"/></g></g></svg>