<svg xmlns="http://www.w3.org/2000/svg" viewBox="0 0 2039.81 189.96"><defs><style>.cls-1{fill:#d1a543;}</style></defs><title>Ресурс 12</title><g id="Слой_2" data-name="Слой 2"><g id="Слой_1-2" data-name="Слой 1"><path class="cls-1" d="M5.15,88.09c26.44,17.74,61.38,18.74,90.79,8.19a162.77,162.77,0,0,0,32.16-16c8-5.29,15.85-11,24.15-15.9,17-10,35.34-18.64,55-22a112.1,112.1,0,0,1,30.12-.52c27.32,2.87,54.31,11.86,77,27.55.29.22,4.42,3,5,3.36,15.57,10.54,33.93,16.43,52.6,18,17,1.79,34.13-.93,51.21-1a68.35,68.35,0,0,0,9.58-.38c17.1-2.55,33.68-9.62,50.45-14.81a109.76,109.76,0,0,1,17-4.1c5.3-.73,10.65-1.59,15.9-2.59,36.91-7.14,76-16.4,113-22.66,21.92-3.05,46.08-5.49,66.63,4.83,3.14,1.75,3.73,2.35,6.25,3.4,8.46,3.35,17.25,5.63,26.16,7.92,31.66,8.09,64.22,13,96.75,16.19a1435.89,1435.89,0,0,0,147,7.55c16,.12,31.46-1.93,47.12-4.84,37.32-7.15,73.91-18.2,111.43-25,7.54-1.42,16.31-3.36,23.75-5.39,13.57-3.69,27.6-7.81,41.82-7.62l4.35.2c.72.05,1.45.05,2.17.13l2.15.25c1.43.17,2.87.3,4.29.52l4.23.77,2.11.37,2.07.49c7.28,1.67,14.68,4.1,21.91,5.84l2,.4,3.94.77,3.94.77c25.31,4.09,51.44,5.62,77,7.28,20.79,1.3,44.5,2.7,65.29,4.39,21.69,1.6,43.51,3.49,65.25,2.06,27.39-2.14,52.69-12.67,79-20.35,15.3-4.3,32.37-7.79,48-2l1.17.51,2.32,1c1.5.79,3,1.61,4.43,2.54l2.08,1.48,1,.75.77.6,1.53,1.2,3.12,2.34c1.06.77,2.14,1.52,3.18,2.31,8.61,6.15,16.29,14.12,25.38,19.73a75.26,75.26,0,0,0,14.57,6.9,117.26,117.26,0,0,0,15.55,4.14c10.47,2,20.56,4.62,30.87,6s20.76,2,30.89-.46a58.59,58.59,0,0,0,7.43-2.33l3.74-1.55,3.69-1.67c14.83-7,28.54-15.62,42.71-24.11,34.38-20.91,56.41-27.83,97.84-22.37C1924.83,47,1973.52,59,2021.54,68.41c4.41.73,8.64,1.6,13,1.63h.25c.1,0,.17,0,.15,0s.07,0,0,.06a.85.85,0,0,0-.36.29l5.21,6.72a8.2,8.2,0,0,1-3,1.48l-.76.2c-5.18,1-10.53.77-15.68.58C1971,76,1922.56,65.24,1873.89,57.76c-38.48-6.69-56.42-3.58-91.13,14.12-19.51,10.05-39.08,21.49-59.79,29.23-21.75,7.61-46.49,7-67.6-2.26-10.31-4.63-20.1-9.94-30.56-14.15-5.17-2.15-10.55-4-15.84-6.13a84.14,84.14,0,0,1-23.74-14.41l-.84-.68-.64-.47-1.23-.95c-.4-.33-.88-.54-1.31-.83-7.86-4.81-17.49-5.13-26.91-4.44-16,1.35-31.64,5.38-47.58,8.85-16.17,3.61-32.66,7.15-49.27,8.58-10,.88-39,1.81-49.71,2.36a640,640,0,0,1-140.1-9.32l-8.18-1.48-8.18-1.73c-2.08-.41-6.13-1.32-8.17-1.87L1237,60.66c-1-.24-8.9-2.73-10.15-3.09-3.59-1.17-7.79-2.5-11.45-3.34-2-.58-5.62-1.16-7.71-1.56-1.88-.26-3.92-.47-5.8-.7-.65-.08-1.29-.06-1.94-.09l-3.86-.13c-16.25,0-30.51,6.61-46,12.36-10.2,3.84-21,7.36-31.24,11-28.52,10.41-57.94,19-87.9,24.5-13.88,2.45-28.21,4.45-42.3,4.87-11.44.16-22.41-.54-33.68-1.34C911,99.74,867.46,94.06,823.7,89c-19.08-2.4-46.62-5.64-65.56-7.62C741.58,79.52,725,78,708.44,74.9c-5.94-1.18-12.26-2.53-17.88-5.05-8.36-4.69-17.83-5.71-27.5-6-15.61-.41-31.36,1.67-46.84,4.3-12.26,2.08-36.47,5.73-48.73,7.74-21.84,3.31-43.73,6.91-65.82,8.55-21.48,2.24-41.82,11.32-63.7,13.91l-4.33.43-4.42.16c-1.49,0-3-.12-4.52-.19l-3.93-.26c-16.3-.37-33.07,1.17-49.52-1.08A148.39,148.39,0,0,1,337.65,89l-1-.41-1.94-.81-3.89-1.6-2-.8L327,84.5l-3.79-1.84c-1.25-.63-2.55-1.19-3.78-1.85l-3.66-2.08-7.23-4c-9.23-5.14-19.42-8.83-29.55-11.85C258.74,57,237.69,52.61,216.52,53c-13.06.45-26,3.84-38,8.76A173.78,173.78,0,0,0,157,72.39c-9.52,5.41-18.2,12.09-27.66,17.68a156.67,156.67,0,0,1-44.8,18.44c-22.86,5.17-47.42,3.85-69.12-5.35A81.5,81.5,0,0,1,0,94.86l5.15-6.77Z"/><path class="cls-1" d="M472.88,87.59c-13,18.1-29.52,40.15-51.26,48a71.17,71.17,0,0,1-10.9,2.61,222.75,222.75,0,0,1-31.7,3.1c-21.8.67-44.2-4.56-65.65-2-31,7-62.86,11.81-93.23,21.24-12,3.83-27,9.29-38.9,13.35a363.85,363.85,0,0,1-46.6,13c-8.26,1.59-16.54,3-25,3.12a180.23,180.23,0,0,1-52-8.48l1.72-8.33c5.25.33,15.2,1.13,20.16,1.34,10.89.55,21.89,1.11,32.75.09,17.49-2.14,34.92-6.83,52.29-10.26,44.57-9.09,89.22-19.55,132-35.18,4.16-1.49,8.59-3.34,13.07-4.89a77.08,77.08,0,0,1,15-2.86c19-1.57,37.08-.29,55.62,2.4,13.09,1.79,26,5.58,39.09,3.48,18.44-4.5,33.43-22.42,43.09-38.13,1.13-1.89,2.25-3.9,3.14-5.78l7.38,4.23Z"/><path class="cls-1" d="M1384.14,67.9c11.34,14.88,28.43,30,47.76,31.63,6.4.33,13.19-.25,19.18-2.68A33.4,33.4,0,0,1,1461.44,94a51.72,51.72,0,0,1,8,0,195.12,195.12,0,0,1,23,3.25c39.57,7.21,79.6,20.38,120.07,13.58,6.4-1,12.9-2.68,19.19-4.24,20-4.84,40.1-9,60.64-10.38l1.82,8.31c-12.8,5-26,8.65-39.29,11.89-10.06,2.36-20.14,4.57-30.36,6.17a117,117,0,0,1-32.1-.12c-12-1.55-28.75-5.82-40.65-8.54-11.12-2.57-28.72-6.46-40-9-10.74-2.39-21.63-4.68-32.53-6.23-6.89-.8-14.07-1.81-20.89-.17-3.53,1-7.17,3-10.8,3.93a62.06,62.06,0,0,1-15.9,1.77c-18.09-.87-33.69-11.7-46.64-23.45-2.66-2.47-5.09-4.85-7.55-7.61l6.68-5.26Z"/><path class="cls-1" d="M1866.13,45.38c18.14-16.84,44.51-34.15,69.73-36.6a64.41,64.41,0,0,1,11.85.31c13.17.61,27.06-2.67,40.38-5.2,13.25-2.25,34-7.67,46.16.33L2030,11.58a15.92,15.92,0,0,0-3.87-.72c-4.74-.22-9.37.7-14.19,1.84-6.63,1.61-13.42,3.69-20.34,5.68-14.38,4.05-29.48,8.19-44.79,7.49-1.66-.08-3.7-.31-5.38-.42a49.51,49.51,0,0,0-13.54,1.48c-19.9,5-38.38,15.27-56.58,25.21l-5.17-6.76Z"/><path class="cls-1" d="M460.68,103.85s12.48-16.12,33.64-18.41c0,0-15.12-6.39-16.82-4.5s-21.28,6.77-21.28,6.77L433.64,98.76S459,96.54,445,111.52Z"/><path class="cls-1" d="M1413.22,76.32S1392,77.29,1407,90l-13.39-2-7.14-11.72,7.15-4.8h13.18Z"/><path class="cls-1" d="M1366.9,77.08S1385,82,1393.62,88l-1.69-11-14.47-3.92Z"/><path class="cls-1" d="M1634.52,89s22.9,11.47-6.22,18.48l16.81,4.09,29.37-11.29s-16.19-6.49-17.32-7.25S1634.52,89,1634.52,89Z"/><polygon class="cls-1" points="1679.76 109.58 1707.43 105.07 1699.7 102.02 1681.63 102.02 1679.76 109.58"/><path class="cls-1" d="M1917.77,29.93s-31.26,11.67,0,17.6l-33,1.88h-19.48l-18.81-9.74s25.84-1.78,46-14.51Z"/></g></g></svg>