<svg xmlns="http://www.w3.org/2000/svg" viewBox="0 0 2040.8 418.41"><defs><style>.cls-1{fill:#d1a543;}</style></defs><title>Ресурс 19</title><g id="Слой_2" data-name="Слой 2"><g id="Слой_1-2" data-name="Слой 1"><path class="cls-1" d="M0,82.91c33.33-7.73,66.66-15.14,100.32-21.34,12.83-2.24,25.44-4.67,38.56-5.27,21.89,0,43.06,6.2,63.54,13.45,15.88-1.25,43.35-1,63.61-1.63l1,0c.34,0,.78,0,.65,0,.06-.06-.1,0,.15-.06l.58-.21c17.66-9.21,33.27-21.89,50.83-31.65C328.81,30.66,338.58,25.35,350,22c6.22-1.66,13.16-2.83,19.59-.65,3.15,1.05,5.15,2.1,7.91,3.17,22.55,9,45.51,17.28,68.46,25.4,24.66,10.18,49.29,21.93,74.8,29.56,5.42,1,10.41-.57,15.95-1.92,5.93-1.62,26.6-6.64,33.06-8.25a76.75,76.75,0,0,1,17.68-2.61,153.64,153.64,0,0,0,27.44-3.41c21.48-4.7,43-11.36,62.13-21.92,12.81-7.88,24.38-17.28,38-24,8.63-4.25,18-8.87,28.07-9.67a16.36,16.36,0,0,1,9.63,2.12l2.3,1.29a44.3,44.3,0,0,0,5,2c19.73,5.92,41.11,7,61,12.87,17.07,4.86,31.78,15.36,45.24,26.4C878.36,62,889.74,73.83,903,81.27c12.33,5.54,26,8.14,39.37,10,15.5,1.56,33.4,2.61,46.63-6.52l4.74-3.46c12.93-8.32,27.2-14.37,41.55-19.66,15-5.06,28.82-11.47,44.85-13.32,19.43.57,36.42,10.42,55,13.66,2.79.37,7.73.34,10.63.41,23.66-.08,48.93-.76,70-12.45,13.74-9.53,23.9-23.36,36.29-34.8,9.65-9.56,27.91-24.06,38.77-7.69,9,13.62,19.52,31.57,29,44.69C1328.31,64.74,1341,72,1352.1,81.9c20.33,16.67,40.89,33.32,62.7,47.95,2.58,1.59,5.07,3.28,7.89,4.06a175.78,175.78,0,0,0,45.46,4.56c9.12-.43,18-1.76,26.14-5.39,8.37-3.84,15.32-9.45,22.39-15.45,7.52-6.67,17.68-11.51,27.93-12l5.87-.3c11.8.22,22.15-6,34.32-4.64,10.58,1.45,18.64,7.6,27.24,13.11,7.36,4.65,15.72,8.46,24,10a36,36,0,0,0,24-3.65l5-2.51a131,131,0,0,0,18.69-10.86c9.1-6.65,35-28.68,43.64-35.46l.8-.64.86-.17c21.26-3.68,43.77-7.14,64.93-.77,14,4.66,27.48,12.11,41.75,14.9,6,1.13,12.64,1,16.19-4.16a2.33,2.33,0,0,0-.25.58,5,5,0,0,0-.2.93,5.29,5.29,0,0,0,3.57,5.49l.5.13a3.16,3.16,0,0,0,.74.08c.28,0,.12,0,0,0a21.82,21.82,0,0,0-2.46.75c-1.45.54-2,.78-3.57,1.27a6.78,6.78,0,0,1-1.6.24c-.35,0-5-.17-5.9-4.49.34-7,1.34-4.22,1.3-5.32a5,5,0,0,1,.65-.64l.46-.37.8-.55c10.56-6.29,21.12-12.27,31.89-18,19-10.17,39.11-19.37,60.66-22.47,10.81-1.28,19.91,3,29.07,6.93a140.36,140.36,0,0,1,16.23,9l-3.19,5.85c-10.82-4.43-22.21-9-32.94-10.65a21.92,21.92,0,0,0-6.94,0c-26.12,5.17-49.79,17.71-73,30.63-4.24,2.33-12.55,7-15.39,8.56a6.94,6.94,0,0,0,.54-.54c-.07-1.07.88,1.73,1.23-5.21-.94-4.27-5.48-4.49-5.79-4.44a5.81,5.81,0,0,0-1.19.16l.62-.2,2.2-.78c2.48-.78,5-1.72,7.85-1.21l.31.07.46.13a6.39,6.39,0,0,1,4.44,6.75,6.82,6.82,0,0,1-.33,1.49,13,13,0,0,1-2.85,4.39c-16.19,17.33-43.63,0-61-6.81-21.29-10.27-45.78-7.63-68.65-5.15l1.65-.81C1721.2,87,1710.31,97.4,1699,107.52a110.3,110.3,0,0,1-18.7,14.22c-4.6,3-10.42,5.68-15.26,8.23a46.05,46.05,0,0,1-30.86,4.62c-12.19-2.36-22.85-8-32.74-15-16.37-11.52-20.3-9.81-38.7-5.86-5.44,1-11.88,1-17.45,1.13-13.35.13-21.74,8.38-32.36,16.4-12.65,9.69-28.82,14.3-44.52,14.17a194.37,194.37,0,0,1-47.79-5.88c-6.82-2.61-12.43-7.29-18.34-11.33-12.31-8.91-24.09-18.35-36.1-27.51s-24.22-18.26-36.53-26.32c-6.79-4.15-12.65-10-17.79-16-11.2-13.16-19.9-28-29.06-42.42-.62-1-1.87-3-2.54-3.78-1.49-1.54-2.58-1.38-4.83-.87-6,1.82-12,6.68-17.06,10.87-13.14,10.83-24.57,24-39.17,33.39-12,6.7-25.61,9.31-38.91,11.94-15.26,2.56-30.58,5.24-46.1,5.36-16.17-1.58-29.73-7.71-44.5-12.29a35.54,35.54,0,0,0-20-1.75c-23.61,3.66-47,12.77-67.66,24.81l-4.56,3L993.11,90c-8,6.43-18.61,8.88-28.29,9.89-21.42,1.79-43-1.3-63.34-7.93-9.4-3.69-17.49-10.64-24.92-16.53-17-13.95-33.9-29.69-53.34-39.19-13.55-6-28-9.95-42.49-13.26-9.78-2.27-22.43-4.61-31.41-9.72-3.38-1.21-7-.42-10.68,1-6.54,2.63-12.55,7-18.45,11.44s-11.76,9.1-17.88,13.49S689.6,48.26,683,52C662.13,63,639.05,67.57,616.22,71.14c-7.6,1-15.19,2-22.93,2.35-7.3.31-14.6.18-21.59,2.79C557,81.11,544,93.64,525.15,94.19c-7.54.26-14.95-2.81-21.77-5.29-21.38-8.09-42.2-17.06-63.06-26.31-20-7.4-46.34-17-67.83-26.32l-3.77-1.67a34.4,34.4,0,0,0-3.27-1.38,10.74,10.74,0,0,0-2.46-.57c-13.58-.18-25.77,7.11-38.12,13.43-18.08,9.44-34.45,22.47-53.27,30.8l-1.35.4a11,11,0,0,1-1.84.3,9.27,9.27,0,0,1-1.37,0l-1,0c-21.8-.42-43.59-.83-65.39-1.41-23.7-8.28-48.78-15.92-74-12.14C101.4,67.6,76.37,72.92,51.43,78.2q-25,5.39-49.9,11.2L0,82.91Z"/><path class="cls-1" d="M1686.85,115.07c-8.57,14.57-20.38,26-32.16,37.42s-24.52,21.92-36.44,33.2c-6.31,5.71-11.82,11.45-18.92,16.47-7.31,5.11-16.64,4.16-24.93,5.73a151.85,151.85,0,0,0-23.92,5.31c-5.9,1.93-12.18,3.86-17.54,6.69-3.22,3.22-6.18,7-9.78,10.55-3,2.84-7.46,4.42-11.33,6.66-1.64.88-3.23,2.16-5.14,2.66-2.69.87-5.69.78-8.08,1.18-5.8.58-9.75,4-11.86,9.09-7.12,21.59-14.2,43.26-26.09,62.9-3.83,5.88-6.9,11.75-13.24,16.08l-1.2.62a6.65,6.65,0,0,1-1.4.53c-4.26,1.4-10.61-.35-13.84-2.18-4.65-2.16-8.93-.44-14.1,1.45-11.75,4.29-19.22,12.13-27.47,21.5-6.55,5.34-11.48,12.39-19.19,16.57-8.75,5.35-23.45,10.41-24.5,20.83-1.51,10.48-3.06,28.52-17.28,29.67-7.63-.57-13-3.94-19.49-6.42-14.5-6.17-29.36-12.75-44.82-14.58-7.74-.94-15.57-.2-23.32.41-10.12.68-20,3.8-29.43,7.44l-3,1c-4.84,1.45-8.09,4.59-11.72,8.07-4.85,5.2-11.44,5.45-17.68,2.56a35.29,35.29,0,0,1-9-5.21,9,9,0,0,0-3.88-2.29,191.32,191.32,0,0,0-43.34-4.16,14.75,14.75,0,0,1-3.62-.17l-.93-.19a5.14,5.14,0,0,1-.56-.17l-1.84-.61a163,163,0,0,1-37-21.76c-1.31-1-3.8-3.18-5-4.34-5-4.18-5.59-11.15-10-15.14-6.11-4.1-15.14-4.6-22.41-7.27-4-1.32-8-3.24-11.52-4.68-9.58-4.25-19.12.95-28.68,2.7a286.83,286.83,0,0,1-43.67-.55c-1.66-.5-4.89,2.25-7.35,5-5.15,5.76-9.61,12.68-14.14,19.45s-9.05,13.7-14.34,20.36c-3.45,4.35-7.4,8.62-12.79,10.92l-2.77,1.39c-9.43,5-20.05,8.29-30.76,8.61-18.28-.11-40.52-.65-54.1-14.5-1.6-1.49-2.59-3.31-4-4.9-5.12-6.35-11.81-11.91-15.52-19.47-9.24-23-20.08-45-28.76-68.32-3-11.48,2.21-25.11-5.17-35.49-2.2-3.35-5.67-4.93-9.15-7s-7.06-4.28-10.54-6.38c-13.79-9.25-30-12-45.65-16.59-11.58-3.25-22.76-8.64-34.79-7.14-5.62,1.35-7.2,8.53-11.19,12.8-1.7,2-5.49,2.62-7.85,1.64a16.68,16.68,0,0,1-3.22-1.47L642.8,250c-8.22-4.88-13.45-13.15-19.64-20-9.77-9.35-16.73-21.42-24-32.49-4.71-6.46-7.07-15.45-10.91-22-7.15-9.35-17.58-16-26.93-23.06-7-5.21-15-8.63-20.38-15.68-3.53-4.44-5.57-8.45-8.94-11.93a22.17,22.17,0,0,1-2.56-3,19.47,19.47,0,0,1-2.82-7.73,36.34,36.34,0,0,0-1.07-5.29c-1-2.65-3-3.74-5.5-4.68-11.4-3.34-21.89-11-26.87-22.05l12.44-4.66s.18.48.31.78.32.69.51,1a28,28,0,0,0,12.52,12.08c2.49,1.41,8.07,2.6,12.26,6.8a16.44,16.44,0,0,1,4.5,7.63c1.41,3.9.42,7.81,2.05,10.68.1.38,2.39,2.7,3.62,4.45,2.75,3.74,4.59,7.37,6.76,10.26,4.54,6.35,12.15,9.84,18,14.77,9.71,8.05,20.45,15.54,27.83,26,4.29,7.71,5.63,15.16,10.36,22.3,6.72,11.05,13.65,23.15,22.55,32.27,4.82,5.2,8.32,11.73,13.75,16.19a39.06,39.06,0,0,0,9.51,6.26c1.6.5,2.48.4,3.54-.58,2.73-2.62,3.89-7.11,7-10,9.35-9.94,32.06,1.08,43,4.06,7.84,2.6,15.78,4.14,23.71,6.59,12,3.53,22.52,10.53,33.07,17,8.79,4.19,13.46,10.38,14.66,20,.92,6.26.47,12.45.48,18.64s3.19,11.26,5.28,16.86c8.15,18.62,16.66,37.52,24.49,56.23,3.7,7.28,10.06,12.37,15.22,18.74a59.08,59.08,0,0,0,3.83,4.6c12.29,12.37,34.25,11.18,50.59,10.29,11.9-.82,22.83-5.61,33.21-11.12C917.48,393.35,923,382.36,930,373c6.09-8.37,11.73-17.86,20.34-24.51a12.91,12.91,0,0,1,5.74-2.42c5,.09,9.46,1,14.32,1.16,8,.43,16.3.41,24.41.47,4.12-.07,7.26,0,11.23-1.53,6.31-1.88,12.74-3.43,19.41-2.69,6.38.88,12.09,4.51,17.89,6.22a116.7,116.7,0,0,0,11.69,2.93c6.5,1.37,14.35,3.73,17.76,10.06,3,5.53,5.21,8.58,11.28,12,11.27,6.7,23.88,12.3,36.17,17.08l1.08.35s.26.09.17.05-.5-.07-.46,0c14.75-1,28.5,1.79,42.39,5.56,3.29,1,7.16,2.22,10.11,4.6,3.16,3,5.16,5.39,8.93,7.45s6.71,3.2,10.58-.14c3.16-2.63,6.9-5.55,10.93-7.05s8-2.38,11.85-3.81a360.27,360.27,0,0,1,35.84-11.16c25.63-5.72,50,9.71,72.55,19.32a22.93,22.93,0,0,0,4.13,1.32,2.82,2.82,0,0,0,2.21-.93c6.29-6.64,5.15-19.21,9.54-27.32,8.1-13.31,25.28-15,35.25-25.82,2.48-2.51,5-5.69,7.94-8,3-2.69,5.4-6.47,8.78-10,9.25-9.62,21-17.47,34.88-18.89,4.39-.48,9,2.41,12.51,3a8.64,8.64,0,0,0,2,0l.53-.05s-.11,0-.15,0,0,0,0,0c3.75-2.89,7-8.3,9.62-12.76,4-6.82,7.62-14.07,11.23-21.31,6.23-12.62,13-25.93,18.63-38.84,2.22-4.07,5.57-7.9,10-9.78,4.56-2.22,9.85-1.5,14.27-3,3.89-3.29,4.46-9.35,7.74-13.25a76.48,76.48,0,0,1,9-9c7.09-6.41,18-5.51,26.82-6.5,8.33-.48,16.51-1.32,24.68-2.37,5.91-.92,12.15-1,17.7-3,5.34-2.23,8.88-6.89,13-11.11,2.77-3,5.54-6,8.27-9.09,11.06-12.12,21.42-24.94,32.52-37s22.38-24,36.8-32.79l4.77,4.67Z"/><path class="cls-1" d="M1466.07,283.75c4.92-4.93,9.82-9.63,15.83-13.39,2.25-1.35,5.39-2.88,8.32-2.09,6.93-.83,14.94-4.8,22.55-2.36a10.69,10.69,0,0,1,5.31,4c4.83,5.8,13.75,9.66,21,12.32,8,1.57,17.24.4,25.46,0,13.66,1.47,27.23,2.3,40.67,5.63a9.19,9.19,0,0,1,2.49,1.13,4.59,4.59,0,0,1,.64.54,3.84,3.84,0,0,1,1.07,2.41c0,.13,0,.22,0,.15a1.67,1.67,0,0,0,0-.32,2.88,2.88,0,0,0-.13-.52c-.16-.39-.22-.34-.15-.29,4.87,4.12,11.5,7.19,17.52,9.45,9.05,1.1,31.65.81,41.2,1.14h.51l.51.26c4.15,2,10.69,4.8,13.7.38,5.24-7.64,11.87-14.07,18.31-20.53l-1,1.57c2-7.08,5.53-14.83,13.25-17.36,8.6-.95,16.4-4.54,24.45-8,3.89-1.71,9.45-3.91,13-6.36,8.18-5.12,16.56-11.06,23.16-17.62,4.87-6.55,12.53-10.92,20.4-12.81a25.65,25.65,0,0,1,8.51-.89c1.32.11,1.62.16,2,0a15.78,15.78,0,0,1,1.89-1.15,6.49,6.49,0,0,1,3-.57,16.32,16.32,0,0,1,4.4.92,72.56,72.56,0,0,0,32.6,6c4.68.41,8.94-2.13,13.16-4.78,4.77-2.9,9.47-6.71,15.19-8.42,1.86-.58,4-.42,5.88-.55,5-.38,10.4-1.51,15.42-.31,6.57,1.78,16.89-.09,21.2-1.08,5.61-3.31,11.21-6.64,16.73-10.12l-1,5.12c-2.37-2.61-1.23-6.86,1.07-8.71,4.37-3.63,9.25-4.2,14.36-5.59,7.47-1.83,14.87-4.14,22.43-6a19.79,19.79,0,0,1,5.34-.49c7.06,0,20.85,0,27.78,0v6.67h-18.52c-2.23,0-9.6,0-11.45,0a54.07,54.07,0,0,0-6,1.42c-5.91,1.63-11.9,3.34-17.94,4.85-4,1.11-8.46,1.69-11.45,4-.25.24-.38.45-.29.27a.73.73,0,0,0,0-.48,1.19,1.19,0,0,0-.22-.31l-1,5.13c-6,2.56-11.91,5.29-17.82,8-7.71,1.56-16.11,2-23.8.17-5.55-1.48-10.94,0-16.61.11-9.29.24-16.06,9-24.51,12.5a17.61,17.61,0,0,1-7.92,1.77,145.69,145.69,0,0,1-15.34-.11,59.47,59.47,0,0,1-15.3-3.32,22.53,22.53,0,0,0-6.42-1.59c-.92.14-.23-.11-1.93,1.09s-4.2,1.17-5.35,1.11a20.3,20.3,0,0,0-6.4,1.13,30.51,30.51,0,0,0-16.62,11.84c-7.26,7.94-15.36,13.94-24.25,19.73-3.6,2.49-9.87,5.15-14,7-7.75,3.37-15.89,7.06-24.6,7.85-5.56.57-8.37,7.62-10.42,12.83-7.32,6.3-14.51,12.72-20.48,20.23-5.48,5-13.09,1.8-18.5-1.35,0,0,1.06.28,1,.27-13.66.55-26.88,1.31-40.65,1.09-4.88-.58-9.24-3-13.63-5-3.39-1.83-6.55-3.13-9.5-6.08a5.1,5.1,0,0,1-1.36-3.12c0-.1,0,0,0,.09a3,3,0,0,0,.16.83,2.63,2.63,0,0,0,.33.68,3,3,0,0,0,.63.68c-3.4-1-9.19-1.59-13.34-2.07-7.86-.87-20.68-1.88-25.94-2.36-9.54.66-18.38,2.12-28,.14-9.35-3.32-17.78-6.59-24.79-14.37l-.65-.84-.3-.4c-.18-.05-.14-.23-.36-.28a.52.52,0,0,1-.16-.14c-7.2-1.76-14.43,3.45-22.21,2-.18-.05,0,0,0,0s.31,0,.3,0c.27,0,0,0-.25.06a12,12,0,0,0-2.25,1c-5.34,3.08-10.44,7.27-15.23,11.28l-4.6-4.84Z"/><path class="cls-1" d="M1779.37,68.32c10.85,7.74,22.16,14.37,31.67,23.91,4.57,6.2,9.44,11.32,16.7,14.25,18.38,7.58,39.94,9.36,59.19,4.37l-1.37.75a22.92,22.92,0,0,1,10.12-5.74c7-2,14.36-1.79,21.3-.5,9.5,1.67,18.89,3.88,28.18,6.4,6.19,1.65,12.28,3.52,18.45,5.34l-1.07-.23c8.2,1.11,16.35,2.54,24.53,3.81l-.9-.06c9.85.35,23.77.93,33.52,1.62,7.07,2.29,14.13,4.6,21.11,7.2l-1.62,6.47c-3.64-.49-7.27-1.06-10.89-1.65s-7.23-1.25-10.84-1.87l1.25.15c-5.42.36-10.84.63-16.27.92l-16.26.63c-8.69-.88-17.39-1.82-26.05-3-11.06-3.08-26.29-7.27-37.09-10.65-10.72-3.17-23.63-8.69-34.33-3.2a110.19,110.19,0,0,1-63-6.37,41.42,41.42,0,0,1-13.45-9.42c-3.62-4.07-6-7.71-10.51-10.84A255.69,255.69,0,0,0,1775.86,74l3.51-5.68Z"/><path class="cls-1" d="M903.85,90.23c-10.43,3.46-21,6.12-32.16,6.3a29.46,29.46,0,0,1-12.16-2.23C847,88,834.58,85.83,820.6,84.86c-16.9-1.14-34.3-3.59-50.74-1.06-1.24.27-3.33,1.08-4.56,1.5-8.16,2.91-16.32,6.23-24.42,9.36l1.22-1c-11.6,12-27.92,14-42,14.15-7.34,0-14.28,3.14-21.65,2.3-21.61-2.63-43.21-9.31-61.3-21.41-6.25-2.85-12-8.33-18-11.08a47.4,47.4,0,0,0-14.69-3.57,25.72,25.72,0,0,0-4.74,0l-.55-6.65a54.82,54.82,0,0,1,22.21,5.28c6.74,3.22,11.49,8.35,18.33,11.57,12.2,7.74,24.52,13.47,38.55,16.62,8.43,1.78,17,4.27,25.48,3.73,5.08-.94,10.77-2.37,16-2.54,10.22-.31,20.78-1.48,29.72-6.77A28.91,28.91,0,0,0,737.36,89c8-4.21,16.36-8.22,24.66-12,1.48-.61,3.79-1.62,5.33-2.07,11.07-2.88,21.89-2.3,32.94-2.16,14.49.65,28.36,1.13,42.78,4,7.85,1.36,15.6,5.77,22.64,8.73A21.3,21.3,0,0,0,872,86.65c9.95.45,20.23-1.23,30.15-2.86l1.75,6.44Z"/><path class="cls-1" d="M736.11,250.65c14.36,5,29.44,5.18,43.8,10.19,2.65.94,5.65,2.06,8,4.16,4.28,5.9,9.56,10.45,14,16.46a32.94,32.94,0,0,1,6,14.41c2.11,9.64,4.27,19.26,6.57,28.84,5.16,9.47,15.62,30.35,22.51,43.09l3.85,7.31c1.05,1.87,2.56,5.13,4,6.65,5.58,6,14.14,10,22,12.6,4.51,1.19,9.08.45,13.84.61,2.87.09,5.92.17,9.1,1.68,4.39,2.94,9,6.09,14.21,7.32l-2.61.15,6.64-3.3,3,6c-1.11.51-7.09,3.56-8,4a53.24,53.24,0,0,1-14.22-9c-6.27-4.69-15.82-.91-23.18-3.24-8.93-3-17.44-6.68-24.21-13.74-1.83-1.9-3.37-5.1-4.64-7.36l-4-7.23c-7.89-14.27-16.73-29.75-24.75-43.84-1.43-10-3-19.86-4.64-29.75a28.14,28.14,0,0,0-4.77-12.9c-3.59-5.47-8.9-10.33-12.69-15.93-.14-.16-.26-.31-.39-.48l-.55-.48c-5.8-3.91-13.41-5.26-20.26-6.87-9.59-2-19.38-3.91-29.35-2.69l.71-6.64Z"/><path class="cls-1" d="M538.53,91.76s-8,3.91-2.85,14l-15.26-9.18-1.11-7.68,16.62-3Z"/><path class="cls-1" d="M619.9,70.56S602.09,74.48,617.1,83L600,75.52l-8-5,9.75-3.09,12-1.47Z"/><path class="cls-1" d="M876.56,75.41S889,85.59,872,86.65c0,0,2.67,3.94,3.33,3.94S895,87,895,87L889.68,80l-10.63-7.23Z"/><path class="cls-1" d="M888.93,94.41s17.73,0,29.76,2.2l-13.06-7.72L895,87l-11.52,4.79Z"/><path class="cls-1" d="M1628.51,133.24s23,2.4,7.11,20.79l18.94-7.62L1665,130h-12.64l-21,1.82Z"/><path class="cls-1" d="M1820.47,91.49s-11.26-1.84-4.3,6.94l-9.43-7.1-10.41-7.39,1.55-5.09,14.62,2,10,7.8Z"/><path class="cls-1" d="M1483.93,258.54s-3.16,10.73,8.15,9.44l-10.19,6s-6.42,5.65-6.42,2.88v-8.79l3.65-6.28Z"/><path class="cls-1" d="M1478.52,282.27l-8.54,13s-3.15-6-2.71-6.47,4.1-7.44,4.1-7.44l3.32-1.44Z"/><path class="cls-1" d="M889.89,396.65s18.67,5.38,27.84-6.11l-8.11,13.26s-14.29,7.15-14.79,7-15.12,4.15-15.12,4.15l-1.5-3.91s14.62-10.29,0-11.73c0,0,6.65-2.13,7.15-2.13S889.89,396.65,889.89,396.65Z"/><path class="cls-1" d="M745.94,260.94s-3.78-.93-6-1.34-5.31-.67-7.14-1.75-4.65-2.9-4.65-2.9l-7.19-4.12h7.19l-.79-1.79s7.49.45,11.53,2.51,19.33,7.13,19.33,7.13-9.29.38-.88,5.42L749,262.88Z"/></g></g></svg>