<svg xmlns="http://www.w3.org/2000/svg" viewBox="0 0 1933.69 1614.46"><defs><style>.cls-1{fill:#062b47;}</style></defs><title>Ресурс 11</title><g id="Слой_2" data-name="Слой 2"><g id="Слой_1-2" data-name="Слой 1"><path class="cls-1" d="M1901,103.54c-9,.48-17.87,1.86-27,2.38-4,0-8.4.76-12-1.56-4.18-2.65-9.57-2.29-14.44-2.54l-9-.07a70.57,70.57,0,0,1-9.22-.58,49.44,49.44,0,0,0-8.74-1.31,63.22,63.22,0,0,0-17.38,2l-1.29-.08-4-2.55c-2.68-1.7-5.32-3.24-7.54-5.64a5.84,5.84,0,0,0-3.1-1.89C1782,90,1776,90,1770.41,89.93c-5.76,0-11.48.14-17.19.36a88.58,88.58,0,0,1-18.2-2.2c-21.31-4.72-40.89-15-58.23-28-11.16-7.59-24.62-11.16-37.69-14.29-22.63-5.08-45.86-7.6-69-9.16-3.75-.22-7.52-.42-11.29-.6-16.67-.46-32.88,6.61-32.88,6.61h0c-8.32,3.9-16.71,7.56-24.26,12.78a43.42,43.42,0,0,0-7.44,5.87c-4.78,3.73-10.59,5.52-16.11,7.62-14.36,5.25-29.52,8.57-43.89,13.1a17,17,0,0,0-2,.85c-5.66,3.54-12.93,3.18-18.76,3.06a125.14,125.14,0,0,1-51.83-14.7c-7.24-4-15.94-5.63-24.46-7.21-17.18-2.87-34.68-4.3-52.15-5.56-31.49-2.16-74.12-5.69-105.06-7.66l-13.23-.76a185.71,185.71,0,0,1-26.52-4.5c-12-3.06-25.59-6.12-34.66-15.37-3.84-3-8.32-5.06-12.91-7.48-11.48-5.58-23.72-11.61-35.15-17.34l-6-3c-1.54-.78-3.17-1.94-5-2.15-12.53-1.12-25.72,2.37-38,5.5-10.25,3-20.73,5.9-30.31,10.36-5.76,3-9.28,7-14.76,11.44a43.87,43.87,0,0,1-7.88,5.2c-6.33,2.72-13.75,2.44-20.1,2.55l-13.15-.09c-6.47.27-13.48-.42-19,2.58-.05.12-.25.2-.23.26l0,0s0,0-.18.24a14.7,14.7,0,0,1-4.57,4.5c-11.43,6.53-25.42,6.81-37.87,7.61-8,.39-18.58-.11-26.62-.25-14.92-.47-37.1-1.13-52.1-2-9.4,6.7-19,13-28.86,19a141.22,141.22,0,0,1-12.79,7.3l-1.39.55a7.74,7.74,0,0,1-1.29.4c-18.29,4-37.24,2.06-55.25-2.26A109.91,109.91,0,0,1,665,67.53c-3.62-1.32-7.39-3.6-10.89-5.13-7-2.48-14.34-3-21.81-3.46-32.87-1.26-89.89,7-121.08,9.32C489,73.72,467.2,80.87,444.17,82c-11.68,0-23.07-3.86-34-7.45-18-6.42-35.66-13.39-52-23.34l-.67-.36-.66-.36-.87-.36c-12.69-5-26.38-7.73-39.76-11.45l-5.26-1.41q-25.44-1-50.85.22c-4.16.38-8.22.19-12.09,1.4-5.59,1.79-11.58,3.47-17.13,5.27a135.75,135.75,0,0,0-14.13,5.13,13.54,13.54,0,0,0-3.66,2.7C194.8,69.77,176,62.72,153.74,63.38a8.34,8.34,0,0,0-3.31.87c-10.79,5.83-22.41,9.89-33.79,14.39C110.19,81,103.91,83.46,97,85.43,89.72,87.21,82.88,87.49,76,88c-9.26.67-18.27.67-27.14,2.69-8.57,2.36-16.72,6.56-24.44,11l-2.07,1.26-1,.62a4.41,4.41,0,0,0-.37.25,9,9,0,0,1-1,.64,15.81,15.81,0,0,1-3.73,1.21C10.84,106.73,5.45,107.33,0,107.9V1614.46H1933.69V109.51a77.41,77.41,0,0,1-19.65-5.4C1909.84,103.11,1905.4,103.35,1901,103.54Z"/></g></g></svg>