<svg xmlns="http://www.w3.org/2000/svg" viewBox="0 0 1964.53 690.37"><defs><style>.cls-1{fill:#fff;}.cls-2{fill:#d1a543;}</style></defs><title>Ресурс 12</title><g id="Слой_2" data-name="Слой 2"><g id="Слой_1-2" data-name="Слой 1"><path class="cls-1" d="M3.34,141.73c14.81,7.9,42.91,4.51,63.24,6.77s64.38-4.51,70,0,4.51-5.82,29.36.48,85.84,7.43,85.84,7.43S332,154.15,341,149.07s19.2-16.38,32.75-16.38,57.6-2.26,70,0,14.68,0,53.08,5.65,67.76-4.52,89.22-15.81,45.18-33.89,70-21.46,79.06,14.68,107.3,18.07,39.53-12.43,77.93-13.55S949.78,51.37,995,68.32s44,9,89.22,9,52,7.91,88.09-19.2,41.79-39.53,71.16-39.53,127.62,20.33,183,49.7,108.43,30.49,131,23.71,31.63-12.42,65.51-4.52,22.59-33.88,89.22,0,154.73,59.86,173.93,38.4,77.93-26,77.93-26V690.37H3.34Z"/><path class="cls-2" d="M6.67,135.47c8.07,4.05,18.68,4.44,28.08,4.91,10.82.43,21.42.21,32.41,1.42,14.39,1.38,32.07-.41,46.78-1,7.34-.2,14.17-.82,21.61.54a14.71,14.71,0,0,1,3.46,1.22,13.4,13.4,0,0,1,1.24.77l.39.29c.05,0,.08.06.07,0s0,0-.06,0a2.87,2.87,0,0,0-.62-.21,3.3,3.3,0,0,0-1-.05c-.56.09-.34.1.15-.12,10.7-5,22.17-1.72,32.9.78,25.78,4.66,52.28,5.63,78.46,6.62,12.5-.11,25-.67,37.48-1,10.59-.35,21.19-.71,31.71-1.37,6.17-.48,12.88-.75,18.83-2.24a13.7,13.7,0,0,0,2.78-1.42c4.49-2.73,8.71-6.06,13.36-8.8a39.3,39.3,0,0,1,16.16-5.94c3.15-.23,5.54-.1,8.24-.2,20.33-.23,42-2.17,62.4-2.15,3.32.19,6.56.61,9.88.57,7.94-.14,16.19-.4,24.19-.09,10.58.22,21.14,1.6,31.65,2.19a161.78,161.78,0,0,0,73.2-12.76c15-6.25,27.5-15.55,43.45-21.13,8.26-2.88,17.44-4.11,26.07-1.94,5.49,1.27,10,4.21,15.28,5.89a136.3,136.3,0,0,0,22.58,5.44c25.92,4.14,52.8,4.42,79,6.31,15.44,1,29-6.5,43.81-10.45A127.57,127.57,0,0,1,840,97.17a70.38,70.38,0,0,0,17.56-3c15-4.37,29.22-10.66,44-16.46,26.88-10.36,59.67-23.79,88.79-16.54a72.35,72.35,0,0,1,8.2,2.74C1013.15,69.52,1027.38,75,1043,74.7c5.11-.07,10.42-.46,15.76-.73,13.4-.79,26.9-.87,40.31-.38,15.1.34,31.4,2.69,45.3-4.11,6.86-3.18,13.11-7.72,19.06-12.36,8.23-6.54,16-13.49,24-20.48,12.87-11.49,26.44-23.82,44.68-25.76,8.86-1.14,17.24-.64,25.91.29,13.48,1.63,26.91,4.09,40.07,7a639.73,639.73,0,0,1,92.6,28.12c7.52,2.9,15.16,6.24,22.36,9.56,11.09,5.06,24.49,12.73,35.77,17.41A217.88,217.88,0,0,0,1493.6,86.6c18.82,3.29,38.52,4.49,57.18.39,2.46-.61,4.59-1.26,7.06-2.11l3.73-1.27L1569.2,81A83.07,83.07,0,0,1,1603.45,76,159,159,0,0,1,1624.33,79a26.06,26.06,0,0,0,8.8.43c3.86-.7,6.7-2.68,10.29-5.27a75.17,75.17,0,0,1,7.57-4.92,38.49,38.49,0,0,1,9.74-3.8c13.11-3,25.23.3,36.91,4.53a189.16,189.16,0,0,1,19.23,8.54c14.45,7.12,26,12.71,38.75,19,28.08,14.06,57.32,27.29,88.77,31.17,10,1.22,20.51,2,30.1-.65a17.93,17.93,0,0,0,8.34-4.71l1.49-1.57.78-.82.82-.74c12.92-11.24,29.3-16.12,45.36-20.58,10.62-2.76,21.28-5,32.17-6.66l1.08,14.13c-5.08,0-10.33.44-15.44,1a181.05,181.05,0,0,0-30.59,5.63c-9.52,2.81-19.31,6.34-26.92,12.82-2.15,1.85-4,4.2-6.4,5.68-18.42,11.38-53.46,3-73.73-1.32-34.25-7.67-68.84-16-100.18-32.28-12.33-6.1-32.35-16.72-46.2-14.16-6.09,1-12.47,6.91-19.2,10-7.5,3.62-16.55,3.84-24.4,1.76l-.57-.13-.46-.12-3.72-.93c-9.54-2.34-19.35-4.06-29-3.23a78.87,78.87,0,0,0-14.42,2.79c-5.11,1.33-10.34,3.05-15.57,4.3a92.81,92.81,0,0,1-17,2.35c-33,1.51-65.52-6.15-95.89-18.45-8.33-3.37-20.82-9.71-29.13-13.71C1409,65.8,1401,62.51,1394,60c-22.08-8.25-45.22-14.49-68.18-19.78-16.52-3.81-33.57-7.1-50.31-9.76-13.41-1.86-27.71-4.36-41.18-2.79-14.58,1.58-25.89,12.24-37.4,20.68-8.58,6.5-17.44,12.8-26.5,18.66-8.85,5.63-18.25,10.87-28.45,13.62-11.63,3.06-23.57,1.93-35.21,1.41a360.76,360.76,0,0,0-47.42.49c-10.76.84-22,2.11-32.92.18-11.46-1.82-22.62-5.59-33.53-9.31C984.18,70.5,975,70.42,966,71.77c-31.24,5.12-58.65,21.39-88,32.86-11.88,4.64-24.12,9-37.31,9.48l-3.73.22a120,120,0,0,0-22,3.55c-10.4,2.6-20.32,6.71-31.4,8.49-11.21,2-22.87-.31-33.85-1.83-24.94-3.44-50.73-6.33-75.5-12.67a109.75,109.75,0,0,1-19.64-7c-8.68-4.56-18.55-4-27.5-.11-14.55,6.07-26.45,17.53-40.17,25.36-15.68,9.33-33.26,16-51.46,18.23a123.81,123.81,0,0,1-29.74.23c-10.68-1.22-21.18-3.83-31.72-5.7-10.24-2.19-20.65-2.77-30.89-5.25a60.78,60.78,0,0,0-8.24-1.36c-20.94-2-42.34-1.1-63.33-.5-10.29,1.33-17.91,9.2-26.18,14.94a21,21,0,0,1-8.57,3.66c-5.46,1.24-10.71,1.94-16.18,2.67-23.45,2.83-46.81,4.37-70.29,5-24.83-.64-49.75-1.54-74.43-5l-4.09-.69-2-.36-2.08-.44-2.08-.45-1-.23-.92-.21c-5.23-1.28-12.31-2.33-16.58-1a23.78,23.78,0,0,0-3,1.16,12.78,12.78,0,0,1-3.65,1,9.79,9.79,0,0,1-5.5-1.08,10.8,10.8,0,0,1-1.67-1c-.13-.09-.69-.54-.42-.29a1.62,1.62,0,0,0,.39.25c.2.07,0,0,.09.06h0a19.26,19.26,0,0,0-3.41-.43c-2.32-.14-4.87-.11-7.43,0-11.78.38-27.85,1.85-39.84,2.18a131.45,131.45,0,0,1-16.85-.37c-4.94-.5-10.1-.66-15.35-.75-10.8-.2-21.71,0-32.7-1.41C12,152.21,6,151,0,148l6.67-12.51Z"/><path class="cls-2" d="M8.78,0c35.45,5.66,73,10.57,107.8,18.94,12.81,3.16,25.64,6.78,37.63,12.48,11.33,5.72,22.81,11.66,34.59,16,16.23,6.15,41.65,12.35,58.65,17.31,4.34,1.15,10.61,3,14.94,3.85,15,3,30.44,4.6,45.69,6.26,41.37,4.37,83.59,7.88,123.67,20.14,18.55,6.08,37.81,13.51,51.09,28.7a43.06,43.06,0,0,1,5.39,8.16l-15.42,8.54a36.46,36.46,0,0,0-3.68-4.37c-8.24-7.85-18.93-12.7-29.57-17-23.41-9.1-47.73-15-72.61-20.69C331.83,90,295.84,84.55,260.5,76.64c-7.81-2.17-14.74-4.27-22.54-5.55-15.42-2.66-31.32-4-46.09-9.68A193.37,193.37,0,0,1,156.2,44c-1.54-.94-5-3-6.54-3.9a129.44,129.44,0,0,0-16.92-8C98.07,18.91,60.42,14.33,23.47,13.78c-5.09,0-10.29.05-15.32.38L8.78,0Z"/></g></g></svg>