<svg xmlns="http://www.w3.org/2000/svg" viewBox="0 0 942.46 547.75"><defs><style>.cls-1{fill:#d1a543;}</style></defs><title>Ресурс 9</title><g id="Слой_2" data-name="Слой 2"><g id="Слой_1-2" data-name="Слой 1"><path class="cls-1" d="M933,478.18c-20-.08-40-2.3-58.91-8.77-100.6-35.15-124.83-157.28-142.53-250.54-7.36-41.26-12.22-82.83-20.15-124.19C704.7,65.18,698,23.74,671.47,4.83,624.49-19.58,567,54.91,538.17,85q-16.35,17.43-31.11,36.11a37.23,37.23,0,0,1-14.64,11.2c-6.87,2.9-13.42,6-20.29,9.46-31.23,16.07-59.87,37.5-83,63.93-7.9,8.34-14.86,17.41-22,26.63-17.26-11.9-37.4-19.12-60.08-18.49C182.16,212.36,55.16,435,1.18,533.6c-5.85,11.95,11.59,20.08,17.25,8.68C50.32,475.07,88.73,410,133.76,350.55,171.94,301.51,239,224.1,306.44,228.8,415.38,240.25,408,448,598.18,470.38c19.44,2.75,38.9,2.34,58.16,1.45a9.65,9.65,0,0,0-.79-19.29c-76.47,1.3-141.2-22.08-187.37-84.44C457.64,354.54,448.24,340,438.94,325A52.59,52.59,0,0,1,438.2,271c14.11-24.41,28.42-48.77,43-72.87,11.29-18.09,22.36-36.3,33.56-54.43a9.89,9.89,0,0,0,2.83-4.53c9.74-15.71,19.59-31.35,29.83-46.77a279.85,279.85,0,0,1,40.72-46.86C602.75,32.06,619.74,19,638.88,13.9c21.67-5.86,32,5.21,39.5,25,6.76,18.47,10.31,38.91,13.86,59.23C706,180.85,712.44,266,740.76,346.26c21.17,61.16,61.65,123.07,126.93,142.62,21.23,7,43.55,9.05,65.32,8.59a9.65,9.65,0,0,0,0-19.29Zm-462.76-306c-19.39,29.51-36.73,60.41-52.83,91.9l0-.17c-7.42,14.28-15.93,2.47-15.93,2.47h0c-2.74-3.77-5.63-7.43-8.68-10.94a26.65,26.65,0,0,1-2.65-31.9,127.08,127.08,0,0,1,14.91-19,204.42,204.42,0,0,1,56.75-42.11C467.81,159.43,473.94,166.5,470.21,172.17Z"/><path class="cls-1" d="M354.7,163.5c19.42.77,36.72-16.48,36.87-35.89,1.86-25-28.15-48.94-50.44-32.74-10.25,8.47-19.1,19-19.46,32.74C320.51,145.84,335.85,163.31,354.7,163.5Zm-8-55.26c12.42,0,26.81,5.06,27.55,19.37.28,27.63-41.25,26.71-42.91,0C330.72,118.81,336.71,107.53,346.68,108.24Z"/></g></g></svg>