<svg xmlns="http://www.w3.org/2000/svg" viewBox="0 0 1208.12 884.82"><defs><style>.cls-1{fill:#d1a543;}</style></defs><title>Ресурс 18</title><g id="Слой_2" data-name="Слой 2"><g id="Слой_1-2" data-name="Слой 1"><path class="cls-1" d="M3.48,325.36c4.17,5,27.35,29.66,73.78,19,39.43-9,107.4-13.88,151.33-13.87,41.32,0,45,1.53,65.19,27.05h0c.68.86,1.33,1.74,2,2.6,8.91,12,20.26,31.48,33.25,53.85,4.64,8,9.45,16.24,14.4,24.61h0l.09.13c6.86,11.6,14,23.38,21.35,34.86h0q3.17,4.94,6.38,9.79h0c.86,1.33,1.75,2.67,2.7,4.05,3.72,5.5,7.48,10.88,11.28,16.07a306.45,306.45,0,0,0,30.56,36.25,101.5,101.5,0,0,0,10.6,9.92A199.67,199.67,0,0,0,470.64,579h0l1.06.5a303.17,303.17,0,0,0,37.77,15.05c8.55,2.82,22.89,7.29,40.54,11.87h.06c45.84,11.89,114,24.49,161.49,10.62,5.21-1.52,19.69-5.82,39.68-12.27l-.6,2.39a190.08,190.08,0,0,0-6.37,20.34,213,213,0,0,1-18.59,37.93c-1.42,2.3-2.81,4.63-4.19,7h0l0,.08c-7,12-13.6,24.59-20.5,37.85-17.45,33.51-35.49,68.16-63.86,98.28-13.13,13.94-27.61,27.28-40.38,39-22.42,20.65-33.09,30.78-30.58,35.29,1.45,2.61,6.61,2.42,17.25-.63,9.89-2.83,20.24-6,30.47-9.58,31.74-11.11,62.24-26.31,73.59-48.52a78.57,78.57,0,0,1,3.93-6.85h0l1.55-2.33c8.4-12,18.71-18.74,31.16-26.89a257.33,257.33,0,0,0,24.95-18c13.43-11.2,17-21.68,20.44-31.82s7-20.54,20.37-32.23l1.95-1.7c21.85-19.07,22.08-19.44,24.57-39.38.37-3,.8-6.44,1.37-10.48.84-6,1.78-9.59,2.78-11.92h0a8.16,8.16,0,0,1,4.2-4.64c3.56-2,7.24-4,9.66-28.31,1.39-14-1.15-23.84-4.89-32.24,64.37-24.27,137-56.8,169.62-89.7,2-2,4-4,6-6,5.35.89,11.61,1.82,19.54,3,5.54.82,11.91,1.77,19.35,2.9,50.93,7.79,73.17,28,92.79,45.83q2,1.86,4.06,3.67c5.83,5.24,10.77,12.26,15,19.14l0,0h0c2,3.21,3.82,6.39,5.52,9.34,5.23,9.09,8.39,14.57,11.67,14a3.54,3.54,0,0,0,.44-.11c1.79-.63,3-3.16,3.83-8.28,2.58-15.05-1.63-22.37-8-33.45a159.93,159.93,0,0,1-13.77-29.17c-2.24-6.41-4.43-12-6.66-16.82-.12-.25-.23-.51-.35-.76-9-19.22-18.69-26.8-35.46-29.77a27.64,27.64,0,0,1-10.67-4.71h0c-3-2.66-5.86-5-8.63-7.1-1.68-1.57-3.38-3.2-5.09-4.86-8.5-8.23-17.27-16.71-28-18.29,39.53-41.78,79.22-93.52,107.93-174,43.65-122.37,49.46-231.32,25.49-247-15.67-10.24-28.53-3.86-39.88,1.76-21.74,10.78-34.89,21.67-56,39.4h0l-.56.47-.7.59-.84.71c-5.85,4.9-12.43,10.42-19.91,16.53q-8.55,7-17.12,13.88c-33.58,27.1-68.3,55.12-100.48,93.66-14.88,17.82-33.51,38.71-53.86,59.73q-11.46,11.22-21.48,21.58c-20.45,19.95-41.84,39.1-62.37,54.84-10.7,8.21-21.62,17.16-33.18,26.62-39.15,32.08-79.63,65.23-115.36,72.74a422.71,422.71,0,0,1-74.25,8.87v0l-.31,0c-21.48.52-40.11-1.1-52.54-5-22.33-7-25.53-3.23-32.53,4.92-1.78,2.06-3.78,4.4-6.45,7-12.86,12.44-16.68,14-76.09-4.25-54.71-16.8-91.22-43.32-118.36-86C292.27,302.76,302,294.07,323.42,275c5.36-4.77,11.43-10.18,17.89-16.7,11.17-11.29,22.05-19.2,31.66-26.18,18.23-13.24,34-24.68,44.23-53,12.26-33.86,3.16-59.14-4.95-62.64-2.63-1.13-5,0-6.45,2.93a44.26,44.26,0,0,0-2.84,8.49c-1.9,7.38-3.69,14.36-22.94,26.78a178.53,178.53,0,0,0-21.76,17c-11.95,10.49-21.39,18.78-39.26,18.66-33.72-.21-62.16,25-70.07,32.76-8.13,7.95-7.48,18.43-7.05,25.36.21,3.35.4,6.51-.63,7.21-.55.39-2,.43-5.87-1.44l-2.18-1.07c-14.14-7-14.68-6.86-43-1.56l-9,1.68c-8.71,1.6-15.66,2.73-21.24,3.64-20.2,3.28-26.3,4.27-51,16.75-12.78,6.46-24.71,14.71-36.25,22.68-16.41,11.34-31.91,22.05-45.42,23.91a61.24,61.24,0,0,1-22.94-1c-2.4-.53-3.5-.78-4.1.23S.25,321.46,3.48,325.36Zm1.73-1.46c-.78-.94-1.5-1.82-2-2.5l.68.15a62.55,62.55,0,0,0,13.66,1.68A292.37,292.37,0,0,1,52.84,329c9.76,2.16,16.22,3.59,39.14,3.82,18.54.19,41-1.91,64.81-4.13,43.23-4,87.92-8.21,109.8,1.74,1.18.66,2.35,1.35,3.51,2.06-8.93-3.74-20.51-4.2-41.53-4.21-44,0-112.23,4.87-151.83,13.93C31.6,352.49,9.23,328.76,5.21,323.9Zm290.34,32.26c-4.43-5.59-8.11-10.06-11.57-13.64,2.93,2.49,5.83,5.18,8.68,8.13h0c8.61,8.84,19,19.76,31.69,33.34,8.66,9.23,16.44,17.79,24,26.05,59.35,65.24,86.43,95,215,96.56,35.16.42,76.83-7.66,120.37-22.92a579.28,579.28,0,0,0,78.15-34.24c58.38-30.74,104-66.94,108.6-86.07,8.59-36.1,26.69-55.65,49.62-80.42,3.35-3.61,6.81-7.35,10.37-11.28,9.34-10.3,17.17-27.24,27.09-48.68,16.93-36.61,38-82.15,79.15-123,8-6.6,15.93-13,23.83-19.4q8-6.47,16-13c-17.65,19.12-36.78,44.06-49.18,64.85-5.07,8.52-10.57,17.07-15.88,25.34-14.62,22.78-28.43,44.3-35.15,66.29C966,258.1,943.61,286.86,915,303c-5.41,2.73-10.12,5.8-11.91,9.95a58.23,58.23,0,0,0-3.65,11.95h0v.06a75.19,75.19,0,0,0-1.15,8.3c-5.81,35.18-22.77,61.19-49.5,87.64.85-4.31.15-7-2.1-7.92-2-.82-4.94.05-8.49,2.06l-.26-.34c-.69.56-1.37,1.15-2,1.74-8,5.25-18.16,15.2-26.08,24.91l-.05,0-.21.35a101.15,101.15,0,0,0-9.07,12.85A49.24,49.24,0,0,1,792.17,465c-57.32,31.57-147.83,55.44-200.69,60.3-4.38.4-8.61.81-12.71,1.2-58.65,5.61-91,8.7-155.93-33.68-54.6-35.6-82.31-74.44-106.76-108.7-6.29-8.81-12.27-17.17-18.54-25.32-.68-.91-1.34-1.78-2-2.6h0Zm22.36,34.38c23.72,33.15,51.46,70.1,103.71,104.18,65.64,42.81,98.22,39.69,157.38,34,4.1-.39,8.33-.8,12.7-1.2,35.16-3.23,86.94-14.86,134.64-31.57a474.82,474.82,0,0,0,59-24.82l-2.27,1.95c-8.87,7.55-17.92,15.27-22.93,27.64A379.09,379.09,0,0,1,721,517.94c-.66.21-1.31.43-2,.63l0,.09a365.32,365.32,0,0,1-51.91,14.78c-53.35,10.95-107.81,12.44-151.05,8l-.73-.11v0c-30.82-3.24-55.86-9.51-70.61-17.53-35.66-19.4-80.19-53.6-99.3-86.29-5-8.38-9.77-16.66-14.41-24.64S322,397.51,317.91,390.54Zm94.95,143c24.53,21.89,44.74,33.6,90.91,47,46.47,13.51,88.44,17.36,144.85,13.29,28.72-2.07,70.09-12.7,108.1-24.13-.12,1.68-.27,3.36-.43,5-38,12.77-75.83,24.1-106,23.13l-7.76-.24c-50-1.57-101.77-3.2-146.07-17.73-34.49-11.31-54-20.12-68.5-31.82q-5.45-4.76-10.71-10c-.34-.37-.68-.73-1-1.1l0,0Q414.53,535.3,412.86,533.54ZM448,563.41c12.08,6.11,27.32,12,47.8,18.68,44.61,14.63,96.52,16.26,146.71,17.83l7.76.25c30.26,1,67.93-10.21,105.78-22.92q-.4,3.82-.94,7.59c-23.56,8.2-47.41,15.7-70.78,20-58.22,10.76-168.63-6.44-212.27-27.67A206.88,206.88,0,0,1,448,563.41Zm72.69,32.35c51.67,12.54,120.62,19.38,164.07,11.34,23.13-4.27,46.68-11.63,70-19.7q-.62,4-1.4,8c-45.22,17.5-104.28,31.19-202.77,8.84C538.89,601.21,528.7,598.24,520.67,595.76ZM605.89,616c60.09,6.47,102.57-2.22,136.85-14.23,3.42-1.2,6.75-2.43,10-3.69-.29,1.4-.59,2.79-.91,4.17-20.64,6.68-35.63,11.13-40.94,12.68C680.68,623.73,641.87,621.69,605.89,616Zm146.89-8h0c.34-1.31.68-2.61,1-3.92l.3-1.25.3-1.35c.32-1.44.63-2.89.92-4.34.18-.88.35-1.77.52-2.65q.74-3.9,1.32-7.86c.13-.85.26-1.7.37-2.55q.53-3.75.92-7.54c.09-.83.16-1.67.24-2.5.15-1.64.28-3.29.4-5,.06-.81.11-1.62.16-2.44.11-1.73.19-3.46.26-5.2,0-.81.06-1.61.08-2.42,0-.5,0-1,0-1.5v-.33h0a.34.34,0,0,0,0-.1c0-.66,0-1.32,0-2,0-1.66,0-3.32,0-5,0-.33,0-.67.07-1,.06-.83.13-1.66.22-2.48.2-1.93.49-3.84.84-5.73.16-.87.34-1.73.52-2.59.24-1.07.5-2.14.78-3.2s.5-1.84.77-2.76q1.15-3.9,2.66-7.78c.37-1,.76-1.93,1.16-2.89q1.62-3.9,3.5-7.82c.49-1,1-2,1.51-3.06s1.14-2.25,1.72-3.38,1.11-2.11,1.68-3.17c.8-1.49,1.62-3,2.45-4.49.68-1.23,1.37-2.47,2.08-3.72l.3-.54,2.11-3.73c.09-.15.18-.3.26-.45l1.63-2.86.65-1.14c4.05-7.11,8.2-14.43,12.24-22.25l1-1.93-.92,1.89c-3.05,6.35-6,13.05-8.83,20.16-.46,1.15-.91,2.33-1.36,3.5-.08.21-.16.41-.25.62-.42,1.1-.84,2.2-1.26,3.32l-.21.56c-.41,1.1-.82,2.21-1.22,3.32-.58,1.58-1.14,3.18-1.71,4.79-.34,1-.69,1.95-1,2.94s-.7,2.08-1,3.12-.64,1.91-1,2.88q-1.26,3.81-2.47,7.74l-.84,2.79c-.73,2.43-1.46,4.88-2.17,7.38-.27.92-.53,1.85-.8,2.78-.35,1.27-.71,2.53-1.06,3.81-.24.89-.49,1.8-.73,2.7q-.79,3-1.59,6c-.23.88-.45,1.77-.68,2.67-.56,2.21-1.12,4.44-1.66,6.7-.22.87-.43,1.73-.64,2.61-.13.55-.27,1.1-.4,1.65-.2.85-.4,1.72-.59,2.58-.43,1.82-.86,3.64-1.27,5.5-.19.84-.38,1.71-.56,2.57-.37,1.66-.74,3.33-1.1,5-.19.86-.37,1.73-.55,2.6-.54,2.56-1.08,5.13-1.6,7.73l-.51,2.61q-.76,3.87-1.51,7.8c-.16.89-.33,1.78-.49,2.66-.28,1.49-.56,3-.83,4.47-.08.44-.15.9-.23,1.34s-.15.81-.22,1.21q-7,39.61-11.92,86.18c-4.91,47-38.86,102.5-54.21,125.53-.2.29-.4.58-.59.88-.1.14-.2.3-.29.44h0a79.87,79.87,0,0,0-4.08,7.08c-9.19,18-31.59,31.34-56.93,41.63,29.65-18.44,40.45-35.65,73-91.35,23.63-40.39,31.12-78.47,37.73-112.06,2.26-11.5,4.44-22.61,7.16-33.13a209.4,209.4,0,0,0,6.31-20.22ZM741,641.56c-1.36,6.32-2.64,12.8-3.94,19.4-6.57,33.42-14,71.3-37.45,111.35-36.36,62.13-45.4,76-84.09,97.46h0c-6,2.14-12,4.14-18,6,65.33-33.62,83.75-88.15,101.6-141,7.36-21.77,14.3-42.34,24.37-61.11,1.38-2.35,2.77-4.68,4.19-7A218.74,218.74,0,0,0,741,641.56Zm-31.86,58.11c-4.33,11.05-8.21,22.53-12.21,34.36C678,790,658.46,847.81,582.67,880.19c-5.91,1.69-9.43,2.25-11.52,2.34,52.74-29.9,92.59-81.09,128.88-165.47l2.91-5.59Q706.06,705.49,709.11,699.67ZM683,748.58c-32.6,65.85-68.85,107.58-115,133.08-.95-3.55,14.88-18.13,30.21-32.25,12.81-11.79,27.32-25.15,40.5-39.16C656.85,791,670.77,770,683,748.58Zm18.09,53.78c17-27.42,41.6-73.06,45.76-112.82q4.93-47.2,12.1-87.23c.08-.41.15-.82.22-1.22l.24-1.34c.29-1.57.58-3.12.87-4.67.16-.88.33-1.78.49-2.67.49-2.58,1-5.13,1.5-7.66.17-.87.34-1.75.52-2.61q.78-3.89,1.59-7.7l.57-2.62c.36-1.65.72-3.31,1.08-4.94.19-.86.39-1.72.58-2.58.42-1.84.84-3.68,1.27-5.5.2-.86.41-1.72.61-2.58.14-.57.28-1.13.41-1.69.21-.87.42-1.75.64-2.61.56-2.28,1.12-4.54,1.7-6.78.23-.89.45-1.79.68-2.67.53-2,1.08-4.05,1.62-6.05.25-.9.49-1.82.74-2.71.37-1.33.74-2.62,1.11-3.92.27-.93.53-1.87.79-2.79q1.08-3.72,2.19-7.33c.29-.95.59-1.87.88-2.81.83-2.67,1.68-5.29,2.54-7.88.32-1,.64-2,1-2.9s.72-2.09,1.08-3.14.69-2,1-2.95q.93-2.62,1.88-5.17c.42-1.13.84-2.26,1.26-3.37.08-.22.17-.43.25-.65.43-1.13.87-2.25,1.31-3.36.1-.27.2-.54.31-.8.48-1.22,1-2.4,1.46-3.6,2.9-7.09,5.92-13.82,9-20.13.65-1.3,1.31-2.57,2-3.84,3-5.86,6.15-11.39,9.38-16.53h0A150.16,150.16,0,0,1,824,429.27,169.15,169.15,0,0,0,807.26,456c-.68,1.31-1.35,2.65-2,4-3.1,6.29-6,12.93-8.84,19.84-.49,1.21-1,2.42-1.46,3.65l-.42,1.06-1.32,3.44-.3.8c-.42,1.13-.84,2.26-1.26,3.41-.69,1.89-1.38,3.8-2,5.72l-1,3c-.36,1-.71,2.07-1.06,3.12s-.65,1.95-1,2.93q-1.32,4.05-2.58,8.15c-.29.93-.57,1.86-.85,2.79Q782,521.42,781,525c-.27.93-.53,1.87-.79,2.8-.38,1.35-.76,2.7-1.13,4l-.75,2.75c-.55,2-1.08,4.07-1.61,6.11-.23.9-.47,1.8-.7,2.69q-.87,3.45-1.71,6.9c-.21.88-.43,1.76-.64,2.63-.13.58-.27,1.16-.41,1.74-.2.87-.41,1.73-.61,2.6-.42,1.84-.84,3.67-1.25,5.51-.19.86-.39,1.72-.58,2.58-.35,1.59-.69,3.19-1,4.78-.19.87-.37,1.74-.55,2.61q-.81,3.83-1.56,7.61l-.51,2.61q-.72,3.71-1.4,7.34c-.16.9-.33,1.8-.49,2.69q-.46,2.55-.9,5.07l-.24,1.35-.21,1.21C760.09,623,757.7,643,756.7,657.73c-.56,8.24-.9,16.25-1.23,24-1.8,41.57-3.34,77.48-37.73,107.91A126.5,126.5,0,0,0,701.08,802.36Zm26.64-19.3c26.89-29.19,28.35-62.82,30-101.22.33-7.73.68-15.73,1.23-23.94,1-14.91,3.46-35.28,7.38-58l.21-1.2c.08-.45.15-.9.23-1.35q.47-2.64,1-5.31c.16-.89.32-1.79.49-2.69.45-2.37.91-4.77,1.38-7.17.17-.88.34-1.75.52-2.62q.75-3.76,1.55-7.58c.19-.87.38-1.74.56-2.61.34-1.56.68-3.13,1-4.71l.57-2.58c.42-1.84.84-3.68,1.28-5.53.2-.87.4-1.73.61-2.6l.42-1.78c.22-.87.43-1.75.64-2.63.57-2.33,1.16-4.65,1.75-7,.24-.9.46-1.8.7-2.7q.81-3.09,1.65-6.17l.75-2.76c.38-1.38.77-2.74,1.16-4.11l.81-2.81q1-3.6,2.13-7.15c.28-.94.57-1.88.86-2.81.87-2.8,1.77-5.58,2.68-8.33l1-3,1.07-3.12,1-3q1.1-3.07,2.22-6.09c.43-1.16.86-2.31,1.3-3.46l.37-1c.46-1.17.91-2.33,1.37-3.48.17-.42.34-.84.5-1.25.51-1.26,1-2.51,1.54-3.75,2.91-7,6-13.69,9.22-20q1.11-2.16,2.23-4.25c7.79-14.4,16.47-26.51,26.06-35a34.58,34.58,0,0,1,4-2.33,194.61,194.61,0,0,0-24.49,33.35c-.94,1.6-1.86,3.2-2.75,4.82q-5.57,10.08-10.07,20.56c-.55,1.28-1.1,2.57-1.63,3.86-.21.5-.41,1-.61,1.49-.49,1.19-1,2.39-1.43,3.59l-.45,1.15c-.44,1.16-.88,2.32-1.31,3.49q-1.2,3.24-2.31,6.51c-.35,1-.68,2-1,3s-.66,2-1,3l-.93,3c-.87,2.85-1.7,5.69-2.49,8.54q-.39,1.38-.75,2.76-.93,3.47-1.78,6.91c-.23.92-.45,1.84-.67,2.76-.32,1.36-.64,2.72-.94,4.07-.21.91-.41,1.82-.61,2.73q-.68,3.09-1.3,6.16c-.18.88-.35,1.77-.52,2.65q-.69,3.51-1.3,7c-.16.87-.3,1.73-.45,2.6-.11.61-.21,1.21-.31,1.82-.14.85-.29,1.7-.42,2.55q-.45,2.75-.85,5.46c-.13.85-.25,1.69-.37,2.53-.21,1.47-.42,2.93-.62,4.38l-.33,2.53q-.48,3.65-.9,7.2c-.1.85-.19,1.7-.29,2.54q-.36,3.16-.67,6.26l-.27,2.61q-.3,3.07-.57,6.06l-.12,1.33c0,.39-.07.77-.11,1.16-.71,8.11-1.25,15.63-1.73,22.37-.54,7.57-1,14.11-1.57,19.32-1.66,15.35-.74,26.48.15,37.24,1.4,17,2.73,33.1-6.58,63.67h0c-3.34,9.8-6.91,19.14-19.28,29.46A220.83,220.83,0,0,1,727.72,783.06Zm45.81-60.55c4.38-20.45,3.3-33.59,2.16-47.33-.88-10.66-1.78-21.68-.15-36.81.57-5.25,1-11.81,1.58-19.39.5-7,1.07-14.87,1.82-23.36,0-.38.07-.77.11-1.16l.12-1.33q.29-3.09.6-6.3l.27-2.62c.21-2,.44-4,.67-6.07l.3-2.54c.28-2.36.58-4.74.9-7.16.12-.84.23-1.69.35-2.54.2-1.43.4-2.87.61-4.32.13-.84.25-1.69.38-2.53q.42-2.73.88-5.51c.13-.85.28-1.69.42-2.55l.33-1.88c.15-.86.3-1.72.46-2.59q.63-3.49,1.33-7l.54-2.66c.43-2.08.87-4.16,1.34-6.25.2-.91.41-1.83.62-2.74.31-1.36.64-2.72,1-4.09.22-.92.45-1.85.68-2.77.58-2.29,1.18-4.57,1.81-6.87.25-.92.51-1.85.77-2.77.83-2.94,1.71-5.87,2.63-8.81.32-1,.64-2,1-3s.66-2,1-3,.69-2,1-3c.81-2.31,1.66-4.62,2.53-6.92.45-1.19.91-2.38,1.38-3.56l.56-1.38c.49-1.23,1-2.45,1.51-3.67.24-.57.48-1.14.73-1.71.57-1.34,1.16-2.68,1.76-4a231,231,0,0,1,10.93-21.28q1.63-2.81,3.36-5.57a189.17,189.17,0,0,1,23.55-30.42,2.83,2.83,0,0,1,.52.13,1.28,1.28,0,0,1,.48.39,179.68,179.68,0,0,0-20.66,26.6q-2,3.07-3.8,6.18a211.62,211.62,0,0,0-11.06,21.59c-.6,1.35-1.18,2.7-1.75,4.05-.27.64-.55,1.28-.81,1.92-.51,1.23-1,2.46-1.47,3.7-.21.53-.43,1.05-.63,1.58-.46,1.19-.89,2.37-1.33,3.56-.88,2.41-1.74,4.82-2.54,7.23-.34,1-.66,2-1,3s-.62,1.93-.92,2.89-.61,2-.91,3q-1.37,4.59-2.55,9.09c-.25.93-.49,1.85-.73,2.77-.57,2.25-1.11,4.49-1.62,6.7-.22.93-.43,1.84-.63,2.76-.3,1.36-.59,2.7-.88,4-.19.91-.39,1.83-.57,2.74-.44,2.14-.85,4.24-1.23,6.33-.17.88-.34,1.78-.5,2.65q-.64,3.61-1.21,7.09c-.14.87-.29,1.74-.42,2.59-.11.66-.2,1.3-.3,1.95q-.21,1.29-.39,2.55c-.29,1.9-.55,3.74-.81,5.55-.12.85-.24,1.7-.35,2.52-.2,1.45-.39,2.86-.57,4.24-.11.85-.23,1.7-.33,2.53-.18,1.37-.36,2.72-.53,4-.12,1-.22,2-.3,3q-.09,1.23-.15,2.49c-.08,1.77-.09,3.59,0,5.44,0,.82,0,1.64.08,2.47q.13,3.17.44,6.47l.12,1.25c0,.36.07.72.11,1.09.71,6.85,1.83,14.06,3,21.47,5,32.21,10.68,68.72-11.42,101.31A57.93,57.93,0,0,0,773.53,722.51Zm12-15.5c15.42-30.54,10.33-63.38,5.77-92.71-1.18-7.57-2.32-14.93-3-21.89,0-.37-.08-.73-.11-1.09s-.08-.84-.11-1.26c-.2-2.27-.35-4.5-.43-6.67,0-.83,0-1.65-.06-2.47,0-1.81,0-3.58.12-5.3,0-.85.11-1.68.19-2.51.06-.62.12-1.25.2-1.86.21-1.65.44-3.38.67-5.14.11-.84.22-1.68.34-2.54.18-1.36.37-2.77.57-4.19.11-.83.23-1.68.35-2.53.26-1.83.54-3.69.83-5.61.12-.84.26-1.69.39-2.54.11-.67.21-1.34.32-2,.14-.86.28-1.73.43-2.61.39-2.33.81-4.72,1.25-7.15.17-.89.33-1.77.5-2.67q.6-3.16,1.29-6.44c.19-.91.38-1.83.58-2.75.29-1.33.59-2.68.9-4,.21-.92.42-1.84.64-2.77.53-2.19,1.08-4.42,1.67-6.65q.35-1.38.72-2.76c.84-3.13,1.76-6.3,2.73-9.48.32-1,.64-2.07,1-3.1s.59-1.85.89-2.77.7-2.06,1.06-3.08c.87-2.54,1.77-5.08,2.74-7.63.46-1.21.95-2.42,1.43-3.64.25-.62.49-1.25.74-1.87.52-1.28,1.07-2.55,1.61-3.82.31-.73.62-1.45.94-2.17q.93-2.12,1.91-4.23a203.47,203.47,0,0,1,12.84-23.48q2.34-3.69,4.87-7.3a175.68,175.68,0,0,1,13.21-16.52q-4.75,6.39-8.9,12.66-2.4,3.61-4.62,7.19A249.51,249.51,0,0,0,818.63,464q-1,2.21-2,4.38c-.37.82-.73,1.65-1.08,2.47-.58,1.31-1.13,2.62-1.67,3.93-.3.73-.6,1.47-.89,2.2-.49,1.23-1,2.45-1.43,3.66q-1.53,4.05-2.85,8c-.34,1-.67,2.05-1,3.07s-.55,1.76-.82,2.63c-.3,1-.6,2.05-.89,3.06q-1.41,5-2.54,9.83c-.21.92-.42,1.83-.61,2.74-.47,2.14-.89,4.27-1.28,6.39-.17.9-.33,1.8-.49,2.7-.22,1.29-.43,2.58-.62,3.85-.14.9-.27,1.8-.39,2.69q-.45,3.24-.8,6.44c-.09.86-.18,1.72-.26,2.58q-.35,3.54-.58,7c0,.84-.11,1.68-.15,2.51s-.08,1.39-.11,2.09-.08,1.64-.11,2.46c-.07,1.86-.12,3.71-.15,5.54l0,2.43c0,1.32,0,2.63,0,3.93,0,.81,0,1.61,0,2.41q0,3.26.15,6.45c0,.81.05,1.61.08,2.41.06,1.49.12,3,.2,4.45l.12,2.43c.14,2.53.3,5,.47,7.5l.06,1,0,.3c0,.37.06.73.08,1.1,1,13.45,3,25.84,4.81,36.81,4.7,28.81,8.41,51.58-8.85,73.19l-4.72,4.12-1.95,1.7C787.37,705.32,786.45,706.17,785.56,707Zm16.69-14.9c11.52-20,8.08-41.11,3.86-67-1.81-11.09-3.85-23.64-4.84-37.24l-.06-.75,0-.34-.09-1.27q-.26-3.78-.46-7.63c0-.81-.08-1.61-.12-2.43-.07-1.43-.13-2.88-.18-4.33,0-.8-.05-1.6-.08-2.4-.06-2.12-.11-4.26-.13-6.41,0-.8,0-1.6,0-2.41,0-1.31,0-2.62,0-3.94,0-.8,0-1.61,0-2.42,0-1.86.09-3.73.17-5.62,0-.82.07-1.64.12-2.47s.07-1.43.12-2.15.1-1.68.16-2.52q.25-3.51.62-7.07c.09-.86.18-1.73.28-2.59q.38-3.27.86-6.57c.14-.9.27-1.8.42-2.71.2-1.27.42-2.54.64-3.82l.51-2.73q.61-3.15,1.33-6.35c.21-.91.42-1.82.64-2.74q1.22-5.06,2.74-10.23c.31-1,.62-2.05.94-3.08.27-.86.55-1.72.83-2.59.35-1,.7-2.09,1.06-3.13q1.44-4.18,3.12-8.45c.49-1.25,1-2.5,1.52-3.76q.54-1.31,1.11-2.61c.58-1.35,1.19-2.7,1.8-4.06.43-.94.87-1.88,1.31-2.82.73-1.54,1.47-3.07,2.24-4.62a255.58,255.58,0,0,1,15.62-26.89l1.49-2.24c-.28.56-.57,1.11-.86,1.67l-.28.53c-4.11,7.87-8.26,15.81-12.17,23.88q-1.12,2.34-2.24,4.71c-.49,1-1,2.08-1.45,3.12q-.95,2.08-1.87,4.18c-.44,1-.88,2-1.31,3-.54,1.27-1.08,2.55-1.6,3.84q-1.8,4.41-3.42,8.9-.57,1.59-1.11,3.18c-.3.87-.59,1.74-.88,2.61-.33,1-.66,2.06-1,3.1q-1.59,5.22-2.86,10.55c-.21.92-.42,1.84-.62,2.77-.45,2.06-.85,4.14-1.21,6.22-.15.9-.3,1.8-.44,2.71-.18,1.23-.36,2.47-.51,3.71-.11.89-.22,1.77-.31,2.67q-.35,3.25-.54,6.57c0,.84-.07,1.68-.11,2.53-.08,2.28-.1,4.59-.06,6.91,0,.47,0,.93,0,1.39s0,.7.05,1q0,1.11.09,2.19c.05.81.11,1.59.17,2.37.14,1.91.33,3.75.55,5.52.1.78.2,1.56.32,2.31.19,1.29.41,2.53.64,3.75.14.77.29,1.53.45,2.27.42,2,.9,3.95,1.4,5.81.21.74.41,1.49.63,2.21.36,1.23.73,2.41,1.12,3.58.24.73.48,1.46.73,2.17.86,2.5,1.76,4.89,2.66,7.19.15.38.29.77.44,1.15l.39,1c.12.3.24.61.35.91,6.32,16,11.77,29.9,3.33,58.11h0a52.57,52.57,0,0,0-2.87,12.25c-.57,4.05-1,7.51-1.37,10.52C812.28,679.5,811.83,683,802.25,692.11ZM822.09,637c6.31-25.16,1-38.54-5-53.86-.11-.29-.22-.57-.34-.86l-.38-1-.45-1.15c-.91-2.34-1.81-4.72-2.67-7.19-.25-.71-.49-1.44-.73-2.17-.38-1.16-.75-2.33-1.11-3.53-.21-.72-.42-1.46-.62-2.21-.5-1.85-1-3.77-1.39-5.77-.15-.74-.3-1.5-.44-2.27-.23-1.23-.44-2.49-.62-3.78-.12-.76-.22-1.54-.31-2.32-.22-1.8-.39-3.67-.53-5.61,0-.78-.1-1.57-.14-2.37s-.07-1.48-.09-2.25a1.55,1.55,0,0,1,0-.22c0-.75,0-1.49,0-2.24q0-3.51.11-7c0-.85.08-1.7.14-2.54q.21-3.39.6-6.72c.11-.9.22-1.79.34-2.69.17-1.23.35-2.46.55-3.68q.22-1.36.48-2.73.59-3.14,1.29-6.22.32-1.39.66-2.79,1.37-5.52,3.1-10.91c.33-1,.68-2.08,1-3.12.3-.89.6-1.77.92-2.66.38-1.08.77-2.15,1.17-3.23q1.77-4.72,3.74-9.39c.55-1.31,1.11-2.61,1.69-3.91s1-2.37,1.59-3.56c.65-1.44,1.32-2.88,2-4.32l1.71-3.57q1.2-2.49,2.43-5c3.23-6.48,6.57-12.89,9.9-19.25l1.08-2.08c-.95,2-2,4.05-3.1,6.29-2.06,4.15-4.41,8.86-6.86,14.19q-1.07,2.3-2.15,4.74c-.5,1.14-1,2.31-1.51,3.5-.57,1.36-1.15,2.74-1.72,4.16-.48,1.18-1,2.38-1.44,3.61s-1,2.5-1.43,3.78q-1.65,4.45-3.23,9.3-.51,1.56-1,3.18c-.27.87-.54,1.75-.8,2.64s-.6,2-.9,3q-1.51,5.31-2.89,11.06c-.22.93-.44,1.87-.65,2.81-.46,2-.9,4.07-1.32,6.17l-.36,1.8-.18,1c-.23,1.24-.44,2.46-.61,3.65-.14.92-.27,1.83-.38,2.71q-.45,3.6-.58,6.87c0,.85-.06,1.69-.07,2.51a68.38,68.38,0,0,0,.26,6.86c.07.8.15,1.6.25,2.37s.22,1.52.34,2.26.27,1.53.43,2.28c.39,1.9.87,3.72,1.41,5.46.23.74.47,1.46.72,2.17.45,1.26.92,2.47,1.42,3.66.3.71.61,1.42.93,2.11.82,1.8,1.69,3.53,2.59,5.23.36.69.73,1.37,1.1,2.05.58,1.07,1.17,2.13,1.76,3.19a.41.41,0,0,0,.05.09l1.13,2c1.2,2.17,2.36,4.34,3.44,6.57.18.37.35.75.52,1.12s.3.63.45,1c3.69,8.21,6.09,17.56,4.73,31.19-2.3,23.09-5.46,24.85-8.51,26.55C823.1,636.34,822.59,636.63,822.09,637Zm180.23-155.61-4.83,4.83c-32.41,32.69-104.79,65.07-169,89.26-1.07-2.22-2.2-4.35-3.34-6.45,4-1.18,8.09-2.22,12.18-3,54.54-11,106.83-45.68,156.19-86.34l1.11-.93,1.13-.92q4-3.3,7.93-6.64l2.41-2.06c1.69-1.43,3.37-2.87,5.06-4.32l2.38-2.06,3.12-2.7,2.46-2.15q3.6-3.15,7.19-6.31l2.22-2,3.38-3q2.58-2.3,5.1-4.64l2.2-2c1.6-1.52,3.2-3,4.77-4.58l2.18-2.14q2.44-2.44,4.85-4.93l1.08-1.11,1.06-1.11c40.66-42.76,72.32-97.62,107.86-185.14,39.63-97.57,40.92-141.26,42.82-207.27,6,40.45-2.93,121.51-37.35,218-28.87,80.95-68.92,132.71-108.71,174.56-.35.36-.7.73-1,1.1l-1.06,1.1q-2.51,2.61-5,5.16l-2,2.1-4.87,4.93-2,2q-3.94,4-7.87,7.82l-2,2-6.06,5.93-2.19,2.13c-1,1-2,2-3,3l-.24.24-1.83,1.78L1013.9,470l-2.1,2.05q-3.78,3.71-7.49,7.38l-1,1Zm4.77-1.51q3.76-3.72,7.61-7.48c24.13,3.09,49.65,9,71.31,24.15a184.8,184.8,0,0,0-41.72-11c-7.44-1.14-13.81-2.08-19.36-2.9C1017.81,481.52,1012.05,480.66,1007.09,479.85Zm87.84,20.64c-23-19.36-51.38-26.59-78.14-30.16l4.7-4.59c32.85,3.71,67.9,13.52,90.81,44.84A138.68,138.68,0,0,0,1094.93,500.49Zm22.76,13.92c-22.65-35.2-60.11-46.46-94.15-50.66l3.16-3.09c23.85,1.9,48.19,6.4,66.52,22.14,5.55,4.77,10.32,8.75,14.5,12.24,18.92,15.8,25.76,21.52,39.35,45.31a60.22,60.22,0,0,0-4.76-4.82l-4-3.67C1132,526.13,1125.38,520.15,1117.69,514.41Zm40.1,40.81c-20.34-38.31-25.79-42.86-48.64-61.94-4.17-3.49-8.93-7.46-14.47-12.22-18.31-15.72-42.25-20.49-65.81-22.52,1.93-1.89,3.88-3.79,5.83-5.71C1060,457.19,1087,465.6,1106,480.65c30.92,24.39,67.82,60.47,68.24,93.93-.77,2.59-1.46,2.88-1.64,2.91-1.71.3-5.75-6.7-9.31-12.88C1161.62,561.64,1159.78,558.45,1157.79,555.22Zm-5.91-50c-7.4-9.92-16.9-16.42-34.44-28.42-4.23-2.89-8.93-6.11-14.18-9.77-22.13-15.43-40.32-22.75-56.74-26,1.69-1.7,3.39-3.42,5.08-5.16,16.84,1.71,27.64,5.5,40.67,15.38,1.49,1.38,3,2.72,4.53,4h0l.69.54.58.46c8.88,7.12,17.47,12.18,25.09,16.64,10.65,6.24,19.22,11.27,23.24,19C1148.2,495.82,1150,500.23,1151.88,505.25Zm-39.18-41.6c11.85,2.1,20.31,6,28.18,18.2-4.48-3.81-10.17-7.15-16.6-10.92-3.87-2.26-8-4.68-12.26-7.43C1112.25,463.55,1112.47,463.61,1112.7,463.65Zm-54-35.13c9.13.65,17,7,24.48,14.1-9-5-17.92-7.43-29.59-8.78Zm117,137.58c-5.68-31.82-39.52-64.57-68.27-87.25-19-15-45.56-23.48-70.75-28q3.93-3.87,7.87-7.83c16.58,3,34.94,10.23,57.43,25.9,5.26,3.67,10,6.88,14.19,9.78,22.07,15.09,31.21,21.35,39.49,36.81a168.16,168.16,0,0,0,11.7,23.52C1172.93,548.73,1176.56,555.05,1175.7,566.1Zm26.19-542.46-.28,9.67c-1.89,65.87-3.14,109.38-42.65,206.67-35.85,88.26-67.7,143.17-108.86,185.93L1049,427l-1.1,1.12c-1.58,1.61-3.17,3.21-4.77,4.78l-2.22,2.16q-2.31,2.22-4.65,4.41L1034,441.6c-1.19,1.08-2.37,2.16-3.57,3.23l-4.84,4.29-2.26,2q-3.72,3.28-7.45,6.53l-2.48,2.16-3,2.61-2.42,2.09-5,4.24-2.45,2.07q-3.76,3.18-7.56,6.31l-1.11.92-1.1.9c-48.72,40-100.26,74-153.86,84.77-4.32.87-8.6,2-12.86,3.23l-.29-.53c-.51-.93-1-1.86-1.54-2.8,10.49-3.41,20.67-6.42,30.48-8.76a144.9,144.9,0,0,0,14.73-4.34c39-13.67,77.57-43.78,112.55-74.76l1-.87,1-.88,4.89-4.37,2.34-2.11,4.27-3.87,2.38-2.17,2.65-2.43,1.4-1.28,1-.89q4.14-3.81,7.76-7.29l2.18-2.11q3.43-3.35,6.44-6.42c.77-.78,1.53-1.56,2.26-2.32,1.41-1.47,2.75-2.89,4-4.28.7-.75,1.38-1.5,2-2.23,1.27-1.4,2.47-2.76,3.62-4.09.34-.38.67-.77,1-1.15l1-1.15c7-8.29,11.86-15.16,16.63-21.92,6.37-9,12.4-17.58,23.29-28.92,19.54-20.35,44.47-67.57,64.5-105.5,8.32-15.76,16.18-30.65,22.64-41.74,22-37.8,43-161.77,42.06-209.37C1200.86,20,1201.4,21.75,1201.89,23.64Zm-4.12-10.73c2.86,41.26-19.22,175.45-41.51,213.68-6.49,11.14-14.36,26-22.7,41.83-20,37.81-44.8,84.87-64.12,105-11,11.46-17.09,20.07-23.51,29.19a281.23,281.23,0,0,1-17.81,23.27l-1,1.16-1,1.15q-1.71,1.94-3.59,4c-.67.73-1.36,1.48-2.08,2.24-1.33,1.42-2.73,2.88-4.2,4.4l-2.32,2.36q-2.91,2.93-6.19,6.09l-2.21,2.13c-2.26,2.14-4.64,4.37-7.17,6.7l-.7.64-2.36,2.16-2.68,2.45-2.39,2.17-4.17,3.77-2.34,2.11c-1.42,1.26-2.83,2.53-4.26,3.79l-1,.87-1,.86c-38.91,34.38-82.16,67.47-125.33,77.74-10,2.38-20.38,5.45-31.06,8.93-.89-1.68-1.76-3.4-2.58-5.18,5.81-1.79,11.52-3.47,17.09-5q6.57-1.77,13.28-4.13c41-14.36,85.39-44.34,120.92-75.25l1-.85,1-.85,2.37-2.08,2.19-2c1.2-1.08,2.4-2.16,3.58-3.25l2.35-2.17,2.88-2.7c.74-.71,1.5-1.41,2.23-2.12q3.76-3.6,7.31-7.17c.74-.74,1.46-1.48,2.19-2.22,1.6-1.63,3.17-3.26,4.7-4.87.77-.81,1.54-1.62,2.29-2.43.91-1,1.81-1.94,2.69-2.9.71-.78,1.41-1.58,2.11-2.37s1.33-1.48,2-2.23c1-1.17,2.05-2.37,3.07-3.56.32-.39.65-.77,1-1.16l.95-1.15c18.13-21.7,34.7-46.79,50.8-71.18,16.9-25.61,32.87-49.8,47.75-65,22.8-23.32,29-49,36.08-78.76,2.62-10.94,5.33-22.24,9-34.06l2.14-6.83c13.44-42.59,35.75-113.37,33.34-161.24A19,19,0,0,1,1197.77,12.91Zm-62.25,7.61c-39.19,30-82.72,85.56-104,114.24-16.19,21.86-26.68,44.61-36.82,66.61-13.31,28.85-26,56.28-50.32,81.67l-.15.14a144.39,144.39,0,0,0,34.24-58.44c6.62-21.68,20.35-43.07,34.89-65.71,5.32-8.29,10.82-16.86,15.92-25.41,17.16-28.8,47.31-65.58,68.33-83.56l.21-.17c.61-.52,1.21-1,1.81-1.51h0C1113.5,36.77,1123.9,28.11,1135.52,20.52ZM916.09,305h0l0,0c2-1,4.13-2,6.24-2.95,5.06-2.32,9.85-4.52,13.1-7.21A47.14,47.14,0,0,0,933.1,306c-1,7.47-2,15.94-9.34,27.86-6.87,11.21-10.9,15.46-14.15,18.87a48.85,48.85,0,0,0-9.44,13.12,103.07,103.07,0,0,0,.24-10.84,1.83,1.83,0,0,0,.39.34,1.64,1.64,0,0,0,1.44.12,4.07,4.07,0,0,0,1.16-.7c10.89-9.13,18.77-19,22.8-28.6,1.52-3.61,2.65-6.61,3.48-9.12l0,0h0c3.32-9.95,1.95-12,1.43-12.79a2.76,2.76,0,0,0-2.44-1.24h0c-15.44.25-24.28,7.29-24.23,19.3,0,6.83-1.66,14.9-3,21.37-.49,2.37-.88,4.26-1.15,5.78a150.73,150.73,0,0,1,.29-15.95c.44-2.68.83-5.41,1.14-8.21a55.74,55.74,0,0,1,3.5-11.43C906.72,310.34,911.05,307.55,916.09,305ZM721.61,520.13c3-1,5.95-1.94,8.86-3,9.72-3.4,19-7.16,27.9-11.17-.06.2-.11.4-.17.61-6,2.79-11.72,5.31-17.13,7.52-45.41,18.47-77.05,26.79-109.22,28.7l-9.14.56c-7.63.48-15.73,1-24.16,1.38a513.27,513.27,0,0,0,69-9.09,364.49,364.49,0,0,0,47.29-13.1C717.12,521.79,719.37,521,721.61,520.13ZM516.84,543.85q5.13.82,10.25,1.45c-20.66-1.89-38-4.63-54-7.52-6.23-1.77-12.63-3.83-19.28-6.25-25.16-11.09-51.11-27.5-77.71-52.2-3.7-3.77-7.42-7.73-11.18-11.94-1.71-2.12-3.38-4.26-5-6.42,22.55,25.51,55.81,49.69,83.69,64.85C460.13,534.8,486.21,540.88,516.84,543.85ZM756.9,567.27c-38.11,11.5-79.71,22.22-108.46,24.3-56.13,4-97.87.22-144.06-13.21-40.25-11.7-60.6-22.09-81.46-39.18C460.36,564.26,506.83,576,541.79,583c51.74,10.29,120.44,4.68,198.67-16.21,5.48-1.46,11.07-3,16.71-4.71C757.1,563.79,757,565.54,756.9,567.27ZM759.47,536c-.08.35-.17.69-.25,1,0-.31,0-.62-.05-.92,0-.8-.1-1.6-.16-2.4-.08-1.22-.16-2.44-.26-3.66-.09-1-.15-2.05-.2-3.05,0-.83-.06-1.64-.08-2.44,0-1.73,0-3.4.08-5q.06-.69.15-1.35c.12-.88.28-1.75.47-2.61.22-1,.49-2,.81-3s.64-1.88,1-2.82.67-1.61,1-2.42c.54-1.13,1.13-2.27,1.77-3.41l.32-.57c.59-1,1.21-2,1.88-3.07.11-.17.23-.34.34-.52.77-1.17,1.58-2.35,2.45-3.54,4.85-6.72,11.19-13.93,18.56-22.3l5.37-6.12c-3.59,6.75-7.24,13.16-10.81,19.41l-1.35,2.38c-.75,1.31-1.49,2.62-2.22,3.91l-.13.23c-.68,1.21-1.36,2.41-2,3.62l-.3.53c-.68,1.22-1.34,2.43-2,3.64s-1.44,2.67-2.14,4c-.55,1-1.08,2.07-1.61,3.11s-1.12,2.24-1.67,3.35-1,2-1.43,3c-1.18,2.55-2.28,5.09-3.29,7.64-.38,1-.75,1.92-1.1,2.88-.94,2.58-1.78,5.16-2.5,7.76C759.92,534.2,759.69,535.1,759.47,536Zm4-36.94c4.12-8.63,10.34-14.84,16.86-20.55-6.4,7.34-11.82,13.83-15.89,20-.67,1-1.31,2-1.91,3.05-.14.24-.28.47-.41.71s-.12.2-.17.3l.09-.26c.09-.21.17-.43.26-.64C762.64,500.81,763,499.93,763.45,499.07Zm-6.36,40.51c-12.74,4-25.66,7.42-41.54,11.58l-5.66,1.49c-36,9.47-64.18,10.35-94,11.27-9.6.3-19.53.61-29.63,1.24-38.35,2.37-71.09-6.94-109-17.72L472.16,546c-21.12-6-45.24-20.06-67.62-38.55A250.94,250.94,0,0,0,443.14,531c36.9,18.52,70.79,28.35,106.65,31l8.76.65c31.64,2.36,47.52,3.55,87.7-3.37,12.31-2.11,22.3-3.16,32-4.17,20.49-2.14,38.64-4,71.38-15.5,2.38-.84,4.83-1.72,7.36-2.66C757,537.83,757.05,538.71,757.09,539.58Zm-.29-5c-37.67,14-56.9,16-78.85,18.28-5.14.53-10.38,1.08-16,1.8,26.5-5.1,56.1-13.39,89.06-24.93l5.33-1.89c0,.8.09,1.6.16,2.42C756.61,531.68,756.71,533.12,756.8,534.56Zm-292.93,3.62c40.18,15.51,78.25,18.45,113.63,21.18l10.23.8a239,239,0,0,0,45.38-1.09c-31,4.54-46.54,3.38-74.41,1.3l-8.76-.65C520.86,557.6,493.07,550.68,463.87,538.18Zm25.86,6.07c23.33,4.94,45.29,6.35,70.78,8,10.06.65,20.47,1.31,31.88,2.24,37.52,3.07,100.77-13.09,150.78-30.61,4.49-1.57,8.87-3.16,13.11-4.74,0,.12,0,.25,0,.36a33.25,33.25,0,0,0-.07,4.58c0,.43,0,.87,0,1.3-70,24.94-126.52,35.87-168.34,32.51l-10.23-.8C549.91,554.94,520.5,552.67,489.73,544.25Zm267.61,3.14c-28.76,9.21-56.06,15-91.43,20.13-64.32,9.32-92.79,4.61-128.82-1.34-36.5-6-77.86-12.88-108.82-34.38-27.54-19.14-38.48-30.21-55.34-51.51,29.24,32.43,67.2,59,98.63,67.89l5.14,1.47c38.1,10.83,71,20.19,109.74,17.79,10.07-.62,20-.93,29.57-1.23,28.6-.89,58.18-1.81,94.46-11.35l5.67-1.48c15.67-4.11,28.46-7.47,41-11.42C757.25,543.78,757.31,545.59,757.34,547.39Zm-210,1.69c16.5.93,35,1.31,56.18.86,49.45-1,76.54-9.18,118.69-23.94l12.39-4.37,14.58-5.13q3.84-1.35,7.57-2.73c-.13.94-.24,1.89-.32,2.87-51.36,19.23-123,38.9-163.91,35.56-11.42-.93-21.84-1.6-31.92-2.25C556.11,549.66,551.7,549.38,547.37,549.08Zm26.78-1.34c17.4-.12,33.93-1.14,48.72-2.06,3.11-.2,6.16-.39,9.13-.56a243.29,243.29,0,0,0,35.72-4.83c-18.89,4.35-38.53,6.83-64.23,7.37C593.08,547.87,583.34,547.89,574.15,547.74ZM734,519.42q3.88-1.53,7.92-3.17c4.93-2,10.16-4.29,15.58-6.78-.12.56-.22,1.13-.33,1.71-2.87,1.06-5.76,2.12-8.73,3.16Zm23.28,36.32c-32.66,9.77-63.84,15.62-94,17.65-62.39,4.2-88.92,5.26-120.3-.37-26.25-4.72-87.73-15.75-121.23-42.11-5.3-4.17-10-8-14.11-11.49,5.52,4.4,11.8,9,19.33,14.26,31.38,21.8,73,28.68,109.74,34.75,36.23,6,64.84,10.73,129.51,1.36,35.24-5.11,62.5-10.88,91.12-20v.15Q757.22,552.8,757.29,555.74Zm202.1-87.87c-36,30.91-83.89,59.57-118.47,71.69-6.34,2.22-15.09,5.28-25.49,8.82q-.81-2.64-1.4-5.55c55.49-21.16,108.38-48.61,132.42-74.91q1.8-2,3.6-3.89l.83-.89.69-.73.15-.15,1.63-1.73c.28-.28.55-.57.82-.86l1.83-1.89c1.25-1.29,2.5-2.58,3.75-3.85l1.87-1.89q1.82-1.85,3.63-3.64c.7-.71,1.41-1.41,2.12-2.11,1.23-1.23,2.47-2.44,3.7-3.65l2.25-2.21c1.8-1.77,3.61-3.53,5.4-5.27l2.7-2.64,2.11-2.07c.81-.78,1.61-1.57,2.41-2.36l1.14-1.12,1.13-1.12c19.41-19.16,37.21-38.19,49.29-62,9.49-18.73,22.73-36.87,36.75-56.07,16.1-22.05,32.74-44.84,46.58-72a264.55,264.55,0,0,0,11.38-25.48l-.45,2.18c-4.33,21.38-8.08,39.84-36.53,82.86a989.8,989.8,0,0,1-62.46,85.19c-11.8,14.66-22,27.35-34.3,45.49l-.34.5-.45.64q-.37.57-.78,1.14c-.69,1-1.4,2-2.14,3-.53.72-1.08,1.44-1.64,2.17q-2.64,3.41-5.62,6.86l-2.07,2.36q-1.77,2-3.63,4c-.73.78-1.48,1.56-2.23,2.34q-2.72,2.82-5.61,5.64c-.67.66-1.35,1.31-2,2-1.2,1.15-2.42,2.29-3.66,3.44-.73.67-1.46,1.35-2.21,2l-1.95,1.76L962,465.6l-.68.6-1,.84Zm-.1-198.58c-2.73,16.44-6,19.25-9.42,22.19s-6.72,5.78-10,18.72c-6.86,27.39-11.89,35.87-24.51,49-4.1,4.26-9.4,12-15.55,20.88-9.27,13.46-21.13,30.68-34,43.16,13.7-15.6,24.41-31.36,31.6-46.37.21-.43.4-.87.58-1.32,6.13-13.79,9.12-16.94,13.2-21.23,3.32-3.5,7.45-7.85,14.44-19.25,7.57-12.34,8.73-21.45,9.66-28.77.8-6.31,1.44-11.28,5.51-16.47A189.54,189.54,0,0,0,959.29,269.29Zm32.89-57c-1.77,33.15-8.06,77.39-36.32,104.14-15.57,14.74-20.33,24-25.37,33.83a129.7,129.7,0,0,1-20.3,30.29q-2.7,3.1-5.93,6.88c-4,4.62-8.55,9.95-13.77,15.79l-1,1.06-1,1.12-.95,1.05-1.66,1.83-2.09,2.26-.64.7-1.12,1.2-.24.26L880.66,414a434.77,434.77,0,0,1-48.77,44.79c.6-1.37,1.2-2.69,1.79-4,7.44-6.33,14.41-12.8,20.86-19.34,9.48-6.11,18.46-15.55,26.76-25.89,1.53-1.91,3-3.85,4.52-5.8,5.69-7.51,11-15.24,15.9-22.32,6.08-8.83,11.34-16.47,15.31-20.6,12.74-13.27,18.15-22.35,25.07-50.05,3.07-12.23,6.21-14.93,9.25-17.54,4-3.46,7.84-6.74,10.83-27.77C974.69,248.45,983.6,230.69,992.18,212.31Zm4.61-10c5.86-12.69,11.84-25.64,19-38.51-.1,8.2.26,15.29.63,22.17.89,17.11,1.67,31.89-6,55.14-6.93,21-20.13,38.42-34.11,56.82-8.86,11.66-18,23.72-26.57,37.8-17.52,28.82-32.39,49.6-50.87,70.4-.09.09-.17.19-.25.28l-.54.61-.79.88-.2.21c-.25.29-.51.57-.77.86l-.1.11-1.42,1.57-.12.12q-1.47,1.62-3,3.24c-.52.56-1,1.13-1.57,1.69-.82.87-1.65,1.75-2.49,2.62L886,420l-.91.95-.85.87-.79.81q-2.81,2.9-5.75,5.83c-12.62,12.63-30.17,26.06-49.38,38.73.57-1.42,1.14-2.82,1.72-4.17a431.28,431.28,0,0,0,51-46.16l1-1,1-1.09h0l1.68-1.81L887,410.5l1.63-1.79,2.26-2.49.45-.5.85-1,.23-.25.62-.7c4.87-5.46,9.18-10.48,12.94-14.85,2.14-2.5,4.11-4.8,5.92-6.86a132.25,132.25,0,0,0,20.61-30.75c4.94-9.64,9.61-18.75,24.9-33.22,30.48-28.85,35.89-77.25,37.29-111.26Q995.75,204.62,996.79,202.34Zm36.59-66.2q1.32-1.78,2.76-3.71c-3.49,11.76-1.77,18.92.18,27,2.92,12,6.54,26.94-6,64.62-19.63,59.1-37.42,79.49-56.25,101.07-6.22,7.13-12.65,14.51-19.23,23.41-5,6.74-9.9,13.52-14.76,20.23-10.86,15-21.4,29.48-31.58,42.2-.25.31-.49.62-.74.92l-.56.7-.17.21-1.27,1.56-1.69,2.06c-.3.36-.61.72-.91,1.09l-.54.65-.93,1.09q-1.63,1.93-3.25,3.79L897,424.71,894.89,427l-1.57,1.7c-.31.33-.61.66-.92,1l-.81.86-.76.78c-3.09,3.21-6.14,6.15-9.15,8.79a347.11,347.11,0,0,1-58.4,40.71c1.14-3.41,2.32-6.66,3.51-9.75,20.16-13.12,38.83-27.28,52.5-40.95,1.85-1.86,3.66-3.69,5.43-5.51.27-.26.52-.53.78-.8l.83-.85,1-1.05,1.59-1.67,2.46-2.59L893,416q1.59-1.71,3.15-3.42l.27-.29,1.27-1.39.26-.29,1-1.13.46-.51.78-.88.28-.32.5-.56c18.38-20.74,33.23-41.52,50.68-70.24,8.49-14,17.62-26,26.44-37.61,14.1-18.56,27.42-36.09,34.46-57.48,7.78-23.66,7-38.64,6.09-56-.42-8-.85-16.29-.53-26.25A240.5,240.5,0,0,1,1033.38,136.14Zm21-27.37.87,2.7c8.14,25.2,16.56,51.26,4.55,80.58-11.81,28.86-24,58.69-47.22,98C1001,309.59,983.25,332,964.4,355.65c-15.62,19.63-31.7,39.85-44.89,59.39l-.41.61c-.08.12-.16.25-.25.37l-.66,1-.36.55-1.12,1.68c-.42.64-.82,1.27-1.23,1.91l-1.32,2c-.22.34-.46.68-.69,1-.41.62-.85,1.24-1.31,1.86l-.64.86c-.45.58-.92,1.17-1.41,1.75-.89,1.08-1.83,2.15-2.83,3.23-.5.53-1,1.06-1.54,1.6L904.19,435c-.57.55-1.14,1.1-1.74,1.65l-.5.46-.89.81-.85.74c-19.32,16.93-50.3,33.26-78.87,48.15.29-.94.58-1.86.87-2.77,27.16-15.06,47.14-30.1,61-42.19,3.09-2.7,6.22-5.72,9.38-9l.75-.79.82-.86.85-.91,1.57-1.7c.66-.72,1.31-1.45,2-2.19.5-.55,1-1.12,1.49-1.68q1.61-1.83,3.22-3.74l1.13-1.34c.11-.13.22-.27.34-.4l1.11-1.34c.62-.74,1.23-1.49,1.85-2.25.48-.58,1-1.17,1.43-1.77l.13-.15.74-.92.74-.93c10.09-12.64,20.51-27,31.24-41.78,4.86-6.7,9.78-13.48,14.75-20.21,6.52-8.83,12.93-16.17,19.12-23.27,19-21.76,36.91-42.31,56.69-101.85,12.73-38.3,9-53.59,6-65.88-2.32-9.53-4.14-17.07,2.14-32.48C1044.76,121,1049.36,115.07,1054.35,108.77Zm1.7-2.12c6-7.5,12.49-15.43,19.35-23.43,12,31.25,19.12,59.74-2.25,110.93-7.9,18.94-12.6,32-16.39,42.45-6.73,18.66-10.8,29.92-25.48,53.6-10.17,16.38-23.12,29.26-36.84,42.89C977,350.4,959,368.29,943.63,395.83a178.45,178.45,0,0,1-14.61,22l-.76,1c-.11.13-.21.27-.32.41l-.44.56c-.34.43-.68.87-1,1.3-.82,1-1.66,2-2.51,3.05-.48.59-1,1.16-1.47,1.74-.85,1-1.7,2-2.58,3-.51.57-1,1.13-1.55,1.7l-1.57,1.73-1.51,1.61c-.82.87-1.64,1.74-2.48,2.6l-1.58,1.59-1.16,1.15-1.72,1.71-.16.15-.88.85-.82.78c-23.53,22.43-53.77,42.34-89.13,58.5,1-3.94,2-7.72,3.06-11.33,29.42-15.33,61.77-32.22,81.75-49.9l.85-.75.9-.83.39-.36c.59-.55,1.17-1.1,1.73-1.65s1-.95,1.43-1.42,1-1.07,1.54-1.6c1-1,1.84-2,2.7-3.05.48-.58,1-1.16,1.41-1.74.3-.39.58-.78.87-1.17q.69-.92,1.32-1.86c.25-.37.52-.75.76-1.13l1.3-2,1.23-1.9c.45-.68.9-1.36,1.36-2l.51-.76c.22-.33.43-.66.66-1a1.63,1.63,0,0,1,.11-.17c.18-.27.37-.54.55-.82,13.07-19.28,29-39.26,44.39-58.66,18.9-23.75,36.74-46.19,48.33-65.84,23.28-39.47,35.53-69.38,47.37-98.31,12.32-30.1,3.77-56.57-4.5-82.16Zm21-25.38c5.3-6.14,10.79-12.31,16.38-18.34,11.36,25.05,15.56,69,3,100.86-8.06,20.44-13.07,34.68-18.87,51.18-3.06,8.69-6.52,18.54-10.8,30.34-12.36,34.07-17,46.81-73.74,102.62C963.76,376.7,953.25,392.8,944,407c-2.78,4.25-5.43,8.31-8.45,12.46l-.73,1-.65.87-.09.12c-.44.59-.9,1.18-1.36,1.78q-1.62,2.08-3.43,4.25c-.48.58-1,1.15-1.48,1.74-.85,1-1.72,2-2.64,3l-1.59,1.7c-.73.78-1.49,1.57-2.27,2.37l-1.57,1.58c-.71.71-1.43,1.42-2.18,2.14l-1.64,1.56-.92.87c-.57.53-1.15,1.07-1.75,1.61l-.07.07-.84.77-.87.77c-.89.8-1.8,1.61-2.75,2.44-30.67,26.77-51,42.48-93.39,62.12q.66-3.15,1.36-6.18c36.52-16.49,67.69-37,91.83-60.09.28-.26.56-.52.83-.79l.88-.84.07-.07,1.72-1.71,1-1.06,1.58-1.59,2.32-2.43,1.51-1.61c.62-.67,1.22-1.34,1.82-2s1.05-1.14,1.55-1.71c.88-1,1.74-2,2.59-3,.5-.58,1-1.16,1.47-1.74,1-1.16,1.92-2.32,2.85-3.48.39-.5.77-1,1.16-1.49l.3-.38.46-.6c.25-.33.52-.65.77-1A181.28,181.28,0,0,0,945.6,397c15.25-27.27,33.14-45.05,50.44-62.24,13.81-13.73,26.86-26.7,37.16-43.31,14.81-23.88,18.91-35.22,25.69-54,3.78-10.45,8.47-23.46,16.35-42.34C1097.19,142.46,1089.54,113.46,1077.07,81.27Zm18-20.13c7-7.43,14.05-14.61,21.15-21.27,5.34,21,16.07,66.82-5.12,112.64-8.09,17.52-12.3,31.8-16.38,45.61-6.5,22-13.22,44.84-35.81,82.39-20.47,34-42.82,57.53-62.54,78.28-15.72,16.55-29.3,30.84-38.1,46.62-3.23,5.79-6.59,11.32-10.29,16.7l-.72,1-.71,1-.4.56-1.41,1.94c-1.63,2.2-3.32,4.38-5.1,6.55L938.21,435c-.81,1-1.65,1.92-2.5,2.88-.53.6-1.07,1.19-1.61,1.79q-1.44,1.56-3,3.14-.81.84-1.65,1.68c-.63.63-1.26,1.26-1.91,1.89L925.91,448l-.5.47-1.4,1.31-.45.41-.47.43-.89.8c-16.77,15.07-39.86,30.38-74.56,48.42-12.69,6.6-23.69,12.11-33.55,16.81.16-1,.34-2,.53-3,0-.22.09-.43.13-.65,43.66-20.07,64.22-35.92,95.44-63.16q1.75-1.53,3.37-3l.87-.78.75-.69.16-.15,1.66-1.54.82-.77,1.64-1.58c.7-.68,1.39-1.35,2-2l1.58-1.6c.85-.87,1.68-1.74,2.48-2.59l1.59-1.72c.91-1,1.78-2,2.62-3,.5-.58,1-1.16,1.47-1.73,1.34-1.61,2.59-3.18,3.78-4.73.49-.63,1-1.26,1.43-1.89l0,0,.72-1,.74-1c2.8-3.9,5.3-7.74,7.92-11.75,9.21-14.11,19.65-30.11,48.73-58.7,57.13-56.17,62.15-70,74.28-103.47,4.29-11.81,7.76-21.67,10.81-30.36,5.8-16.48,10.8-30.7,18.85-51.1C1111.48,131.83,1107,86.49,1095.12,61.14Zm23-23c5.67-5.24,11.34-10.13,16.92-14.49,6.78,19.66,7,61.9.27,85.28-2.59,9-8.32,22.62-14.38,37-10.42,24.79-22.24,52.87-23.09,68.86-1,19-21.08,49.87-42.33,82.56-6.32,9.72-12.85,19.77-18.87,29.53-15.12,24.5-30.81,42.57-46,60-10.67,12.29-20.76,23.91-30.15,37.15l-.4.56-.37.51-.76,1-.78,1.07c-.49.65-1,1.31-1.53,2q-3.08,3.93-6.73,8L948.29,439q-1.32,1.41-2.7,2.82l-1.77,1.82q-1.49,1.49-3,3l-1.89,1.78c-.85.81-1.72,1.62-2.6,2.43l-1.8,1.63-.36.33L932.79,454l-.61.53-.34.3-.92.81C903,479.86,863.62,504.5,823.5,521.89c-3.59,1.56-7.09,3.05-10.52,4.5q.19-3.35.7-7c10.23-4.85,21.7-10.59,35-17.51,35.36-18.38,58.75-34,75.72-49.36l.89-.81.41-.38.5-.46,1.36-1.28.44-.42c.57-.54,1.12-1.08,1.67-1.62s1.33-1.32,2-2l1.68-1.72q1.51-1.59,2.95-3.18c.55-.6,1.08-1.2,1.61-1.8.85-1,1.67-1.91,2.48-2.87.49-.6,1-1.19,1.47-1.79q2.8-3.44,5.36-6.95l1.4-1.95.47-.67.71-1,.72-1.05c3.5-5.16,6.7-10.46,9.79-16,8.67-15.54,22.16-29.73,37.77-46.16,19.8-20.84,42.25-44.46,62.84-78.68,22.74-37.8,29.51-60.73,36-82.92,4.23-14.36,8.23-27.93,16.26-45.29C1135.16,106,1123.43,58.8,1118.16,38.12ZM1137,22.17A147,147,0,0,1,1154,10.76c2.24,15,6.71,56.2-4.38,94.52-4.05,14-9,25.81-14.21,38.33-6.89,16.52-14,33.61-19.46,56.87-9.4,40.23-37.13,86.23-58,113.4-6.86,8.91-14.62,19.81-22.83,31.35-17.07,24-36.41,51.15-55.83,72.21-2.42,2.62-4.73,5.23-7,7.82l-.95,1.08-.92,1.07-1.31,1.51-1.72,2-3.25,3.79q-2,2.36-4,4.68l-1.72,2c-.91,1.06-1.84,2.12-2.76,3.18l-1.74,2c-.87,1-1.76,2-2.66,3l-1.75,1.91q-1.59,1.72-3.24,3.46l-1.71,1.78-.45.46-1.33,1.35c-.15.16-.31.32-.47.47l-.39.4-.86.86c-16.49,16.29-38.28,33-76.52,52.12q-26.4,13.2-51.47,23.52a67.36,67.36,0,0,1-.18-6.91q5.63-2.37,11.53-4.93c40.66-17.64,80.59-42.7,108.76-67.33l.93-.81.34-.3.61-.54,1.33-1.19.36-.33c.61-.55,1.23-1.11,1.82-1.66,1-.88,1.9-1.77,2.82-2.65.64-.61,1.27-1.21,1.89-1.82,1-1,2-1.95,3-2.93.61-.61,1.2-1.22,1.79-1.84.93-1,1.83-1.92,2.72-2.88l1.69-1.86q3.72-4.16,6.83-8.2c.51-.66,1-1.32,1.48-2l.86-1.17.4-.54.36-.51.78-1.07c9.12-12.72,18.92-24,29.27-35.95,15.24-17.54,31-35.68,46.21-60.34,6-9.73,12.53-19.77,18.84-29.48,21.41-33,41.64-64.08,42.69-83.69.83-15.59,12.57-43.48,22.92-68.09,6.09-14.47,11.84-28.14,14.47-37.27C1144.57,85.1,1144.25,42.23,1137,22.17Zm19.35,92.77c-6.42,16.54-9.47,30.75-12.71,45.79-4.61,21.49-9.38,43.71-24.79,74-13.75,27-30.34,49.72-46.38,71.69-14.08,19.28-27.38,37.49-37,56.38-12.26,24.18-30.57,43.46-50.45,63l-1.14,1.12L982.75,428l-2.22,2.17-2.1,2.05-1.3,1.27-7,6.81L968,442.48,964.42,446l-2.07,2.06L959,451.41l-1.87,1.89q-1.86,1.89-3.71,3.83L951.68,459c-.23.24-.46.49-.7.73-.5.54-1,1.07-1.52,1.61l-.25.26c-.2.21-.39.42-.59.62s-.54.6-.82.89q-1.51,1.62-3,3.27c-23.76,26-76.13,53.19-131.17,74.19-.12-.76-.22-1.54-.32-2.33q25.49-10.46,52.26-23.84c39.06-19.52,61.07-36.57,77.76-53.2l.86-.87.45-.45.42-.42c.46-.47.92-.94,1.37-1.42l.51-.52c.58-.61,1.16-1.21,1.73-1.82,1.15-1.21,2.27-2.42,3.38-3.63.58-.64,1.17-1.28,1.74-1.92.91-1,1.82-2,2.71-3.05.59-.66,1.17-1.33,1.75-2l2.85-3.29,1.75-2,3-3.54,4.23-4.93,1.74-2,1.43-1.65,1-1.08,1-1.1c1.88-2.13,3.79-4.28,5.77-6.43,19.52-21.17,38.91-48.41,56-72.44,8.21-11.52,16-22.4,22.78-31.28,21-27.35,49-73.69,58.45-114.26,5.39-23.08,12.48-40.08,19.34-56.52,5.25-12.58,10.21-24.46,14.3-38.58,11.42-39.48,6.52-82,4.31-96.33a64.89,64.89,0,0,1,16.1-6.25C1176.1,39.58,1170.62,78.12,1156.31,114.94ZM898,346.06c0,1.78.06,3.55.1,5.27.23,9.74.43,18.16-2.63,24.55-8.94,18.66-23.38,38.5-42.27,57.72h0q-8,8.16-17.1,16.13c1.65-3.46,3.23-6.62,4.67-9.51a154.25,154.25,0,0,0,6.85-14.91C873,400.77,890.12,376.85,898,346.06ZM911,321.39a11.78,11.78,0,0,1,2.19-9.2,14.62,14.62,0,0,1,4.73-3.91c-5.89,7.39-6.17,15.67-6.29,19.55,0,.47,0,.86,0,1.17a1.93,1.93,0,0,0,1.11,2.14,2.43,2.43,0,0,0,1.67-.08c3.44-1.21,8.51-7.57,8.57-7.64l.34-.43c1.06-1.33,2.15-2.71,3.19-4.12-3.68,7.9-11.61,15.48-16.55,20.19-.83.79-1.59,1.52-2.25,2.17.18-.69.39-1.45.6-2.17C909.69,334,911.82,326.46,911,321.39Zm18.22-15.88a3.92,3.92,0,0,1,.29,2.28c-.38,4.14-4.43,9.25-8,13.76l-.34.43c-2.77,3.49-5.92,6.18-7.29,6.84,0-.3,0-.58,0-.9.13-4.24.44-14.14,9.05-21.6a34.78,34.78,0,0,1,5.79-1A.48.48,0,0,1,929.25,305.51Zm-7.51,24.61c-4.25,7.66-10.93,15.43-19.61,22.73a74.81,74.81,0,0,1,1.52-8.69c1.37-6.58,3.09-14.78,3.06-21.85,0-5.63,2.06-9.42,5.08-12l-.37.45a14,14,0,0,0-2.62,11c.7,4.57-1.34,11.86-2.69,16.69s-1.7,6-.52,6.72a1.26,1.26,0,0,0,1.08.09,3.26,3.26,0,0,0,1.24-1c.8-.88,2.09-2.11,3.59-3.54A132,132,0,0,0,921.74,330.12Zm8.64-34.58a122.49,122.49,0,0,0,9.49-8.06l-.53.66c-1.55,1.5-3.13,3-4.77,4.47A24.41,24.41,0,0,1,930.38,295.54ZM1186.84,4.19c-1.63,11-2.86,21.09-4,30.89-4.51,37.38-8.41,69.66-32.13,119.69-2.66,5.62-4.91,10.76-6.82,15.52.68-3,1.33-6.06,2-9.06,3.21-14.95,6.24-29.07,12.6-45.44,14.46-37.23,20-76.21,16-112.87a35,35,0,0,1,5.11-.46A26.72,26.72,0,0,1,1186.84,4.19Zm2.16.93A36.17,36.17,0,0,1,1192.43,7c3.12,47.46-19.55,119.35-33.12,162.38l-2.16,6.83c-3.73,11.9-6.45,23.24-9.08,34.21-7,29.42-13.14,54.84-35.5,77.71-15,15.37-31,39.65-48,65.35-16.43,24.9-33.36,50.54-51.9,72.48-.32.39-.65.77-1,1.15l-1,1.15c-1,1.16-2,2.32-3,3.46l-2,2.22c-.27.3-.54.61-.82.91-1.4,1.54-2.85,3.09-4.32,4.66L998.21,442c-1.46,1.52-3,3-4.47,4.58l-2.25,2.25q-3.5,3.46-7.18,7l-2.21,2.08c-1,.94-2,1.89-3,2.83-.78.73-1.58,1.45-2.37,2.17-1.08,1-2.16,2-3.26,2.94l-2.17,1.93c-.63.56-1.26,1.12-1.9,1.67l-1,.85-1,.84c-39,33.8-88.54,66.32-132.4,78.1-5.68,1.53-11.5,3.25-17.43,5.07-.5-1.2-1-2.44-1.43-3.71,10.41-3.55,19.17-6.62,25.51-8.84,35.06-12.28,83.76-41.48,120.08-72.89l1-.84,1-.84,1-.86,2.1-1.87,2.28-2.08c.76-.69,1.52-1.39,2.26-2.09,1.17-1.09,2.31-2.18,3.44-3.27l2.08-2q3.09-3,6-6.1l2.17-2.33q1.86-2,3.61-4c.69-.8,1.37-1.59,2-2.39,1.86-2.2,3.61-4.38,5.25-6.56.56-.73,1.1-1.46,1.63-2.19q1.11-1.53,2.16-3.06l.34-.5.44-.64.78-1.14c11.84-17.39,21.83-29.79,33.32-44.05a993,993,0,0,0,62.58-85.37c28.69-43.39,32.66-62.95,36.86-83.66,3.08-15.16,6.26-30.83,18.74-57.16,23.88-50.37,27.8-82.82,32.33-120.4C1186.21,25.76,1187.41,15.82,1189,5.12Zm-798.32,502a357.92,357.92,0,0,0,29.72,25.62c33.94,26.7,95.81,37.81,122.23,42.55,31.63,5.67,58.26,4.62,120.85.4,30.1-2,61.24-7.84,93.83-17.55,0,.51,0,1,0,1.52-5.88,1.73-11.69,3.37-17.39,4.89C662,585.34,593.61,590.94,542.22,580.72c-45.22-9-109.81-26-148.54-69.7h0Q392.19,509.1,390.68,507.1Zm631-394.46c-32.95,37.56-51.9,78.51-66.17,109.36-9.84,21.27-17.61,38.07-26.72,48.12-3.55,3.92-7,7.65-10.35,11.27-23.15,25-41.44,44.75-50.16,81.43-4.35,18.25-50.54,54.62-107.46,84.59-69.93,36.83-141.9,57.57-197.45,56.9C435.74,502.78,408.86,473.24,350,408.5c-7.53-8.27-15.32-16.83-24-26.08-64.64-69-68.76-70.07-91.63-76.26-4.48-1.22-9.57-2.59-16-4.73-10.78-3.58-18.9-6.95-26.06-9.93-18.41-7.65-33.07-13.74-78.67-17.56,21.38-10.6,27.78-11.64,46.68-14.71l2.72-.45c66.06,16.35,77.43,28.56,151,107.54l15,16.06c77.76,83.31,150,90.25,213.76,96.37,8.35.8,17,1.63,25.36,2.6,26.42,3.08,59.38-3.08,93.56-15.05C724.15,444.39,790.81,403,829.22,363c51.19-53.33,65.5-80.91,80.65-110.12,11.27-21.72,22.92-44.19,50.48-79h0C980.1,150.27,1000.83,130.59,1021.66,112.64Zm-82.17,85.44c-14.83,21.36-23.34,37.75-31.63,53.74-15.07,29.05-29.3,56.49-80.28,109.59-59,61.5-185.15,126.3-259.28,117.67-8.39-1-17-1.81-25.4-2.61-66.44-6.38-135.15-13-212.31-95.65q-7.9-8.47-15-16.07c-72-77.32-84.73-91-147-106.9,3.81-.64,8.08-1.38,12.91-2.27l9-1.68c28.15-5.26,28.15-5.26,41.61,1.36l2.18,1.07c3.37,1.65,5.6,2.18,7.19,1.71,7.45,10.59,14.58,21.52,22.13,33.09C291.9,334.31,321,379,370.77,413c30.77,21.07,136.62,80.58,286.43,28.1a439.8,439.8,0,0,0,41.93-17.2c63.13-29.68,88.46-59,126.79-103.41,15.67-18.14,34.33-39.75,59-65.18,7.29-7.12,14.46-14.33,21.43-21.53l.55-.54v0C918.43,221.3,929.43,209.4,939.49,198.08Zm-81.06,82.1c-13.12,14.4-24.27,27.31-34.22,38.83-38.15,44.18-63.35,73.36-126.05,102.85C527.36,502.17,405.35,434,372,411.13c-22.44-15.36-40.66-32.93-56.51-51.56,2.69,2.88,5.48,5.64,8.37,8.25,50.92,46.07,78.18,60.39,113.5,72,32.22,10.57,59.18,17.79,112.91,14.29a345.14,345.14,0,0,0,92.08-18.57c65.78-23,113.46-62.71,144.88-97l1.91-1.56c11.54-9.46,22.45-18.39,33.12-26.58C834.17,301.3,846.33,291.05,858.43,280.18Zm-85.9,70.37C726.87,395.71,654,445,550.14,451.81c-53.45,3.49-79.07-3.35-112.06-14.18-19.92-6.54-37.27-14-57.83-27.58a211.15,211.15,0,0,0,41.59,19.08c75.88,25.3,123.05,22.92,184.62,1.35,12.65-4.43,25.91-9.67,40.15-15.65,8.74-1.28,17.54-2.83,26.24-4.65C704,403.62,738.47,378.07,772.53,350.55ZM637.72,416c-78.26,32.09-127.36,40.2-215.18,10.91a209.73,209.73,0,0,1-71.88-41.17c13.75,10.31,30.59,19.54,51.72,28.79,57.48,25.15,68.68,24.78,105.8,23.56,20.68-.67,35.93-5.52,50.68-10.2,12.66-4,24.62-7.82,39.31-8.84C610.64,418.78,624,417.75,637.72,416Zm-93.1-2c9.42,2.93,22.36,4.59,37.35,5a244.12,244.12,0,0,0-23.8,6.67c-14.61,4.64-29.71,9.44-50.08,10.11-37.69,1.24-47.82,1.57-104.82-23.38-44.39-19.43-69.62-38.72-87-68.35C343,381.83,378.42,406,429.56,421.68c58.5,18,64.36,17.21,78.31,3.72,2.73-2.64,4.78-5,6.58-7.12C521.18,410.45,523.7,407.52,544.62,414ZM303.3,322.85h0a172.91,172.91,0,0,0,13.11,25.92c-3.24-4.46-6.09-8.69-8.59-12.69h0c-14.49-27.89-14.08-40.63,1.74-54.55,16.68-14.66,53.85-55.28,74.92-79.44C404.1,179.59,412,152,408,120.17c1.29-2.44,2.86-1.78,3.38-1.56,6.55,2.83,15.71,26.56,3.7,59.74-10,27.67-25.5,38.92-43.43,51.94-9.68,7-20.64,15-31.94,26.41-6.41,6.47-12.45,11.86-17.79,16.61C303.12,290,292.45,299.57,303.3,322.85ZM406.21,124.69c2.73,29.39-5.14,54.89-23.43,75.87-21,24.12-58.12,64.65-74.72,79.25-11.33,10-14.53,19.73-12.35,31.54-9.57-29.18,6.12-42.64,21.45-55.8,3.49-3,7.1-6.08,10.29-9.29,14-14.08,21.63-33,29-51.25,4.62-11.51,9-22.39,14.67-31.1,3.1-2.43,6.44-4.88,10.16-7.27,20-12.9,21.89-20.29,23.9-28.12C405.47,127.27,405.8,126,406.21,124.69ZM366,168.1c-4.28,7.77-7.88,16.69-11.63,26-7.26,18.06-14.76,36.74-28.47,50.49-3.13,3.14-6.55,6.07-10.16,9.18-17.28,14.81-36.38,31.2-16.7,71-.15-.23-.3-.45-.44-.68-26.08-40.69-3.49-101.19,21-131.5,18.35-.06,28-8.51,40.2-19.2C361.72,171.74,363.78,169.94,366,168.1ZM316.6,192.73c-24.46,31.3-46.22,91.69-20,132.67a319.19,319.19,0,0,0,25.08,34.15l.92,1.17,0,0q8.12,9.49,16.7,17.82c-4.47-3.85-9.12-8-14-12.38C276.6,322,255.32,236.31,269.94,209.21,282.14,201.14,298.55,193.28,316.6,192.73Zm-50.25,18.94c-9.36,25,2.91,83.33,33,127.51-12.1-16.2-23-32.86-33.7-49.3-7.57-11.6-14.72-22.56-22.2-33.2,1.12-1.69,1-4.55.73-8.29-.43-6.91-1-16.36,6.37-23.59A135.34,135.34,0,0,1,266.35,211.67ZM109.69,275.91c48.22,3.77,62.3,9.62,81.75,17.71,7.2,3,15.36,6.38,26.21,10,6.51,2.16,11.63,3.55,16.14,4.77,14.17,3.83,21,5.68,40.45,24-2.18-1.43-4.38-2.76-6.58-4h0l-.08,0c-27.27-15.3-55.95-16.41-78.42-17.27-8.84-.34-16.48-.63-22.85-1.7-13.67-2.32-26.15-1.18-38.21-.08-19,1.73-37,3.36-58.5-8l4.37-3C85.37,290.42,97.15,282.29,109.69,275.91ZM67.48,302.76c22.59,12.27,41.18,10.59,60.84,8.8,11.92-1.09,24.25-2.21,37.64.05,6.5,1.11,14.21,1.4,23.14,1.74,18.67.71,41.69,1.6,64.51,10.81-24.42-4.57-61.23-1.14-97.05,2.21-23.73,2.21-46.15,4.31-64.58,4.12-22.68-.23-29.05-1.64-38.67-3.77C47.62,325.46,40.84,324,29,322.34,40.78,320.24,53.77,312.12,67.48,302.76Z"/></g></g></svg>