<svg xmlns="http://www.w3.org/2000/svg" viewBox="0 0 316.78 387.87"><defs><style>.cls-1,.cls-2{fill:#d1a543;}.cls-2{font-size:63.47px;font-family:Avenir-Medium, Avenir;font-weight:500;}.cls-3{letter-spacing:-0.05em;}.cls-4{letter-spacing:0em;}</style></defs><title>Ресурс 2</title><g id="Слой_2" data-name="Слой 2"><g id="Слой_1-2" data-name="Слой 1"><path class="cls-1" d="M29.08,167c9.79-4.32,20.66-6.86,31.39-5.23,1.34.22,2.69.56,4,.9,2,.68,4.14,1.58,5.91,2,6.26,1.57,13.1,1.32,19.65,1.54,5.13.22,10.62.27,15.48,2.47a11.08,11.08,0,0,1,4.38,3.56L108,173.64c-4.94-6.14-20.6-3.35-28.14-3.62a51.29,51.29,0,0,1-10.53-.8c-2.29-.45-4.24-1.21-6.16-1.72-8.95-1.95-18.28.33-26.58,3.83-1.4.59-2.94,1.32-4.22,2L29.08,167Z"/><path class="cls-1" d="M50.86,167.18s-18.38,3.24-10,19.24l-5.23-5.06-4.1-9.59-2.49-18.18,1.5-3s.76,13.29,15,11.4Z"/><path class="cls-1" d="M96.23,169.67s3.39,0,3.4,2.2-4.7,4.11-4.7,4.11l6.47,1.22,6.09-2.55-.37-3.12-4.18-2.74-5.71-.47Z"/><path class="cls-1" d="M101.21,167.3s11.69,2.82,18.66,1l-6.36,3.94-9,1.38-2.62-4.39Z"/><text class="cls-2" transform="translate(0 361.91)">IO TR<tspan class="cls-3" x="163.31" y="0">A</tspan><tspan class="cls-4" x="205.08" y="0">VEL</tspan></text><path class="cls-1" d="M183.3,76.86a24.76,24.76,0,0,0,18.92-12.42c1.94-3.51,2.62-8.26.11-11.75-7.57-9.51-25.42-2.23-30.48,6.94C166.23,69,172.77,77.91,183.3,76.86Zm-7.59-15.07c3.54-7.44,17.88-15,24.41-7.54,1.81,2.62,1.11,6.1-.5,8.74A21.23,21.23,0,0,1,183,72.44C175.89,72.78,172.34,68,175.71,61.79Z"/><path class="cls-1" d="M293.86,135.29c0-6.65.16-13.3-.34-19.94C292,97.51,284.34,80.84,274.69,66,268,54.72,260.25,43.7,250,35.36l-.35-.26c-5.35-3.79-10.79-7.37-16-11.33a152.27,152.27,0,0,0-16.71-10.7,67.3,67.3,0,0,0-18.71-6.66C185.44,3.05,172.31.45,159.09.1a125.35,125.35,0,0,0-13.3.15c-6.69.43-13,2.72-19.43,4.38s-13.2,2.27-19.42,4.78C90.34,16.09,76.77,28,63.88,40.08c-3.25,3-6.92,5.64-10,8.84-12.19,13.22-17.12,31-25.33,46.57-.06.11-.11.22-.16.33a38.22,38.22,0,0,0-3,16.27,76.41,76.41,0,0,1-2,16.35c0,.12-.05.24-.07.36-1.59,9.88.56,19.95,2.77,29.57,4.07,18.26,8.44,37.23,19.56,52.73,6.52,9.17,15.15,16.23,22.66,24.38,1.51,1.62,2.94,3.36,4.45,5a49.32,49.32,0,0,0,10.54,8.25c7.53,4.49,16.2,7.62,24.26,11,4.12,1.55,7.93,4,12,5.81a57.18,57.18,0,0,0,13,3.32c8.8,1.25,17.7,1,26.57,1.25,4.42,0,8.86.48,13.3.25,5.57-.29,11-1.88,16.22-3.6,8.45-2.65,17.51-3.36,25.58-7.18A125.13,125.13,0,0,0,254.81,231c5.84-6.64,11.17-13.69,16.39-20.81a114.64,114.64,0,0,0,13.13-23c2.6-6.15,3.33-12.85,5.09-19.24s4.27-12.65,4.57-19.36C294.2,144.14,293.69,139.7,293.86,135.29ZM31,135.29c.16-4.21-.69-8.45-.58-12.68a34.29,34.29,0,0,1,.86-6.06c0-.15.07-.3.11-.45,1.44-5,3.69-9.75,4.68-14.87,1.14-6.24,1.78-12.66,4.77-18.37,3.83-8.59,9.8-16.37,15.33-23.92a125,125,0,0,0,7.25-10.38A48,48,0,0,1,71.83,39C82.94,29.19,96.46,22.46,110,16.77c5.85-2.45,11.28-6,17.54-7.42a83.74,83.74,0,0,1,12.62-1.59c6.32-.53,12.58-1.47,18.93-1.78,11.62-.27,23.46.74,34.66,4,5.11,1.49,9.8,4.08,14.76,5.94,9.83,4,19.75,8.11,28.3,14.51A74.4,74.4,0,0,1,246,39.37l1.63,1.69a5.07,5.07,0,0,1,1.29,2.15c.42,1.51,0,3-2.56,3.72-6.48,1.89-15.8,4.9-15.94,11s4.73,10.08,19,14.27,10,14.58,2.93,16.33-61.26,13-68.55,14-32.81,4.86-37.54,18.5,10.53,20.86,7.43,30.31-9.72,11-47.94,20.59c0,0-20.12,5.94-35.51,17-9.85,7.08-17.2,9.62-23,6.85a5.55,5.55,0,0,1-2.41-2.24c-5.9-10.34-11-21.19-12.93-33C30.6,152.21,31.06,143.71,31,135.29Zm255.77,18.94c-.31,4.17-.4,8.6-1.39,12.69-1.41,6.26-4.77,11.8-7.12,17.72-4.94,11.65-10.57,23.26-18.84,33-2.8,3.19-5.93,6.07-9,9-13.72,13.38-30.49,22.6-47.84,30.16a56,56,0,0,1-11.9,4.52c-4.15,1-8.45,1.06-12.66,1.43-6.34.41-12.54,2-18.9,2.24a84.2,84.2,0,0,1-18.9-2.32c-6.17-1.37-12.18-3.27-18.38-4.47l-6.31-1.06a35.15,35.15,0,0,1-9-3.21c-8.62-4.09-15.9-10.37-23.6-15.88-3.66-2.72-7.8-4.85-11.46-7.6l.09-.11c-3.94-4.45-11-14.29-5.57-22.95,7.29-11.61,30.52-25.93,43.21-30.79s39.7-7.83,47-20.25-8.36-25.48-4.12-34c4.52-9.11,11.41-10.26,54.35-18.9s55.9-10.8,56.71-21.34S250.34,69,244.4,66.28s-12.78-5-10.62-9.81c1.54-3.48,11.3-7.46,19.12-6a12.78,12.78,0,0,1,7.43,4.41,107.48,107.48,0,0,1,8.32,11.08C277,79.32,281.41,95,284.91,110.25c1.89,8.21,3.75,16.57,3.9,25C288.82,141.67,287,147.87,286.74,154.23Z"/></g></g></svg>