<svg width="2040" height="190" viewBox="0 0 2040 190" fill="none" xmlns="http://www.w3.org/2000/svg">
<g clip-path="url(#clip0_3_44)">
<g clip-path="url(#clip1_3_44)">
<rect width="2040" height="1614" transform="translate(0 -1503)" fill="#D1A543"/>
<path d="M2005.51 -1399.49C1996.02 -1399.01 1986.66 -1397.63 1977.03 -1397.11C1972.81 -1397.11 1968.17 -1396.35 1964.37 -1398.67C1959.96 -1401.32 1954.27 -1400.96 1949.13 -1401.21L1939.64 -1401.28C1936.39 -1401.27 1933.14 -1401.46 1929.91 -1401.86C1926.89 -1402.56 1923.8 -1402.99 1920.69 -1403.17C1914.51 -1403.31 1908.34 -1402.64 1902.36 -1401.17L1901 -1401.25L1896.78 -1403.8C1893.95 -1405.5 1891.16 -1407.04 1888.82 -1409.44C1887.97 -1410.38 1886.83 -1411.04 1885.55 -1411.33C1879.97 -1413.03 1873.64 -1413.03 1867.74 -1413.1C1861.67 -1413.1 1855.63 -1412.96 1849.61 -1412.74C1843.14 -1412.84 1836.71 -1413.57 1830.41 -1414.94C1807.93 -1419.65 1787.27 -1429.93 1768.98 -1442.93C1757.2 -1450.52 1743 -1454.08 1729.21 -1457.21C1705.34 -1462.29 1680.83 -1464.81 1656.42 -1466.37C1652.46 -1466.59 1648.49 -1466.79 1644.51 -1466.97C1626.92 -1467.43 1609.82 -1460.36 1609.82 -1460.36C1601.04 -1456.46 1592.19 -1452.8 1584.23 -1447.59C1581.39 -1445.91 1578.76 -1443.94 1576.38 -1441.72C1571.34 -1437.99 1565.21 -1436.2 1559.38 -1434.1C1544.23 -1428.85 1528.24 -1425.53 1513.08 -1421C1512.36 -1420.76 1511.65 -1420.48 1510.97 -1420.15C1505 -1416.61 1497.33 -1416.97 1491.18 -1417.09C1472.04 -1418.17 1453.38 -1423.19 1436.5 -1431.79C1428.86 -1435.79 1419.68 -1437.42 1410.7 -1439C1392.57 -1441.87 1374.11 -1443.3 1355.68 -1444.56C1322.46 -1446.72 1277.48 -1450.25 1244.84 -1452.21L1230.88 -1452.97C1221.46 -1453.83 1212.11 -1455.33 1202.91 -1457.47C1190.25 -1460.53 1175.91 -1463.59 1166.34 -1472.84C1162.29 -1475.84 1157.56 -1477.9 1152.72 -1480.32C1140.61 -1485.89 1127.7 -1491.92 1115.64 -1497.65L1109.31 -1500.65C1107.68 -1501.43 1105.96 -1502.59 1104.03 -1502.8C1090.82 -1503.92 1076.9 -1500.43 1063.95 -1497.3C1053.13 -1494.3 1042.08 -1491.4 1031.97 -1486.94C1025.89 -1483.95 1022.18 -1479.95 1016.4 -1475.51C1013.83 -1473.5 1011.04 -1471.75 1008.08 -1470.31C1001.41 -1467.59 993.578 -1467.87 986.879 -1467.76L973.006 -1467.85C966.18 -1467.58 958.785 -1468.27 952.961 -1465.27C952.909 -1465.15 952.698 -1465.07 952.719 -1465.01C952.719 -1465.01 952.719 -1465.01 952.529 -1464.77C951.291 -1462.95 949.645 -1461.42 947.708 -1460.27C935.649 -1453.74 920.89 -1453.46 907.756 -1452.66C899.316 -1452.27 888.154 -1452.77 879.672 -1452.91C863.932 -1453.38 840.532 -1454.04 824.708 -1454.91C814.791 -1448.22 804.663 -1441.92 794.261 -1435.92C789.9 -1433.27 785.397 -1430.83 780.768 -1428.62L779.302 -1428.07C778.861 -1427.9 778.406 -1427.77 777.941 -1427.67C758.645 -1423.67 738.653 -1425.61 719.653 -1429.93C713.472 -1431.31 707.42 -1433.17 701.56 -1435.49C697.741 -1436.81 693.764 -1439.09 690.071 -1440.62C682.687 -1443.1 674.943 -1443.62 667.062 -1444.08C632.385 -1445.34 572.23 -1437.08 539.326 -1434.76C515.884 -1429.3 492.886 -1422.15 468.589 -1421.02C456.267 -1421.02 444.251 -1424.88 432.72 -1428.47C413.731 -1434.89 395.1 -1441.86 377.861 -1451.8L377.155 -1452.16L376.458 -1452.52L375.54 -1452.88C362.153 -1457.88 347.71 -1460.61 333.595 -1464.33L328.045 -1465.74C310.153 -1466.41 292.271 -1466.33 274.4 -1465.52C270.011 -1465.14 265.728 -1465.33 261.645 -1464.12C255.748 -1462.33 249.428 -1460.65 243.573 -1458.85C238.508 -1457.41 233.532 -1455.69 228.666 -1453.72C227.228 -1453.04 225.922 -1452.12 224.805 -1451.02C205.51 -1433.25 185.676 -1440.3 162.192 -1439.64C160.977 -1439.58 159.788 -1439.28 158.7 -1438.77C147.317 -1432.94 135.058 -1428.88 123.053 -1424.38C116.248 -1422.02 109.623 -1419.56 102.333 -1417.59C94.6526 -1415.81 87.4366 -1415.53 80.1783 -1415.03C70.4092 -1414.36 60.9039 -1414.36 51.5462 -1412.34C42.5051 -1409.98 33.907 -1405.78 25.7626 -1401.34L23.5788 -1400.08L22.5238 -1399.46C22.3893 -1399.38 22.259 -1399.3 22.1334 -1399.21C21.797 -1398.97 21.4446 -1398.76 21.0785 -1398.57C19.8248 -1398.01 18.503 -1397.61 17.1434 -1397.36C11.436 -1396.3 5.74963 -1395.7 0 -1395.13V111H146.642H2040V-1393.52C2032.87 -1394.45 2025.9 -1396.26 2019.27 -1398.92C2014.84 -1399.92 2010.15 -1399.68 2005.51 -1399.49Z" fill="#062B47"/>
<path d="M466.5 94.5L453 111.5L545 119H888L1144 125H1436L1680 120.5H1913.5L2047 118.5L2045 75.5L1984 69.5L1935 62L1893.5 53.5L1845.5 51L1813 55.5L1784 68L1749.5 85.5L1735 92L1695 100L1663 105.5L1646 92L1626.5 80.5L1600 65L1576.5 55H1545.5L1510.5 61.5L1472 67L1436 71.5L1406 70H1364L1335 68.5L1299.5 64.5L1249 58L1208 49.5H1188L1150.5 59.5L1114.5 68.5L1071 81L1021.5 88.5L988.5 95.5L953.5 93H929.5H892.5L852 89L806.5 83.5L759 77L722.5 72.5L696.5 64L674.5 59L624.5 61.5L589.5 70.5L545 76L506.5 80L478.5 87.5L466.5 94.5Z" fill="white" stroke="white"/>
<path d="M60.5 115C91.7 102.6 149.167 78.5 160 70.5L181 59.5L200.5 51L233.5 47.5L270.5 54L295 64L312.5 74L337 87L365 94L405.5 97.5L448 94L452.5 103.5L448 113.5L259 117L60.5 115H-8L-12 94H2.5L60.5 115Z" fill="white"/>
<path d="M60.5 115C91.7 102.6 149.167 78.5 160 70.5L181 59.5L200.5 51L233.5 47.5L270.5 54L295 64L312.5 74L337 87L365 94L405.5 97.5L448 94L452.5 103.5L448 113.5L259 117L60.5 115ZM60.5 115H-8M60.5 115L2.5 94M-8 115L2.5 94M-8 115L-12 94H2.5" stroke="white"/>
</g>
<path d="M5.15 88.09C31.59 105.83 66.53 106.83 95.94 96.28C107.217 92.1495 118.003 86.7835 128.1 80.28C136.1 74.99 143.95 69.28 152.25 64.38C169.25 54.38 187.59 45.74 207.25 42.38C217.221 40.8523 227.352 40.6774 237.37 41.86C264.69 44.73 291.68 53.72 314.37 69.41C314.66 69.63 318.79 72.41 319.37 72.77C334.94 83.31 353.3 89.2 371.97 90.77C388.97 92.56 406.1 89.84 423.18 89.77C426.378 89.8677 429.58 89.7408 432.76 89.39C449.86 86.84 466.44 79.77 483.21 74.58C488.759 72.7634 494.443 71.3924 500.21 70.48C505.51 69.75 510.86 68.89 516.11 67.89C553.02 60.75 592.11 51.49 629.11 45.23C651.03 42.18 675.19 39.74 695.74 50.06C698.88 51.81 699.47 52.41 701.99 53.46C710.45 56.81 719.24 59.09 728.15 61.38C759.81 69.47 792.37 74.38 824.9 77.57C873.739 82.5982 922.803 85.1181 971.9 85.12C987.9 85.24 1003.36 83.19 1019.02 80.28C1056.34 73.13 1092.93 62.08 1130.45 55.28C1137.99 53.86 1146.76 51.92 1154.2 49.89C1167.77 46.2 1181.8 42.08 1196.02 42.27L1200.37 42.47C1201.09 42.52 1201.82 42.52 1202.54 42.6L1204.69 42.85C1206.12 43.02 1207.56 43.15 1208.98 43.37L1213.21 44.14L1215.32 44.51L1217.39 45C1224.67 46.67 1232.07 49.1 1239.3 50.84L1241.3 51.24L1245.24 52.01L1249.18 52.78C1274.49 56.87 1300.62 58.4 1326.18 60.06C1346.97 61.36 1370.68 62.76 1391.47 64.45C1413.16 66.05 1434.98 67.94 1456.72 66.51C1484.11 64.37 1509.41 53.84 1535.72 46.16C1551.02 41.86 1568.09 38.37 1583.72 44.16L1584.89 44.67L1587.21 45.67C1588.71 46.46 1590.21 47.28 1591.64 48.21L1593.72 49.69L1594.72 50.44L1595.49 51.04L1597.02 52.24L1600.14 54.58C1601.2 55.35 1602.28 56.1 1603.32 56.89C1611.93 63.04 1619.61 71.01 1628.7 76.62C1633.3 79.435 1638.18 81.7483 1643.27 83.52C1648.35 85.2544 1653.55 86.6377 1658.82 87.66C1669.29 89.66 1679.38 92.28 1689.69 93.66C1700 95.04 1710.45 95.66 1720.58 93.2C1723.11 92.5889 1725.59 91.8106 1728.01 90.87L1731.75 89.32L1735.44 87.65C1750.27 80.65 1763.98 72.03 1778.15 63.54C1812.53 42.63 1834.56 35.71 1875.99 41.17C1924.83 47 1973.52 59 2021.54 68.41C2025.95 69.14 2030.18 70.01 2034.54 70.04H2034.79C2034.89 70.04 2034.96 70.04 2034.94 70.04C2034.92 70.04 2035.01 70.04 2034.94 70.1C2034.8 70.1615 2034.67 70.2619 2034.58 70.39L2039.79 77.11C2038.9 77.8042 2037.88 78.308 2036.79 78.59L2036.03 78.79C2030.85 79.79 2025.5 79.56 2020.35 79.37C1971 76 1922.56 65.24 1873.89 57.76C1835.41 51.07 1817.47 54.18 1782.76 71.88C1763.25 81.93 1743.68 93.37 1722.97 101.11C1701.22 108.72 1676.48 108.11 1655.37 98.85C1645.06 94.22 1635.27 88.91 1624.81 84.7C1619.64 82.55 1614.26 80.7 1608.97 78.57C1600.31 75.1148 1592.29 70.2451 1585.23 64.16L1584.39 63.48L1583.75 63.01L1582.52 62.06C1582.12 61.73 1581.64 61.52 1581.21 61.23C1573.35 56.42 1563.72 56.1 1554.3 56.79C1538.3 58.14 1522.66 62.17 1506.72 65.64C1490.55 69.25 1474.06 72.79 1457.45 74.22C1447.45 75.1 1418.45 76.03 1407.74 76.58C1360.84 78.621 1313.86 75.4955 1267.64 67.26L1259.46 65.78L1251.28 64.05C1249.2 63.64 1245.15 62.73 1243.11 62.18L1237 60.66C1236 60.42 1228.1 57.93 1226.85 57.57C1223.26 56.4 1219.06 55.07 1215.4 54.23C1213.4 53.65 1209.78 53.07 1207.69 52.67C1205.81 52.41 1203.77 52.2 1201.89 51.97C1201.24 51.89 1200.6 51.91 1199.95 51.88L1196.09 51.75C1179.84 51.75 1165.58 58.36 1150.09 64.11C1139.89 67.95 1129.09 71.47 1118.85 75.11C1090.33 85.52 1060.91 94.11 1030.95 99.61C1017.07 102.06 1002.74 104.06 988.65 104.48C977.21 104.64 966.24 103.94 954.97 103.14C911 99.74 867.46 94.06 823.7 89C804.62 86.6 777.08 83.36 758.14 81.38C741.58 79.52 725 78 708.44 74.9C702.5 73.72 696.18 72.37 690.56 69.85C682.2 65.16 672.73 64.14 663.06 63.85C647.45 63.44 631.7 65.52 616.22 68.15C603.96 70.23 579.75 73.88 567.49 75.89C545.65 79.2 523.76 82.8 501.67 84.44C480.19 86.68 459.85 95.76 437.97 98.35L433.64 98.78L429.22 98.94C427.73 98.94 426.22 98.82 424.7 98.75L420.77 98.49C404.47 98.12 387.7 99.66 371.25 97.41C359.76 95.9279 348.483 93.1053 337.65 89L336.65 88.59L334.71 87.78L330.82 86.18L328.82 85.38L327 84.5L323.21 82.66C321.96 82.03 320.66 81.47 319.43 80.81L315.77 78.73L308.54 74.73C299.31 69.59 289.12 65.9 278.99 62.88C258.74 57 237.69 52.61 216.52 53C203.46 53.45 190.52 56.84 178.52 61.76C171.11 64.8031 163.92 68.3549 157 72.39C147.48 77.8 138.8 84.48 129.34 90.07C115.453 98.5023 100.339 104.723 84.54 108.51C61.68 113.68 37.12 112.36 15.42 103.16C9.99682 100.955 4.82698 98.1725 0 94.86L5.15 88.09Z" fill="#D1A543"/>
<path d="M472.88 87.59C459.88 105.69 443.36 127.74 421.62 135.59C418.061 136.745 414.416 137.618 410.72 138.2C400.241 139.988 389.647 141.024 379.02 141.3C357.22 141.97 334.82 136.74 313.37 139.3C282.37 146.3 250.51 151.11 220.14 160.54C208.14 164.37 193.14 169.83 181.24 173.89C166.012 179.252 150.445 183.595 134.64 186.89C126.38 188.48 118.1 189.89 109.64 190.01C91.9849 189.746 74.4644 186.889 57.64 181.53L59.36 173.2C64.61 173.53 74.56 174.33 79.52 174.54C90.41 175.09 101.41 175.65 112.27 174.63C129.76 172.49 147.19 167.8 164.56 164.37C209.13 155.28 253.78 144.82 296.56 129.19C300.72 127.7 305.15 125.85 309.63 124.3C314.523 122.853 319.548 121.894 324.63 121.44C343.63 119.87 361.71 121.15 380.25 123.84C393.34 125.63 406.25 129.42 419.34 127.32C437.78 122.82 452.77 104.9 462.43 89.19C463.56 87.3 464.68 85.29 465.57 83.41L472.95 87.64L472.88 87.59Z" fill="#D1A543"/>
<path d="M1384.14 67.9C1395.48 82.78 1412.57 97.9 1431.9 99.53C1438.3 99.86 1445.09 99.28 1451.08 96.85C1454.36 95.3471 1457.86 94.3847 1461.44 94C1464.1 93.7935 1466.78 93.7935 1469.44 94C1477.16 94.6256 1484.84 95.7109 1492.44 97.25C1532.01 104.46 1572.04 117.63 1612.51 110.83C1618.91 109.83 1625.41 108.15 1631.7 106.59C1651.7 101.75 1671.8 97.59 1692.34 96.21L1694.16 104.52C1681.36 109.52 1668.16 113.17 1654.87 116.41C1644.81 118.77 1634.73 120.98 1624.51 122.58C1613.86 124.015 1603.05 123.975 1592.41 122.46C1580.41 120.91 1563.66 116.64 1551.76 113.92C1540.64 111.35 1523.04 107.46 1511.76 104.92C1501.02 102.53 1490.13 100.24 1479.23 98.69C1472.34 97.89 1465.16 96.88 1458.34 98.52C1454.81 99.52 1451.17 101.52 1447.54 102.45C1442.34 103.724 1436.99 104.318 1431.64 104.22C1413.55 103.35 1397.95 92.52 1385 80.77C1382.34 78.3 1379.91 75.92 1377.45 73.16L1384.13 67.9H1384.14Z" fill="#D1A543"/>
<path d="M1866.13 45.38C1884.27 28.54 1910.64 11.23 1935.86 8.78C1939.81 8.51886 1943.78 8.62263 1947.71 9.09C1960.88 9.7 1974.77 6.42 1988.09 3.89C2001.34 1.64 2022.09 -3.78 2034.25 4.22L2030 11.58C2028.74 11.1808 2027.44 10.939 2026.13 10.86C2021.39 10.64 2016.76 11.56 2011.94 12.7C2005.31 14.31 1998.52 16.39 1991.6 18.38C1977.22 22.43 1962.12 26.57 1946.81 25.87C1945.15 25.79 1943.11 25.56 1941.43 25.45C1936.87 25.3172 1932.31 25.8152 1927.89 26.93C1907.99 31.93 1889.51 42.2 1871.31 52.14L1866.14 45.38H1866.13Z" fill="#D1A543"/>
<path d="M460.68 103.85C460.68 103.85 473.16 87.73 494.32 85.44C494.32 85.44 479.2 79.05 477.5 80.94C475.8 82.83 456.22 87.71 456.22 87.71L433.64 98.76C433.64 98.76 459 96.54 445 111.52L460.68 103.85Z" fill="#D1A543"/>
<path d="M1413.22 76.32C1413.22 76.32 1392 77.29 1407 90L1393.61 88L1386.47 76.28L1393.62 71.48H1406.8L1413.22 76.32Z" fill="#D1A543"/>
<path d="M1366.9 77.08C1366.9 77.08 1385 82 1393.62 88L1391.93 77L1377.46 73.08L1366.9 77.08Z" fill="#D1A543"/>
<path d="M1634.52 89C1634.52 89 1657.42 100.47 1628.3 107.48L1645.11 111.57L1674.48 100.28C1674.48 100.28 1658.29 93.79 1657.16 93.03C1656.03 92.27 1634.52 89 1634.52 89Z" fill="#D1A543"/>
<path d="M1679.76 109.58L1707.43 105.07L1699.7 102.02H1681.63L1679.76 109.58Z" fill="#D1A543"/>
<path d="M1917.77 29.93C1917.77 29.93 1886.51 41.6 1917.77 47.53L1884.77 49.41H1865.29L1846.48 39.67C1846.48 39.67 1872.32 37.89 1892.48 25.16L1917.77 29.93Z" fill="#D1A543"/>
</g>
<defs>
<clipPath id="clip0_3_44">
<rect width="2039.81" height="189.96" fill="white"/>
</clipPath>
<clipPath id="clip1_3_44">
<rect width="2040" height="1614" fill="white" transform="translate(0 -1503)"/>
</clipPath>
</defs>
</svg>
