<svg width="1957" height="186" viewBox="0 0 1957 186" fill="none" xmlns="http://www.w3.org/2000/svg">
<g clip-path="url(#clip0_2_3)">
<path d="M5.79004 83.17C16.88 78.45 26.73 73.42 38.6 70.41C40.6 69.95 44.03 69.41 46.38 70.5L46.75 70.65C47.1467 70.8289 47.5681 70.9469 48 71C57 70.95 66.18 66 74.23 62C83.14 57.19 93.23 55.18 102.85 52.29C108.36 50.84 113.85 49.39 119.58 48.29C123.58 47.69 127.9 46.44 132.23 47.83C133.92 48.1915 135.629 48.452 137.35 48.61C165.46 51.33 194 54.73 221.23 63C229.07 65.74 238.86 68.41 244.57 75.33C252.15 87.59 267.09 89.65 280.48 91.84C285.93 92.51 291.59 94.9 297.13 96.15C319.2 101.21 341.5 104.92 363.23 112.15C366.6 113.38 370.62 114.62 373.91 116.57C394.596 129.549 416.786 139.959 439.99 147.57L443.99 148.7C445.31 149.06 446.63 149.31 447.99 149.63C455.99 151.43 464.09 150.38 472.3 149.33C488.928 146.703 505.291 142.614 521.2 137.11C544.383 132.724 567.82 129.805 591.37 128.37C608.97 127.45 626.63 126.96 644.27 127.96C653.27 128.62 662.61 129.12 671.08 132.96L674.92 134.63C681.534 137.13 688.407 138.885 695.41 139.86C703.857 141.089 712.368 141.823 720.9 142.06C729.65 142.27 739.28 142.55 747.53 140.62C749.329 139.971 751.069 139.168 752.73 138.22L760.44 134.22C770.97 128.69 781.58 123.16 792.39 118.04C807.54 117.35 830.07 116.51 845.53 116.04C858.16 115.74 871.99 115.67 884.4 113.8C890.46 112.92 896.61 111.89 902.05 109.47C904.23 108.47 904.99 107.83 905.76 106.66C908.76 101.8 915.11 100.12 920.09 99.41C933.6 97.32 948.87 100.41 962.03 97.91C968.89 95.1 972.75 89.81 979.39 85.47C983.448 82.7668 987.93 80.7624 992.65 79.54C1005.71 76.14 1018.65 73.75 1031.79 71.29C1040.79 69.77 1049.59 67.79 1058.79 67.99C1060.23 68.0621 1061.66 68.3382 1063.02 68.81L1066.14 70.02C1076.46 73.81 1087 76.94 1097.22 81.29C1105.73 84.88 1113.75 88.57 1121.41 94.19C1123.07 95.4432 1124.61 96.864 1125.98 98.43C1129.89 103.23 1135.98 106.15 1141.67 108.98C1149.48 112.624 1157.66 115.41 1166.07 117.29C1174.6 119.29 1183.16 119.6 1191.88 119.94C1209.44 120.61 1227.04 120.94 1244.63 121.7C1285.34 123.96 1326.41 127.14 1366.05 137.31C1369.36 138.28 1372.57 139.594 1375.61 141.23C1383.23 145.184 1391.37 148.023 1399.8 149.66C1408.14 151.373 1416.66 152.121 1425.17 151.89C1429.43 151.65 1434.07 151.45 1437.84 149.89C1441.73 147.32 1445.04 146.5 1449.05 145.2C1457.69 142.67 1466.2 140.68 1474.74 138.76C1482.93 136.76 1491.74 134.97 1499.21 131.59C1500.13 131.159 1500.99 130.615 1501.77 129.97C1507.55 124.74 1514.5 121.14 1520.91 116.97C1528.38 112.27 1535.72 107.19 1542.61 102.25C1545.61 100.34 1548.1 97.55 1551.31 96.25L1553.16 95.36C1558.2 93.4875 1563.41 92.1469 1568.73 91.36C1577.66 89.9612 1586.7 89.3954 1595.73 89.67L1594.17 89.98C1602.58 89.86 1609.74 86.98 1617.52 84.59C1636.58 78.8 1655.7 72.73 1675.68 70.8C1684.85 70.29 1694.47 69.95 1702.81 75.27L1703.61 75.8C1703.89 75.98 1704.13 76.15 1704.28 76.27L1706.47 77.86C1707.94 78.8988 1709.46 79.8633 1711.02 80.75C1717.46 84.1892 1724.52 86.3169 1731.79 87.01C1739.94 88.07 1748.1 87.13 1756.48 87.06C1759.48 87.06 1762.48 85.99 1765.34 84.93C1776.13 80.7 1786.43 74.79 1796.34 68.7C1809.84 59.86 1822.66 50.43 1838.71 46.45C1842.95 45.3397 1847.39 45.186 1851.7 46C1853.8 46.592 1855.85 47.3857 1857.8 48.37L1858.98 48.89C1860.2 49.3023 1861.45 49.6363 1862.72 49.89C1873.49 52.24 1884.64 46.8 1895.45 43.74L1897.15 43.35L1899.1 43.06H1899.34H1899.47H1899.39C1899.46 43.0135 1899.53 42.9765 1899.61 42.95L1899.98 42.74C1907.28 37.96 1913.62 30.74 1919.9 24.05C1925.1 18.39 1930.08 12.24 1933.72 5.29999L1939.43 1.29999L1941.26 1.89999L1956.87 6.99999V17.07L1941.27 22.18L1948.82 18.83C1942.18 23.4843 1935.89 28.6145 1930 34.18C1922.11 40.86 1914.48 48.28 1904.57 52.91C1903.42 53.4027 1902.21 53.739 1900.97 53.91L1900.17 53.99H1899.8C1899.07 54.003 1898.33 54.0665 1897.61 54.18C1894.28 54.68 1890.31 55.8 1886.36 56.62C1876.18 58.9 1864.41 59.8 1854.84 54.5C1853.35 53.5819 1851.77 52.8211 1850.12 52.23C1839.3 49.78 1828.31 55.23 1818.51 60.07C1811.57 63.55 1805.08 68.29 1798.51 72.39L1788.4 78.6C1779.71 83.6 1771.17 89.12 1761.57 92.4C1759.47 93.0416 1757.3 93.4015 1755.11 93.47C1747.28 94.27 1739.11 95.47 1731.11 95.03C1719.37 94.5987 1708.05 90.5702 1698.67 83.49C1695.46 81.07 1691.67 80.17 1687.21 79.66C1679.71 79.0295 1672.17 79.1904 1664.7 80.14C1653.12 81.533 1641.64 83.7181 1630.36 86.68C1619.14 90.07 1606.88 91.99 1597.52 99.58C1588.59 100.85 1579.43 101.9 1570.67 103.42C1564.97 104.54 1559.37 105.36 1554.49 107.92C1541.33 116.61 1526.07 120.92 1513.25 129.83C1510.56 131.509 1508.07 133.478 1505.81 135.7C1501.03 139.43 1495.22 141.22 1489.7 143.32C1475.34 148.57 1460.18 151.89 1445.81 156.42C1445.13 156.66 1444.46 156.944 1443.81 157.27C1438.15 160.81 1430.89 160.45 1425.05 160.33C1406.91 159.251 1389.22 154.235 1373.22 145.63C1365.98 141.63 1357.28 140 1348.77 138.42C1331.58 135.55 1314.08 134.12 1296.61 132.86C1265.12 130.7 1222.49 127.17 1191.55 125.2L1178.32 124.44C1169.38 123.583 1160.52 122.079 1151.8 119.94C1139.8 116.88 1126.21 113.82 1117.14 104.57C1113.3 101.57 1108.82 99.51 1104.23 97.09C1092.75 91.51 1080.51 85.48 1069.08 79.75L1063.08 76.75C1061.54 75.97 1059.91 74.81 1058.08 74.6C1045.55 73.48 1032.36 76.97 1020.08 80.1C1009.83 83.1 999.35 86 989.77 90.46C984.01 93.46 980.49 97.46 975.01 101.9C972.578 103.912 969.936 105.655 967.13 107.1C960.8 109.82 953.38 109.54 947.03 109.65L933.88 109.56C927.41 109.83 920.4 109.14 914.88 112.14C914.83 112.26 914.63 112.34 914.65 112.4C914.65 112.4 914.65 112.4 914.47 112.64C913.296 114.458 911.736 115.995 909.9 117.14C898.47 123.67 884.48 123.95 872.03 124.75C864.03 125.14 853.45 124.64 845.41 124.5C830.29 124.02 807.68 123.36 792.67 122.5L793.79 122.19C784.25 129.02 774.45 135.39 764.45 141.52C760.318 144.176 756.049 146.613 751.66 148.82L750.27 149.37C749.853 149.541 749.421 149.674 748.98 149.77C730.69 153.77 711.74 151.83 693.73 147.51C687.87 146.102 682.134 144.219 676.58 141.88C672.96 140.56 669.19 138.28 665.69 136.75C658.69 134.27 651.35 133.69 643.88 133.29C611.01 132.03 553.99 140.29 522.8 142.61C500.57 148.07 478.75 155.22 455.72 156.34C444.04 156.34 432.65 152.48 421.72 148.88C403.77 142.47 386.06 135.5 369.72 125.55L369.05 125.19L368.39 124.83L367.52 124.47C354.83 119.47 341.14 116.74 327.76 113.02C315.41 109.68 303.03 106.54 290.81 102.54C290.14 102.33 289.36 101.99 288.63 101.71L286.63 100.92C284.185 99.9935 281.662 99.2906 279.09 98.82C267.84 96.41 255.5 94.82 245.85 87.29C243.314 85.3132 241.104 82.9512 239.3 80.29C238.3 78.78 236.3 77.5 234.02 76.29C224.56 71.71 213.1 69.59 202.62 67.5C179.22 63.05 155.29 60.67 131.62 55.09L131.03 54.91C130.782 54.8457 130.538 54.7655 130.3 54.67L129.45 54.31C129.24 54.21 129.26 54.25 129.29 54.24C128.945 54.087 128.576 53.9957 128.2 53.97C125.601 53.7822 122.99 53.8357 120.4 54.13C109.294 55.3139 98.3393 57.6396 87.71 61.07C82.43 62.7085 77.3997 65.0638 72.76 68.07C66.38 71.47 59.84 75 52.63 76.78C50.26 77.35 47.24 77.88 44.63 77L43.8 76.72C43.6 76.64 43.66 76.72 43.67 76.72C42.587 76.8117 41.521 77.047 40.5 77.42C35.4852 79.388 30.6756 81.8431 26.14 84.75C21.4117 87.6418 16.8449 90.7899 12.46 94.18L5.79004 83.17Z" fill="#D1A543"/>
<path d="M1690.73 71.48C1696.84 70.125 1702.87 68.4562 1708.8 66.48C1712.32 65.48 1715.08 64.27 1719.09 64.48C1719.97 64.7043 1720.88 64.835 1721.79 64.87C1727.57 64.5455 1733.24 63.2366 1738.58 61L1736.97 61.64C1743.43 59.4702 1749.63 56.6138 1755.48 53.12C1760.06 50.34 1759.48 43.97 1763.62 40.44C1768.02 37.2941 1772.12 33.7454 1775.86 29.84C1784.58 21.51 1792.53 12.23 1801.86 4.39999C1804.86 1.95999 1809.58 0.95999 1813.09 0.48999C1820.18 -0.38001 1826.93 -0.44001 1834.03 1.48999C1836.71 2.13945 1839.18 3.43761 1841.24 5.26999C1846.11 9.75999 1850.69 14.45 1855.83 18.56C1860.05 21.91 1864.3 25.21 1868.73 28.18C1875.16 31.7 1882.48 33.73 1889.46 35.93C1892.8 36.78 1896.58 38.02 1899.74 38.05C1904.06 36.96 1908.61 35.71 1912.97 34.4L1914.82 44.29C1910.31 44.63 1905.82 45.09 1901.36 45.6C1900.63 45.6699 1899.89 45.6699 1899.16 45.6C1890.78 43.8 1883.16 39.96 1875.26 36.76C1871 35.1303 1867 32.912 1863.36 30.17C1854.77 23.47 1846.36 16.59 1836.86 11.17C1835.42 10.4177 1833.82 10.0168 1832.2 9.99999C1824.5 9.43999 1815.34 8.84999 1807.84 11.12C1807.52 11.2415 1807.21 11.41 1806.94 11.62C1804.43 13.38 1801.94 15.38 1799.52 17.3C1788.31 25.89 1777.85 35.5 1766.15 43.58C1762.88 46.75 1762.77 52.88 1758.69 56.03L1757.95 56.67L1757.28 57.16C1751.82 61.0483 1746.77 65.4738 1742.19 70.37L1740.64 70.94C1733.05 70.84 1725.5 72.41 1718.09 70.57C1717.42 70.5172 1716.75 70.5576 1716.09 70.69C1708.38 72.4473 1701.14 75.8594 1694.88 80.69L1690.71 71.53L1690.73 71.48Z" fill="#D1A543"/>
<path d="M322.67 111.64C305.663 110.973 288.663 111.047 271.67 111.86C267.51 112.24 263.45 112.05 259.58 113.26C254 115 248 116.73 242.44 118.53C237.639 119.978 232.922 121.69 228.31 123.66C226.947 124.347 225.709 125.26 224.65 126.36C206.4 144.15 187.57 137.1 165.33 137.76C164.178 137.818 163.051 138.114 162.02 138.63C151.23 144.46 139.61 148.52 128.23 153.02C121.78 155.42 115.5 157.84 108.58 159.81C101.31 161.59 94.47 161.87 87.58 162.36C78.32 163.03 69.31 163.03 60.44 165.05C51.87 167.41 43.72 171.61 36 176.05L34 177.3L33 177.92C32.8726 177.997 32.7491 178.08 32.63 178.17C32.3111 178.405 31.9771 178.619 31.63 178.81C30.4438 179.369 29.19 179.773 27.9 180.01C21.81 181.25 15.75 181.85 9.60003 182.5L8.78003 172.5C14.99 171.98 21.35 171.68 27.42 170.36C27.3265 170.392 27.2362 170.432 27.15 170.48C27.0466 170.539 26.9523 170.614 26.87 170.7C27.18 170.52 27.63 170.16 27.87 170.02C38.3 164.02 49.29 158.51 61.23 156.23C76.23 153.93 92.23 155.73 106.85 152.87C119.59 149.46 132.65 144.58 145.14 139.94C150.031 138.204 154.815 136.184 159.47 133.89C160.72 133.247 162.074 132.834 163.47 132.67C171.08 132.03 178.21 133.44 185.65 133.77C202.04 135.27 211.72 133.38 224 121.64C229.19 118.14 235.4 116.75 241.17 114.64C245.94 113.07 254.59 110.24 259.35 108.64C266.78 106.98 274.19 106.72 281.48 105.88C295.1 104.6 308.68 103.34 322.3 101.65L322.68 111.71L322.67 111.64Z" fill="#D1A543"/>
<path d="M91.58 159.87C87.1 156.7 79.24 151.21 75.04 147.87C70.49 145.64 65.26 146.62 60.14 145.51C59.4863 145.373 58.8418 145.196 58.21 144.98C51 142.8 43.54 143.28 36 141.66C32 140.94 28.4 139.52 24.46 139.28C19.4229 138.911 14.3607 139.082 9.35998 139.79C6.23566 140.007 3.09897 139.974 -0.0200195 139.69L1.10998 129.69C3.55583 130.083 6.02412 130.32 8.49998 130.4C14.1511 130 19.8285 130.191 25.44 130.97C29.65 131.48 33.72 133.25 37.66 134.27C44.95 136.36 53.25 136.27 60.49 139.18C62.6622 139.832 64.8985 140.248 67.16 140.42C70.71 140.96 74.79 141.23 77.98 143.51C80.15 145.3 82.28 147.16 84.5 148.92L94.06 156.51L91.56 159.87H91.58Z" fill="#D1A543"/>
<path d="M282.87 99.71C282.87 99.71 295.34 104.42 281.47 105.81L289.22 108.67L302.63 105.79L300.88 100.27C300.88 100.27 291.48 96.51 290.88 96.51C290.28 96.51 282.87 99.71 282.87 99.71Z" fill="#D1A543"/>
<path d="M86.55 150.53C92.0418 153.047 98.1193 154.009 104.12 153.31C104.12 153.31 94.46 158.05 94.12 158.43C93.78 158.81 80.12 158.43 80.12 158.43L72.23 155.12C72.23 155.12 82.39 155.99 77.81 149.94L86.55 150.53Z" fill="#D1A543"/>
<path d="M1712.45 71.62C1712.45 71.62 1701.67 76 1711 80.81H1705.13L1699.88 77.23L1700.88 72.99L1708.32 70.86L1712 70.65L1712.45 71.62Z" fill="#D1A543"/>
<path d="M1700 69.17C1694.52 70.3775 1688.91 70.855 1683.31 70.59L1686.15 75.04L1695.88 74.62L1698.88 72.36L1700.18 70.36L1700 69.17Z" fill="#D1A543"/>
<path d="M1881.52 39.54C1881.52 39.54 1893.8 45.02 1880.27 48.54L1890.94 51.6C1890.94 51.6 1901.07 46.74 1901.33 45.66C1901.59 44.58 1898.21 40.28 1898.21 40.28L1884.21 38.28L1881.52 39.54Z" fill="#D1A543"/>
<path d="M1889.43 36C1889.43 36 1902.53 40.27 1914.79 29.46L1912.79 39.46L1895.49 43.79L1889.49 39.07L1889.43 36Z" fill="#D1A543"/>
<path d="M1547.24 98.88C1582.55 101.88 1617.7 105.71 1652.17 114.09C1663.73 117.09 1675.17 120.47 1685.82 126.27C1691.07 129.12 1695.48 133.11 1700.52 136.27C1717.35 147.02 1736.94 153.17 1756.61 155.66C1760.78 156.193 1764.98 156.383 1769.18 156.23C1773.74 156.368 1778.27 156.95 1782.71 157.97C1789.36 159.63 1796.13 161.03 1802.24 164.38C1802.98 164.855 1803.62 165.469 1804.13 166.19C1806.79 169.19 1811.29 170.73 1815.25 170.75L1813.97 170.67C1823.27 170.16 1832.52 169.85 1841.56 172.31C1850.46 173.67 1859.4 172.63 1868.56 174.03C1871.07 174.299 1873.48 175.189 1875.56 176.62C1876.01 176.936 1876.52 177.158 1877.06 177.27C1879.89 177.775 1882.77 177.899 1885.63 177.64C1891.56 177.29 1897.53 176.53 1903.52 175.92C1911.03 175.25 1918.86 173.97 1926.52 175.53C1928 175.991 1929.46 176.532 1930.89 177.15C1939.16 179.9 1948.34 180.3 1956.99 179.7V185.37C1946.26 184.25 1935.66 182.92 1925.75 178.53C1921.55 177.53 1917.11 177.77 1912.75 177.96C1903.75 178.44 1894.87 179.82 1885.75 180.34C1881.75 180.34 1877.35 181.1 1873.75 178.78C1869.57 176.13 1864.18 176.49 1859.31 176.23L1850.31 176.17C1847.23 176.178 1844.15 175.985 1841.09 175.59C1838.22 174.893 1835.3 174.455 1832.35 174.28C1826.49 174.138 1820.64 174.811 1814.97 176.28L1813.68 176.2L1809.68 173.65C1806.99 171.95 1804.35 170.41 1802.13 168.01C1801.33 167.069 1800.24 166.407 1799.04 166.12C1793.69 164.45 1787.72 164.42 1782.1 164.37C1776.48 164.32 1770.62 164.51 1764.91 164.73C1758.78 164.628 1752.68 163.891 1746.71 162.53C1725.4 157.81 1705.82 147.53 1688.48 134.53C1677.32 126.94 1663.86 123.37 1650.79 120.24C1628.16 115.16 1604.93 112.64 1581.79 111.08C1570.22 110.4 1558.52 109.84 1546.97 109.83L1547.35 98.9L1547.24 98.88Z" fill="#D1A543"/>
<path d="M1594.14 100.06C1594.14 100.06 1587.57 102.75 1596.95 104.06C1596.95 104.06 1589.87 106.61 1589.59 106.61C1589.31 106.61 1574.82 103.36 1574.82 103.34C1574.82 103.32 1577.64 98.14 1577.64 98.14L1589.78 96.64L1594.14 100.06Z" fill="#D1A543"/>
<path d="M1537.51 117.06C1537.51 117.06 1554.97 109.45 1572.28 110.54L1569.36 104.34C1569.36 104.34 1554.58 103.21 1553.83 103.68C1553.08 104.15 1545.45 108.2 1545.45 108.2L1538.58 114.04L1537.51 117.06Z" fill="#D1A543"/>
<g clip-path="url(#clip1_2_3)">
<path d="M1912 177.54C1903 178.02 1894.13 179.4 1885 179.92C1881 179.92 1876.6 180.68 1873 178.36C1868.82 175.71 1863.43 176.07 1858.56 175.82L1849.56 175.75C1846.48 175.758 1843.4 175.564 1840.34 175.17C1837.47 174.473 1834.55 174.035 1831.6 173.86C1825.74 173.718 1819.89 174.391 1814.22 175.86L1812.93 175.78L1808.93 173.23C1806.25 171.53 1803.61 169.99 1801.39 167.59C1800.58 166.647 1799.5 165.985 1798.29 165.7C1793 164 1787 164 1781.41 163.93C1775.65 163.93 1769.93 164.07 1764.22 164.29C1758.09 164.188 1751.99 163.451 1746.02 162.09C1724.71 157.37 1705.13 147.09 1687.79 134.09C1676.63 126.5 1663.17 122.93 1650.1 119.8C1627.47 114.72 1604.24 112.2 1581.1 110.64C1577.35 110.42 1573.58 110.22 1569.81 110.04C1553.14 109.58 1536.93 116.65 1536.93 116.65C1528.61 120.55 1520.22 124.21 1512.67 129.43C1509.98 131.109 1507.49 133.078 1505.23 135.3C1500.45 139.03 1494.64 140.82 1489.12 142.92C1474.76 148.17 1459.6 151.49 1445.23 156.02C1444.55 156.26 1443.88 156.544 1443.23 156.87C1437.57 160.41 1430.3 160.05 1424.47 159.93C1406.33 158.851 1388.64 153.835 1372.64 145.23C1365.4 141.23 1356.7 139.6 1348.18 138.02C1331 135.15 1313.5 133.72 1296.03 132.46C1264.54 130.3 1221.91 126.77 1190.97 124.8L1177.74 124.04C1168.8 123.183 1159.94 121.679 1151.22 119.54C1139.22 116.48 1125.63 113.42 1116.56 104.17C1112.72 101.17 1108.24 99.11 1103.65 96.69C1092.17 91.11 1079.93 85.08 1068.5 79.35L1062.5 76.35C1060.96 75.57 1059.33 74.41 1057.5 74.2C1044.97 73.08 1031.78 76.57 1019.5 79.7C1009.25 82.7 998.77 85.6 989.19 90.06C983.43 93.06 979.91 97.06 974.43 101.5C971.998 103.512 969.356 105.255 966.55 106.7C960.22 109.42 952.8 109.14 946.45 109.25L933.3 109.16C926.83 109.43 919.82 108.74 914.3 111.74C914.25 111.86 914.05 111.94 914.07 112C914.07 112 914.07 112 913.89 112.24C912.716 114.058 911.156 115.595 909.32 116.74C897.89 123.27 883.9 123.55 871.45 124.35C863.45 124.74 852.87 124.24 844.83 124.1C829.91 123.63 807.73 122.97 792.73 122.1C783.33 128.8 773.73 135.1 763.87 141.1C759.737 143.754 755.467 146.191 751.08 148.4L749.69 148.95C749.272 149.121 748.841 149.255 748.4 149.35C730.11 153.35 711.16 151.41 693.15 147.09C687.291 145.709 681.555 143.85 676 141.53C672.38 140.21 668.61 137.93 665.11 136.4C658.11 133.92 650.77 133.4 643.3 132.94C610.43 131.68 553.41 139.94 522.22 142.26C500 147.72 478.2 154.87 455.17 156C443.49 156 432.1 152.14 421.17 148.55C403.17 142.13 385.51 135.16 369.17 125.21L368.5 124.85L367.84 124.49L366.97 124.13C354.28 119.13 340.59 116.4 327.21 112.68L321.95 111.27C304.99 110.603 288.04 110.677 271.1 111.49C266.94 111.87 262.88 111.68 259.01 112.89C253.42 114.68 247.43 116.36 241.88 118.16C237.079 119.608 232.362 121.32 227.75 123.29C226.386 123.977 225.149 124.89 224.09 125.99C205.8 143.77 187 136.72 164.74 137.38C163.588 137.438 162.461 137.734 161.43 138.25C150.64 144.08 139.02 148.14 127.64 152.64C121.19 155 114.91 157.46 108 159.43C100.72 161.21 93.88 161.49 87 162C77.74 162.67 68.73 162.67 59.86 164.69C51.29 167.05 43.14 171.25 35.42 175.69L33.35 176.95L32.35 177.57C32.2225 177.647 32.099 177.73 31.98 177.82C31.6611 178.055 31.3271 178.269 30.98 178.46C29.7917 179.017 28.5387 179.423 27.25 179.67C21.84 180.73 16.45 181.33 11 181.9V1688.46H1944.69V183.51C1937.93 182.584 1931.32 180.768 1925.04 178.11C1920.84 177.11 1916.4 177.35 1912 177.54Z" fill="#062B47"/>
</g>
</g>
<defs>
<clipPath id="clip0_2_3">
<rect width="1956.87" height="185.33" fill="white"/>
</clipPath>
<clipPath id="clip1_2_3">
<rect width="1933.69" height="1614.46" fill="white" transform="translate(11 74)"/>
</clipPath>
</defs>
</svg>
